<svg width="149" height="149" viewBox="0 0 149 149" fill="none" xmlns="http://www.w3.org/2000/svg">
<path d="M93.3126 43.3029H56.1876V111.375H93.3126V43.3029Z" fill="#AEDAD9"/>
<path d="M82.4941 43.3028H79.3906V40.2284H70.1094V43.3028H67.006V37.125H82.4941V43.3028Z" fill="#232323"/>
<path d="M93.3125 98.9904H56.5645V102.094H93.3125V98.9904Z" fill="#232323"/>
<path d="M74.75 83.5312C81.5898 83.5312 87.1346 77.9864 87.1346 71.1466C87.1346 64.3067 81.5898 58.7619 74.75 58.7619C67.9101 58.7619 62.3653 64.3067 62.3653 71.1466C62.3653 77.9864 67.9101 83.5312 74.75 83.5312Z" fill="white"/>
<path d="M76.3162 78.0495L73.5609 76.6573L75.5331 72.7128H69.3553L73.5609 64.2726L76.3162 65.6648L74.344 69.6094H80.5508L76.3162 78.0495Z" fill="#232323"/>
</svg>
