<svg width="39" height="75" viewBox="0 0 39 75" fill="none" xmlns="http://www.w3.org/2000/svg">
<path d="M38.2536 6.50867H0.952148V74.9043H38.2536V6.50867Z" fill="#FF8C21"/>
<path d="M27.3837 6.50858H24.2655V3.41956H14.9402V6.50858H11.822V0.301392H27.3837V6.50858Z" fill="white"/>
<path d="M38.2534 62.4608H1.33081V65.579H38.2534V62.4608Z" fill="white"/>
<path d="M19.6027 46.9283C26.4751 46.9283 32.0462 41.3572 32.0462 34.4848C32.0462 27.6124 26.4751 22.0413 19.6027 22.0413C12.7303 22.0413 7.15918 27.6124 7.15918 34.4848C7.15918 41.3572 12.7303 46.9283 19.6027 46.9283Z" fill="white"/>
<path d="M21.1764 41.4205L18.4079 40.0216L20.3896 36.0584H14.1824L18.4079 27.5781L21.1764 28.9769L19.1948 32.9402H25.4311L21.1764 41.4205Z" fill="white"/>
</svg>
