<svg width="149" height="149" viewBox="0 0 149 149" fill="none" xmlns="http://www.w3.org/2000/svg">
<path d="M78.0566 48.7266H74.9532V53.3672H78.0566V48.7266Z" fill="#232323"/>
<path d="M113.615 87.3888H39.3654V90.4922H113.615V87.3888Z" fill="#232323"/>
<path d="M45.5432 84.3144C45.5432 67.2311 59.407 53.3672 76.4903 53.3672C93.5736 53.3672 107.437 67.2311 107.437 84.3144H45.5432Z" fill="white"/>
<path d="M76.4904 50.2638C73.938 50.2638 71.8497 48.1755 71.8497 45.6232C71.8497 43.0709 73.938 40.9826 76.4904 40.9826C79.0427 40.9826 81.131 43.0709 81.131 45.6232C81.131 48.1755 79.0427 50.2638 76.4904 50.2638ZM76.4904 44.086C75.6492 44.086 74.9532 44.7821 74.9532 45.6232C74.9532 46.4643 75.6492 47.1604 76.4904 47.1604C77.3315 47.1604 78.0276 46.4643 78.0276 45.6232C78.0276 44.7821 77.3315 44.086 76.4904 44.086Z" fill="white"/>
<path d="M52.127 79.9348L49.0816 79.3838C51.4599 66.1 62.9745 56.4417 76.4903 56.4417V59.5451C64.4827 59.5451 54.2443 68.1303 52.127 79.9348Z" fill="#232323"/>
</svg>
