<svg width="105" height="70" viewBox="0 0 105 70" fill="none" xmlns="http://www.w3.org/2000/svg">
<path d="M49.99 10.8872H54.3529V17.4112H49.99V10.8872Z" fill="#F4F1BB"/>
<path d="M-8.39233e-05 65.2397H104.384V69.6027H-8.39233e-05V65.2397Z" fill="black"/>
<path d="M52.1919 13.048C55.7801 13.048 58.7159 10.1122 58.7159 6.52399C58.7159 2.9358 55.7801 0 52.1919 0C48.6037 0 45.6679 2.9358 45.6679 6.52399C45.6679 10.1122 48.6037 13.048 52.1919 13.048ZM52.1919 4.36292C53.3744 4.36292 54.353 5.34152 54.353 6.52399C54.353 7.70647 53.3744 8.68507 52.1919 8.68507C51.0094 8.68507 50.0308 7.70647 50.0308 6.52399C50.0308 5.34152 51.0094 4.36292 52.1919 4.36292Z" fill="black"/>
</svg>
