<svg width="105" height="71" viewBox="0 0 105 71" fill="none" xmlns="http://www.w3.org/2000/svg">
<path d="M50.4685 11.5264H54.8314V18.0504H50.4685V11.5264Z" fill="#F4F1BB"/>
<path d="M0.478447 65.8794H104.862V70.2423H0.478447V65.8794Z" fill="black"/>
<path d="M96.1774 61.5574C96.1774 37.541 76.6869 18.0505 52.6705 18.0505C28.654 18.0505 9.16359 37.541 9.16359 61.5574H96.1774Z" fill="black"/>
<path d="M52.6704 13.6874C56.2586 13.6874 59.1944 10.7516 59.1944 7.1634C59.1944 3.5752 56.2586 0.639404 52.6704 0.639404C49.0822 0.639404 46.1464 3.5752 46.1464 7.1634C46.1464 10.7516 49.0822 13.6874 52.6704 13.6874ZM52.6704 5.00232C53.8529 5.00232 54.8315 5.98093 54.8315 7.1634C54.8315 8.34587 53.8529 9.32447 52.6704 9.32447C51.4879 9.32447 50.5093 8.34587 50.5093 7.1634C50.5093 5.98093 51.4879 5.00232 52.6704 5.00232Z" fill="black"/>
<path d="M86.9214 55.4003L91.2028 54.6256C87.8593 35.9506 71.6716 22.3726 52.6705 22.3726V26.7355C69.5513 26.7355 83.9449 38.8049 86.9214 55.4003Z" fill="#9BC1BC"/>
</svg>
