<svg width="149" height="149" viewBox="0 0 149 149" fill="none" xmlns="http://www.w3.org/2000/svg">
<path d="M111.375 51.5469H37.125V101.057H111.375V51.5469Z" fill="#11D1AC"/>
<path d="M78.8906 96.416H106.734V50.0097H78.8906C76.3383 50.0097 74.25 52.098 74.25 54.6503C74.25 52.098 72.1617 50.0097 69.6094 50.0097H41.7656V96.416H69.6094C72.1617 96.416 74.25 98.5042 74.25 101.057C74.25 98.4752 76.3383 96.416 78.8906 96.416Z" fill="white"/>
<path d="M75.7872 101.057H72.6838C72.6838 99.3453 71.2916 97.9531 69.5804 97.9531H40.2284V48.4435H69.6094C71.4656 48.4435 73.1189 49.2556 74.25 50.5318C75.3812 49.2556 77.0344 48.4435 78.8906 48.4435H108.272V97.9531H78.8906C77.1794 97.9531 75.7872 99.3453 75.7872 101.057ZM43.3028 94.8497H69.6094C71.4656 94.8497 73.1189 95.6618 74.25 96.938C75.3812 95.6618 77.0344 94.8497 78.8906 94.8497H105.197V51.5469H78.8906C77.1794 51.5469 75.7872 52.9391 75.7872 54.6503H72.6838C72.6838 52.9391 71.2916 51.5469 69.5804 51.5469H43.2738L43.3028 94.8497Z" fill="#232323"/>
<path d="M75.8162 54.6503H72.7128V101.057H75.8162V54.6503Z" fill="#232323"/>
<path d="M69.6094 62.3654H46.4062V65.4688H69.6094V62.3654Z" fill="#232323"/>
<path d="M69.6094 68.5721H46.4062V71.6756H69.6094V68.5721Z" fill="#232323"/>
<path d="M69.6094 74.75H46.4062V77.8534H69.6094V74.75Z" fill="#232323"/>
<path d="M102.094 62.3653H78.8906V65.4687H102.094V62.3653Z" fill="#232323"/>
<path d="M102.094 68.5721H78.8906V71.6756H102.094V68.5721Z" fill="#232323"/>
<path d="M102.094 74.75H78.8906V77.8534H102.094V74.75Z" fill="#232323"/>
</svg>
