<svg width="106" height="97" viewBox="0 0 106 97" fill="none" xmlns="http://www.w3.org/2000/svg">
<path d="M61.7152 17.5975H44.0764V22.0176H61.7152V17.5975Z" fill="#232323"/>
<path d="M83.6911 52.875H22.0173V57.295H83.6911V52.875Z" fill="#232323"/>
<path d="M83.6911 26.4375H22.0173V48.455H83.6911V26.4375Z" fill="#AEDAD9"/>
<path d="M39.6561 61.6736H22.0173V70.4723H39.6561V61.6736Z" fill="#AEDAD9"/>
<path d="M61.7152 61.6736H44.0764V70.4723H61.7152V61.6736Z" fill="#AEDAD9"/>
<path d="M83.7325 61.6736H66.0938V70.4723H83.7325V61.6736Z" fill="#AEDAD9"/>
<path d="M90.7964 44.1589L87.657 41.0607L90.5073 38.2104L87.657 35.3602L90.7964 32.2207L96.7449 38.2104L90.7964 44.1589Z" fill="#232323"/>
<path d="M14.9539 42.6304L9.00549 36.682L14.9539 30.7335L18.0934 33.8317L15.2431 36.682L18.0934 39.5322L14.9539 42.6304Z" fill="#232323"/>
<path d="M39.6561 74.8923H22.0173V79.3124H39.6561V74.8923Z" fill="#232323"/>
<path d="M39.6561 83.6913H22.0173V88.1113H39.6561V83.6913Z" fill="#232323"/>
<path d="M61.7152 74.8923H44.0764V79.3124H61.7152V74.8923Z" fill="#232323"/>
<path d="M61.7152 83.6913H44.0764V88.1113H61.7152V83.6913Z" fill="#232323"/>
<path d="M83.7325 74.8923H66.0938V79.3124H83.7325V74.8923Z" fill="#232323"/>
<path d="M83.7325 83.6913H66.0938V88.1113H83.7325V83.6913Z" fill="#232323"/>
</svg>
