<svg width="172" height="139" viewBox="0 0 172 139" fill="none" xmlns="http://www.w3.org/2000/svg">
<path d="M42.6017 24.7397C42.1118 22.2657 40.1277 21.0188 37.7032 21.0188C33.5371 21.0188 31.7756 24.4477 31.7756 28.0944C31.7756 32.0874 33.5371 35.4173 37.728 35.4173C40.7907 35.4173 42.5522 33.26 42.7749 30.3704H45.1004C44.66 34.7295 41.9387 37.3767 37.53 37.3767C32.0923 37.3767 29.4501 33.359 29.4501 28.2675C29.4501 23.1959 32.3397 19.0594 37.728 19.0594C41.3795 19.0594 44.3879 21.0188 44.9272 24.7397H42.6017Z" fill="black"/>
<path d="M46.9758 24.2993H48.9352V26.9712H48.9846C49.9891 24.9376 51.3844 23.9332 53.6357 24.0074V26.2141C50.281 26.2141 49.0539 28.1241 49.0539 31.3353V36.9611H46.9708V24.2993H46.9758Z" fill="black"/>
<path d="M60.0185 24.0024C64.0362 24.0024 66.1638 26.9168 66.1638 30.6376C66.1638 34.3337 64.0313 37.253 60.0185 37.253C56.0008 37.253 53.8732 34.3387 53.8732 30.6376C53.8732 26.9168 56.0008 24.0024 60.0185 24.0024ZM60.0185 35.4173C62.2005 35.4173 63.962 33.7053 63.962 30.6426C63.962 27.5551 62.2005 25.8431 60.0185 25.8431C57.8365 25.8431 56.075 27.5551 56.075 30.6426C56.075 33.7004 57.8414 35.4173 60.0185 35.4173Z" fill="black"/>
<path d="M80.1318 36.9611H77.925L75.3521 26.892H75.3026L72.7544 36.9611H70.5031L66.4359 24.2993H68.7367L71.6016 34.6603H71.651L74.1992 24.2993H76.4753L79.1224 34.6603H79.1719L82.012 24.2993H84.1693L80.1318 36.9611Z" fill="black"/>
<path d="M85.5547 24.2993H87.5141V26.3081H87.5635C88.4443 24.7396 89.8643 24.0073 91.6802 24.0073C95.0102 24.0073 96.0394 25.9172 96.0394 28.6386V36.961H93.9563V28.3862C93.9563 26.8425 92.9766 25.8381 91.3834 25.8381C88.8599 25.8381 87.6378 27.5253 87.6378 29.8063V36.961H85.5547V24.2993Z" fill="black"/>
<path d="M42.6017 50.4689C42.1118 47.995 40.1277 46.7481 37.7032 46.7481C33.5371 46.7481 31.7756 50.177 31.7756 53.8236C31.7756 57.8166 33.5371 61.1466 37.728 61.1466C40.7907 61.1466 42.5522 58.9893 42.7749 56.0997H45.1004C44.66 60.4588 41.9387 63.1059 37.53 63.1059C32.0923 63.1059 29.4501 59.0882 29.4501 53.9968C29.4501 48.9252 32.3397 44.7887 37.728 44.7887C41.3795 44.7887 44.3879 46.7481 44.9272 50.4689H42.6017Z" fill="black"/>
<path d="M52.5719 49.7317C56.5896 49.7317 58.7172 52.646 58.7172 56.3669C58.7172 60.063 56.5846 62.9823 52.5719 62.9823C48.5541 62.9823 46.4265 60.0679 46.4265 56.3669C46.4216 52.646 48.5541 49.7317 52.5719 49.7317ZM52.5719 61.1466C54.7539 61.1466 56.5154 59.4346 56.5154 56.3718C56.5154 53.2843 54.7539 51.5723 52.5719 51.5723C50.3898 51.5723 48.6284 53.2843 48.6284 56.3718C48.6284 59.4296 50.3898 61.1466 52.5719 61.1466Z" fill="black"/>
<path d="M60.5924 50.0286H62.5518V51.889H62.6013C63.5315 50.4689 64.9515 49.7317 66.6932 49.7317C68.237 49.7317 69.657 50.3452 70.1716 51.889C71.0276 50.5432 72.5219 49.7317 74.1398 49.7317C76.6633 49.7317 78.3505 50.7856 78.3505 53.4031V62.6854H76.2675V54.3827C76.2675 52.8143 75.8518 51.5674 73.8182 51.5674C71.8094 51.5674 70.513 52.839 70.513 54.7984V62.6854H68.4299V54.3827C68.4299 52.74 67.9153 51.5674 66.0549 51.5674C63.581 51.5674 62.6755 53.8434 62.6755 54.7984V62.6854H60.5924V50.0286Z" fill="black"/>
<path d="M80.8988 50.0286H82.8582V51.889H82.9077C83.8379 50.4689 85.2579 49.7317 86.9996 49.7317C88.5434 49.7317 89.9634 50.3452 90.478 51.889C91.334 50.5432 92.8283 49.7317 94.4462 49.7317C96.9697 49.7317 98.6569 50.7856 98.6569 53.4031V62.6854H96.5738V54.3827C96.5738 52.8143 96.1582 51.5674 94.1246 51.5674C92.1158 51.5674 90.8194 52.839 90.8194 54.7984V62.6854H88.7363V54.3827C88.7363 52.74 88.2217 51.5674 86.3613 51.5674C83.8874 51.5674 82.9819 53.8434 82.9819 54.7984V62.6854H80.8988V50.0286Z" fill="black"/>
<path d="M111.997 58.6725C111.432 61.4632 109.424 62.9822 106.584 62.9822C102.541 62.9822 100.631 60.1916 100.507 56.3223C100.507 52.5272 103.006 49.7366 106.46 49.7366C110.943 49.7366 112.313 53.9225 112.19 56.9853H102.709C102.635 59.1921 103.887 61.1465 106.653 61.1465C108.365 61.1465 109.567 60.3153 109.933 58.6725H111.997ZM109.993 55.1447C109.894 53.1605 108.399 51.5673 106.341 51.5673C104.159 51.5673 102.863 53.21 102.714 55.1447H109.993Z" fill="black"/>
<path d="M113.872 50.0286H115.831V52.7004H115.881C116.885 50.6668 118.28 49.6624 120.532 49.7366V51.9434C117.177 51.9434 115.95 53.8533 115.95 57.0645V62.6953H113.867V50.0286H113.872Z" fill="black"/>
<path d="M130.061 54.0908C129.745 52.4976 128.641 51.5674 126.924 51.5674C123.911 51.5674 122.981 53.9424 122.981 56.5153C122.981 58.8408 124.035 61.1466 126.677 61.1466C128.686 61.1466 129.883 59.969 130.155 58.0591H132.288C131.823 61.1466 129.888 62.9823 126.702 62.9823C122.833 62.9823 120.774 60.2856 120.774 56.5153C120.774 52.7202 122.734 49.7317 126.751 49.7317C129.616 49.7317 131.917 51.0775 132.214 54.0908H130.061Z" fill="black"/>
<path d="M136.232 47.7475H134.148V45.1993H136.232V47.7475ZM134.153 50.0285H136.236V62.6903H134.153V50.0285Z" fill="black"/>
<path d="M150.061 62.6408C149.695 62.8635 149.23 62.9823 148.567 62.9823C147.488 62.9823 146.805 62.3934 146.805 61.0229C145.652 62.3687 144.113 62.9823 142.347 62.9823C140.046 62.9823 138.161 61.9531 138.161 59.4296C138.161 56.5648 140.294 55.9512 142.446 55.5356C144.747 55.0952 146.706 55.2437 146.706 53.6752C146.706 51.8642 145.212 51.5674 143.891 51.5674C142.129 51.5674 140.828 52.1067 140.729 53.9671H138.646C138.77 50.8301 141.194 49.7317 144.01 49.7317C146.286 49.7317 148.76 50.2463 148.76 53.2101V59.7265C148.76 60.7062 148.76 61.1466 149.423 61.1466C149.596 61.1466 149.789 61.1218 150.061 61.0229V62.6408ZM146.677 56.1492C145.87 56.738 144.302 56.7627 142.906 57.0051C141.536 57.2476 140.358 57.7374 140.358 59.2812C140.358 60.6518 141.536 61.1416 142.807 61.1416C145.548 61.1416 146.677 59.4296 146.677 58.2768V56.1492Z" fill="black"/>
<path d="M151.6 45.1993H153.683V62.6853H151.6V45.1993Z" fill="black"/>
<path d="M40.4197 76.0497C40.1525 73.551 38.4851 72.4724 36.0853 72.4724C34.1259 72.4724 32.1665 73.1849 32.1665 75.4609C32.1665 77.6182 34.9572 77.9349 37.7775 78.5732C40.5681 79.2115 43.3637 80.1912 43.3637 83.6201C43.3637 87.3459 39.7121 88.8352 36.5306 88.8352C32.6119 88.8352 29.3066 86.9253 29.3066 82.6651H31.5134C31.5134 85.6042 33.9626 86.8758 36.6098 86.8758C38.7176 86.8758 41.0431 86.2128 41.0431 83.6893C41.0431 81.2896 38.2525 80.874 35.4569 80.2604C32.6663 79.6469 29.846 78.8404 29.846 75.6292C29.846 72.0766 33.0077 70.5081 36.1892 70.5081C39.7666 70.5081 42.483 72.2003 42.6314 76.0448H40.4197V76.0497Z" fill="black"/>
<path d="M56.1096 84.4018C55.5455 87.1924 53.5367 88.7114 50.6965 88.7114C46.6541 88.7114 44.7442 85.9208 44.6205 82.0515C44.6205 78.2565 47.1192 75.4658 50.5728 75.4658C55.0557 75.4658 56.4262 79.6518 56.3026 82.7145H46.8273C46.753 84.9213 48.0049 86.8757 50.7708 86.8757C52.4827 86.8757 53.6851 86.0445 54.0512 84.4018H56.1096ZM54.1007 80.8739C54.0018 78.8898 52.5075 77.2966 50.4491 77.2966C48.2671 77.2966 46.9707 78.9393 46.8223 80.8739H54.1007Z" fill="black"/>
<path d="M57.9849 75.7578H59.9443V78.4297H59.9938C60.9982 76.3961 62.3935 75.3916 64.6448 75.4659V77.6726C61.2901 77.6726 60.0631 79.5825 60.0631 82.7938V88.4245H57.98V75.7578H57.9849Z" fill="black"/>
<path d="M72.1509 88.4196H69.9243L65.2238 75.7578H67.5493L71.1019 86.3118H71.1514L74.605 75.7578H76.7871L72.1509 88.4196Z" fill="black"/>
<path d="M80.2407 73.4768H78.1576V70.9286H80.2407V73.4768ZM78.1625 75.7578H80.2456V88.4195H78.1625V75.7578Z" fill="black"/>
<path d="M91.4823 79.8201C91.1657 78.2268 90.0623 77.2966 88.3454 77.2966C85.3321 77.2966 84.4018 79.6716 84.4018 82.2446C84.4018 84.5701 85.4558 86.8758 88.098 86.8758C90.1068 86.8758 91.3042 85.6982 91.5764 83.7883H93.7089C93.2438 86.8758 91.3092 88.7115 88.1227 88.7115C84.2534 88.7115 82.1951 86.0149 82.1951 82.2446C82.1951 78.4495 84.1545 75.4609 88.1722 75.4609C91.037 75.4609 93.3378 76.8068 93.6347 79.8201H91.4823Z" fill="black"/>
<path d="M106.346 84.4018C105.782 87.1924 103.773 88.7114 100.933 88.7114C96.8904 88.7114 94.9805 85.9208 94.8568 82.0515C94.8568 78.2565 97.3555 75.4658 100.809 75.4658C105.292 75.4658 106.663 79.6518 106.539 82.7145H97.0586C96.9844 84.9213 98.2362 86.8757 101.002 86.8757C102.714 86.8757 103.916 86.0445 104.283 84.4018H106.346ZM104.337 80.8739C104.238 78.8898 102.744 77.2966 100.685 77.2966C98.5034 77.2966 97.2071 78.9393 97.0586 80.8739H104.337Z" fill="black"/>
<path d="M19.5195 19.1139H17.8026V114.312H19.5195V19.1139Z" fill="black"/>
<path d="M42.4483 102.185C42.4236 99.112 40.8006 98.1273 37.7972 98.1273C35.63 98.1273 33.3194 99.1367 33.3194 101.645C33.3194 103.516 34.7938 104.104 36.2733 104.55L38.1436 105.114C40.5532 105.851 42.8689 106.638 42.8689 109.592C42.8689 111.314 41.7853 115.005 36.0803 115.005C32.1418 115.005 29.267 113.11 29.46 108.854H31.1324C30.9592 112.273 33.0027 113.58 36.1991 113.58C38.485 113.58 41.1915 112.447 41.1915 109.814C41.1915 107.33 38.7819 106.885 36.8373 106.321L35.1155 105.807C33.072 105.218 31.647 103.986 31.647 101.724C31.647 98.2065 34.7493 96.7073 37.8715 96.7073C41.4389 96.7073 44.3186 98.1372 44.1207 102.195H42.4483V102.185Z" fill="#9D9D9C"/>
<path d="M53.8385 114.639H52.4135L52.8588 112.328H52.8093C51.8494 113.827 50.177 115.01 48.282 115.01C46.0653 115.01 44.4424 114.025 44.4424 111.591C44.4424 111.2 44.5166 110.68 44.6403 110.091L46.3869 101.947H47.9356L46.1643 110.141C46.0653 110.532 45.9911 111.002 45.9911 111.417C45.9911 113.09 47.2726 113.703 48.6481 113.703C50.8846 113.703 52.9281 111.685 53.6158 108.464L55.0161 101.942H56.5648L53.8385 114.639Z" fill="#9D9D9C"/>
<path d="M59.0288 101.942H60.429L59.9392 104.228H59.9887C61.0723 102.556 62.3736 101.571 64.615 101.571C67.8608 101.571 69.4392 103.664 69.4392 106.761C69.4392 110.651 66.7574 115.005 62.5022 115.005C60.5082 115.005 58.7863 114.168 58.44 112.1H58.3905L56.8418 119.334H55.2931L59.0288 101.942ZM58.9298 110.037C58.9298 112.249 60.2113 113.703 62.4725 113.703C66.04 113.703 67.8856 109.765 67.8856 106.667C67.8856 104.5 66.802 102.877 64.4666 102.877C60.8991 102.877 58.9298 106.885 58.9298 110.037Z" fill="#9D9D9C"/>
<path d="M72.413 101.942H73.8133L73.3234 104.228H73.3729C74.4565 102.556 75.7578 101.571 77.9992 101.571C81.2451 101.571 82.8234 103.664 82.8234 106.761C82.8234 110.651 80.1417 115.005 75.8864 115.005C73.8924 115.005 72.1705 114.168 71.8291 112.1H71.7797L70.231 119.334H68.6823L72.413 101.942ZM72.314 110.037C72.314 112.249 73.5955 113.703 75.8568 113.703C79.4242 113.703 81.2698 109.765 81.2698 106.667C81.2698 104.5 80.1862 102.877 77.8508 102.877C74.2833 102.877 72.314 106.885 72.314 110.037Z" fill="#9D9D9C"/>
<path d="M86.7076 97.0685H88.2563L84.4662 114.634H82.9175L86.7076 97.0685Z" fill="#9D9D9C"/>
<path d="M89.4636 101.942H91.0123L88.281 114.639H86.7323L89.4636 101.942ZM90.5224 97.0685H92.0711L91.5318 99.5523H89.9831L90.5224 97.0685Z" fill="#9D9D9C"/>
<path d="M92.7836 108.706C92.7342 109.003 92.7094 109.344 92.7094 109.691C92.7094 111.982 93.892 113.703 96.4006 113.703C98.4193 113.703 99.968 112.397 100.557 110.557H102.106C101.269 113.387 99.3248 115.01 96.3214 115.01C92.9766 115.01 91.1558 112.917 91.1558 109.621C91.1558 105.609 93.6644 101.576 98.0185 101.576C101.071 101.576 102.843 103.57 102.843 106.524C102.843 107.236 102.818 107.949 102.719 108.711H92.7836V108.706ZM101.274 107.405C101.274 107.058 101.299 106.742 101.299 106.42C101.299 104.307 99.973 102.877 97.8305 102.877C95.2724 102.877 93.5258 105.045 92.9815 107.405H101.274Z" fill="#9D9D9C"/>
<path d="M105.307 101.942H106.707L106.069 104.871H106.118C107.103 103.051 108.454 101.749 110.72 101.769C110.992 101.769 111.284 101.769 111.556 101.794L111.21 103.342C110.913 103.342 110.621 103.318 110.324 103.318C107.543 103.367 106.069 105.604 105.549 107.994L104.124 114.639H102.576L105.307 101.942Z" fill="#9D9D9C"/>
</svg>
