<svg width="149" height="149" viewBox="0 0 149 149" fill="none" xmlns="http://www.w3.org/2000/svg">
<path d="M108.685 96.4159H34.4346V99.5193H108.685V96.4159Z" fill="#232323"/>
<path d="M108.685 90.2091H34.4346V93.3125H108.685V90.2091Z" fill="#232323"/>
<path d="M108.685 84.0312H34.4346V87.1347H108.685V84.0312Z" fill="#232323"/>
<path d="M108.685 77.8534H34.4346V80.9568H108.685V77.8534Z" fill="#232323"/>
<path d="M108.685 71.6466H34.4346V74.75H108.685V71.6466Z" fill="#232323"/>
<path d="M108.685 65.4688H34.4346V68.5722H108.685V65.4688Z" fill="#232323"/>
<path d="M108.685 59.291H34.4346V62.3944H108.685V59.291Z" fill="#232323"/>
<path d="M91.6882 42.2656H88.5848V116.516H91.6882V42.2656Z" fill="#232323"/>
<path d="M85.4814 42.2656H82.378V116.516H85.4814V42.2656Z" fill="#232323"/>
<path d="M79.3036 42.2656H76.2002V116.516H79.3036V42.2656Z" fill="#232323"/>
<path d="M73.1257 42.2656H70.0223V116.516H73.1257V42.2656Z" fill="#232323"/>
<path d="M66.9189 42.2656H63.8155V116.516H66.9189V42.2656Z" fill="#232323"/>
<path d="M60.7411 42.2656H57.6377V116.516H60.7411V42.2656Z" fill="#232323"/>
<path d="M54.5633 42.2656H51.4598V116.516H54.5633V42.2656Z" fill="#232323"/>
<path d="M102.478 48.4435H40.6124V110.309H102.478V48.4435Z" fill="#9BC1BC"/>
<path d="M83.9153 67.006H59.1749V91.7463H83.9153V67.006Z" fill="#232323"/>
<path d="M95.5458 55.4044V103.348H47.5733V55.4044H95.5458ZM98.6202 52.33H44.4989V106.48H98.6492L98.6202 52.33Z" fill="white"/>
</svg>
