<svg width="149" height="149" viewBox="0 0 149 149" fill="none" xmlns="http://www.w3.org/2000/svg">
<path d="M111.875 53.084H37.6251V105.668H111.875V53.084Z" fill="white"/>
<path d="M51.5468 40.7284H48.4434V46.9062H51.5468V40.7284Z" fill="#232323"/>
<path d="M101.057 40.7284H97.9531V46.9062H101.057V40.7284Z" fill="#232323"/>
<path d="M105.668 62.3653H99.4903V68.5431H105.668V62.3653Z" fill="#232323"/>
<path d="M96.3869 62.3653H90.209V68.5431H96.3869V62.3653Z" fill="#232323"/>
<path d="M87.1056 62.3653H80.9278V68.5431H87.1056V62.3653Z" fill="#8891BF"/>
<path d="M77.8243 62.3653H71.6465V68.5431H77.8243V62.3653Z" fill="#8891BF"/>
<path d="M68.5431 62.3653H62.3653V68.5431H68.5431V62.3653Z" fill="#8891BF"/>
<path d="M105.668 71.6466H99.4905V77.8244H105.668V71.6466Z" fill="#232323"/>
<path d="M96.387 71.6466H90.2092V77.8244H96.387V71.6466Z" fill="#232323"/>
<path d="M87.1058 71.6466H80.9279V77.8244H87.1058V71.6466Z" fill="#8891BF"/>
<path d="M77.8244 71.6466H71.6466V77.8244H77.8244V71.6466Z" fill="#8891BF"/>
<path d="M68.5432 71.6466H62.3654V77.8244H68.5432V71.6466Z" fill="#8891BF"/>
<path d="M59.262 71.6466H53.0842V77.8244H59.262V71.6466Z" fill="#8891BF"/>
<path d="M49.9807 71.6466H43.8029V77.8244H49.9807V71.6466Z" fill="#8891BF"/>
<path d="M105.668 80.9278H99.4905V87.1056H105.668V80.9278Z" fill="#232323"/>
<path d="M96.387 80.9278H90.2092V87.1056H96.387V80.9278Z" fill="#232323"/>
<path d="M87.1058 80.9278H80.9279V87.1056H87.1058V80.9278Z" fill="#8891BF"/>
<path d="M77.8244 80.9278H71.6466V87.1056H77.8244V80.9278Z" fill="#8891BF"/>
<path d="M68.5432 80.9278H62.3654V87.1056H68.5432V80.9278Z" fill="#8891BF"/>
<path d="M59.262 80.9278H53.0842V87.1056H59.262V80.9278Z" fill="#8891BF"/>
<path d="M49.9807 80.9278H43.8029V87.1056H49.9807V80.9278Z" fill="#8891BF"/>
<path d="M87.1058 90.2091H80.9279V96.3869H87.1058V90.2091Z" fill="#8891BF"/>
<path d="M77.8244 90.2091H71.6466V96.3869H77.8244V90.2091Z" fill="#8891BF"/>
<path d="M68.5432 90.2091H62.3654V96.3869H68.5432V90.2091Z" fill="#8891BF"/>
<path d="M59.262 90.2091H53.0842V96.3869H59.262V90.2091Z" fill="#8891BF"/>
<path d="M49.9807 90.2091H43.8029V96.3869H49.9807V90.2091Z" fill="#8891BF"/>
<path d="M111.875 50.0096H37.6251V53.1131H111.875V50.0096Z" fill="#232323"/>
</svg>
