<svg width="149" height="149" viewBox="0 0 149 149" fill="none" xmlns="http://www.w3.org/2000/svg">
<path d="M102.094 50.9668H46.4063V106.654H102.094V50.9668Z" fill="white"/>
<path d="M86.6056 49.4296H61.8653V61.8142H86.6056V49.4296Z" fill="white"/>
<path d="M88.1719 63.3515H60.3281V47.8924H88.1719V63.3515ZM63.4315 60.2481H85.0975V50.9668H63.4315V60.2481Z" fill="#232323"/>
<path d="M98.9905 103.551H49.5098V57.1447H57.2249V60.2481H52.5842V100.476H95.9161V60.2481H91.2755V57.1447H98.9905V103.551Z" fill="#232323"/>
<path d="M86.6056 57.1447H61.8653V60.2481H86.6056V57.1447Z" fill="#232323"/>
<path d="M69.6094 54.0703H66.506V57.1737H69.6094V54.0703Z" fill="#232323"/>
<path d="M75.8164 54.0703H72.713V57.1737H75.8164V54.0703Z" fill="#232323"/>
<path d="M81.9941 54.0703H78.8907V57.1737H81.9941V54.0703Z" fill="#232323"/>
</svg>
