<svg width="149" height="149" viewBox="0 0 149 149" fill="none" xmlns="http://www.w3.org/2000/svg">
<path d="M74.25 111.375C94.7536 111.375 111.375 94.7536 111.375 74.25C111.375 53.7464 94.7536 37.125 74.25 37.125C53.7464 37.125 37.125 53.7464 37.125 74.25C37.125 94.7536 53.7464 111.375 74.25 111.375Z" fill="#AEDAD9"/>
<path d="M74.25 103.631C58.0368 103.631 44.869 90.4342 44.869 74.25C44.869 58.0369 58.0658 44.8691 74.25 44.8691C90.4342 44.8691 103.631 58.0369 103.631 74.25C103.631 90.4632 90.4632 103.631 74.25 103.631Z" fill="white"/>
<path d="M74.25 46.4062C89.5931 46.4062 102.094 58.9069 102.094 74.25C102.094 89.593 89.5931 102.094 74.25 102.094C58.907 102.094 46.4063 89.593 46.4063 74.25C46.4063 58.9069 58.907 46.4062 74.25 46.4062ZM74.25 43.3028C57.1667 43.3028 43.3029 57.1667 43.3029 74.25C43.3029 91.3333 57.1667 105.197 74.25 105.197C91.3333 105.197 105.197 91.3333 105.197 74.25C105.197 57.1667 91.3333 43.3028 74.25 43.3028Z" fill="#232323"/>
<path d="M99.0195 72.7128H95.9161V75.8162H99.0195V72.7128Z" fill="#232323"/>
<path d="M52.6132 72.7128H49.5098V75.8162H52.6132V72.7128Z" fill="#232323"/>
<path d="M75.8163 49.5096H72.7129V52.6131H75.8163V49.5096Z" fill="#232323"/>
<path d="M75.8164 95.9159H72.713V99.0193H75.8164V95.9159Z" fill="#232323"/>
<path d="M78.0497 74.83L82.8644 82.6031L74.8883 77.9915L78.0497 74.83ZM78.6298 69.8704L69.8706 78.6295L92.0296 91.4783L78.6298 69.8704Z" fill="#232323"/>
<path d="M69.8706 78.6296L78.6298 69.8704L56.7608 56.7606L69.8706 78.6296Z" fill="#AEDAD9"/>
</svg>
