<svg width="124" height="124" viewBox="0 0 124 124" fill="none" xmlns="http://www.w3.org/2000/svg">
<path d="M61.75 123.5C95.8536 123.5 123.5 95.8536 123.5 61.75C123.5 27.6464 95.8536 0 61.75 0C27.6464 0 0 27.6464 0 61.75C0 95.8536 27.6464 123.5 61.75 123.5Z" fill="#F4F1BB"/>
<path d="M61.7497 110.619C34.7823 110.619 12.8804 88.6693 12.8804 61.7502C12.8804 34.7828 34.8306 12.8808 61.7497 12.8808C88.6688 12.8808 110.619 34.7828 110.619 61.7502C110.619 88.7175 88.7171 110.619 61.7497 110.619Z" fill="black"/>
<path d="M61.7498 15.4375C87.2699 15.4375 108.062 36.2299 108.062 61.7501C108.062 87.2702 87.2699 108.063 61.7498 108.063C36.2297 108.063 15.4373 87.2702 15.4373 61.7501C15.4373 36.2299 36.2297 15.4375 61.7498 15.4375ZM61.7498 10.2756C33.3352 10.2756 10.2754 33.3354 10.2754 61.7501C10.2754 90.1647 33.3352 113.224 61.7498 113.224C90.1645 113.224 113.224 90.1647 113.224 61.7501C113.224 33.3354 90.1645 10.2756 61.7498 10.2756Z" fill="black"/>
<path d="M102.949 59.1931H97.7871V64.355H102.949V59.1931Z" fill="#9BC1BC"/>
<path d="M25.7615 59.1931H20.5996V64.355H25.7615V59.1931Z" fill="#9BC1BC"/>
<path d="M64.3553 20.5994H59.1934V25.7613H64.3553V20.5994Z" fill="#9BC1BC"/>
<path d="M64.3553 97.7869H59.1934V102.949H64.3553V97.7869Z" fill="#9BC1BC"/>
</svg>
