<svg width="125" height="125" viewBox="0 0 125 125" fill="none" xmlns="http://www.w3.org/2000/svg">
<path d="M62.5 124.25C96.6036 124.25 124.25 96.6036 124.25 62.5C124.25 28.3964 96.6036 0.75 62.5 0.75C28.3964 0.75 0.75 28.3964 0.75 62.5C0.75 96.6036 28.3964 124.25 62.5 124.25Z" fill="#F4F1BB"/>
<path d="M62.4997 111.37C35.5323 111.37 13.6304 89.4193 13.6304 62.5002C13.6304 35.5328 35.5806 13.6309 62.4997 13.6309C89.4188 13.6309 111.369 35.5328 111.369 62.5002C111.369 89.4676 89.4671 111.37 62.4997 111.37Z" fill="black"/>
<path d="M62.4998 16.1875C88.0199 16.1875 108.812 36.9799 108.812 62.5001C108.812 88.0202 88.0199 108.813 62.4998 108.813C36.9797 108.813 16.1873 88.0202 16.1873 62.5001C16.1873 36.9799 36.9797 16.1875 62.4998 16.1875ZM62.4998 11.0256C34.0852 11.0256 11.0254 34.0854 11.0254 62.5001C11.0254 90.9147 34.0852 113.974 62.4998 113.974C90.9145 113.974 113.974 90.9147 113.974 62.5001C113.974 34.0854 90.9145 11.0256 62.4998 11.0256Z" fill="black"/>
<path d="M103.699 59.9431H98.5371V65.105H103.699V59.9431Z" fill="#9BC1BC"/>
<path d="M26.5115 59.9431H21.3496V65.105H26.5115V59.9431Z" fill="#9BC1BC"/>
<path d="M65.1053 21.3494H59.9434V26.5113H65.1053V21.3494Z" fill="#9BC1BC"/>
<path d="M65.1053 98.5369H59.9434V103.699H65.1053V98.5369Z" fill="#9BC1BC"/>
<path d="M68.8201 63.4647L76.8283 76.3936L63.5617 68.7231L68.8201 63.4647ZM69.785 55.2153L55.2158 69.7845L92.0728 91.1558L69.785 55.2153Z" fill="#9BC1BC"/>
<path d="M55.2156 69.7845L69.7848 55.2154L33.4102 33.4099L55.2156 69.7845Z" fill="#AEDAD9"/>
</svg>
