<svg width="149" height="149" viewBox="0 0 149 149" fill="none" xmlns="http://www.w3.org/2000/svg">
<path d="M111.375 55.6875H37.1249V105.197H111.375V55.6875Z" fill="#9BC1BC"/>
<path d="M105.168 61.8653H43.3028V98.9903H105.168V61.8653Z" fill="white"/>
<path d="M57.2537 61.8653H54.1503V98.9903H57.2537V61.8653Z" fill="#9BC1BC"/>
<path d="M69.6093 61.8653H66.5059V98.9903H69.6093V61.8653Z" fill="#9BC1BC"/>
<path d="M81.994 61.8653H78.8906V98.9903H81.994V61.8653Z" fill="#9BC1BC"/>
<path d="M94.3787 61.8653H91.2753V98.9903H94.3787V61.8653Z" fill="#9BC1BC"/>
<path d="M105.168 72.7127H43.3028V75.8162H105.168V72.7127Z" fill="#9BC1BC"/>
<path d="M105.168 85.0685H43.3028V88.1719H105.168V85.0685Z" fill="#9BC1BC"/>
<path d="M44.869 43.3028H41.7656V49.4806H44.869V43.3028Z" fill="#9BC1BC"/>
<path d="M106.734 43.3028H103.631V49.4806H106.734V43.3028Z" fill="#9BC1BC"/>
<path d="M111.375 49.5096H37.1249V52.613H111.375V49.5096Z" fill="#232323"/>
</svg>
