<svg width="149" height="149" viewBox="0 0 149 149" fill="none" xmlns="http://www.w3.org/2000/svg">
<path d="M111.875 55.6876H37.6249V105.197H111.875V55.6876Z" fill="#9BC1BC"/>
<path d="M105.668 61.8654H43.8028V98.9904H105.668V61.8654Z" fill="white"/>
<path d="M57.7537 61.8654H54.6503V98.9904H57.7537V61.8654Z" fill="#9BC1BC"/>
<path d="M70.1093 61.8654H67.0059V98.9904H70.1093V61.8654Z" fill="#9BC1BC"/>
<path d="M82.494 61.8654H79.3906V98.9904H82.494V61.8654Z" fill="#9BC1BC"/>
<path d="M94.8787 61.8654H91.7753V98.9904H94.8787V61.8654Z" fill="#9BC1BC"/>
<path d="M105.668 72.7128H43.8028V75.8162H105.668V72.7128Z" fill="#9BC1BC"/>
<path d="M105.668 85.0685H43.8028V88.1719H105.668V85.0685Z" fill="#9BC1BC"/>
<path d="M45.369 43.3028H42.2656V49.4806H45.369V43.3028Z" fill="#9BC1BC"/>
<path d="M107.234 43.3028H104.131V49.4806H107.234V43.3028Z" fill="#9BC1BC"/>
<path d="M74.7499 92.8125C81.5898 92.8125 87.1346 87.2677 87.1346 80.4279C87.1346 73.588 81.5898 68.0432 74.7499 68.0432C67.91 68.0432 62.3652 73.588 62.3652 80.4279C62.3652 87.2677 67.91 92.8125 74.7499 92.8125Z" fill="white"/>
<path d="M74.7499 94.3498C67.0639 94.3498 60.8281 88.1139 60.8281 80.4279C60.8281 72.7419 67.0639 66.506 74.7499 66.506C82.436 66.506 88.6718 72.7419 88.6718 80.4279C88.6718 88.1139 82.436 94.3498 74.7499 94.3498ZM74.7499 69.6095C68.7751 69.6095 63.9315 74.4531 63.9315 80.4279C63.9315 86.4027 68.7751 91.2464 74.7499 91.2464C80.7247 91.2464 85.5684 86.4027 85.5684 80.4279C85.5684 74.4531 80.7247 69.6095 74.7499 69.6095Z" fill="#232323"/>
<path d="M70.1093 80.4279L73.2127 83.5313L79.3905 77.3535" fill="white"/>
<path d="M73.2126 85.7066L69.0071 81.5301L71.2114 79.3548L73.2126 81.356L78.2883 76.2513L80.4926 78.4266L73.2126 85.7066Z" fill="#232323"/>
<path d="M111.875 49.5096H37.6249V52.6131H111.875V49.5096Z" fill="#232323"/>
</svg>
