<svg width="149" height="149" viewBox="0 0 149 149" fill="none" xmlns="http://www.w3.org/2000/svg">
<path d="M115.355 85.0685H41.1054V97.4532H115.355V85.0685Z" fill="white"/>
<path d="M59.6679 89.7091H53.4901V92.8125H59.6679V89.7091Z" fill="#232323"/>
<path d="M72.0236 89.7091H65.8458V92.8125H72.0236V89.7091Z" fill="#232323"/>
<path d="M90.5861 89.7091H84.4083V92.8125H90.5861V89.7091Z" fill="#232323"/>
<path d="M102.971 89.7091H96.7929V92.8125H102.971V89.7091Z" fill="#232323"/>
<path d="M107.611 78.8907H79.7677V81.9941H107.611V78.8907Z" fill="#232323"/>
<path d="M76.6932 78.8907H48.8495V81.9941H76.6932V78.8907Z" fill="#232323"/>
<path d="M72.0526 80.4279H68.9492V85.0685H72.0526V80.4279Z" fill="#232323"/>
<path d="M56.5935 80.4279H53.4901V85.0685H56.5935V80.4279Z" fill="#232323"/>
<path d="M87.5117 80.4279H84.4083V85.0685H87.5117V80.4279Z" fill="#232323"/>
<path d="M103 80.4279H99.8964V85.0685H103V80.4279Z" fill="#232323"/>
<path d="M75.127 57.2247H50.3867V75.7872H75.127V57.2247Z" fill="white"/>
<path d="M76.6932 55.6875H48.8495V58.7909H76.6932V55.6875Z" fill="#232323"/>
<path d="M81.3339 69.6094H106.074L102.971 75.7872H84.4083L81.3339 69.6094Z" fill="white"/>
<path d="M127.711 68.0722H79.7677V71.1756H127.711V68.0722Z" fill="#232323"/>
<path d="M67.412 55.6875H64.3086V52.5841H61.2051V55.6875H58.1307V49.5097H67.412V55.6875Z" fill="#232323"/>
</svg>
