<svg width="247" height="247" viewBox="0 0 247 247" fill="none" xmlns="http://www.w3.org/2000/svg">
<path d="M146.656 149.213H141.494V136.381H105.506V149.213H100.344V131.219H146.656V149.213Z" fill="#F4F1BB"/>
<path d="M126.105 113.224H120.943V149.261H126.105V113.224Z" fill="black"/>
<path d="M164.651 84.9063H144.099V64.3069L164.651 84.9063Z" fill="black"/>
<path d="M167.256 185.25H79.7443V61.75H145.112L167.207 83.8449V185.25H167.256ZM84.9062 180.088H162.094V85.9676L143.038 66.9119H84.9062V180.088Z" fill="black"/>
<path d="M133.824 102.901H113.224V123.5H133.824V102.901Z" fill="#9BC1BC"/>
<path d="M108.062 144.099H97.7869V154.375H108.062V144.099Z" fill="#9BC1BC"/>
<path d="M128.614 144.099H118.338V154.375H128.614V144.099Z" fill="#9BC1BC"/>
<path d="M149.213 144.099H138.938V154.375H149.213V144.099Z" fill="#9BC1BC"/>
</svg>
