<svg width="149" height="149" viewBox="0 0 149 149" fill="none" xmlns="http://www.w3.org/2000/svg">
<path d="M88.6719 89.7091H85.5685V81.9941H63.9316V89.7091H60.8282V78.8907H88.6719V89.7091Z" fill="#232323"/>
<path d="M76.3162 68.0722H73.2128V89.7381H76.3162V68.0722Z" fill="#232323"/>
<path d="M99.4903 51.0469H87.1346V38.6622L99.4903 51.0469Z" fill="#9BC1BC"/>
<path d="M101.057 111.375H48.4434V37.125H87.7437L101.028 50.4088V111.375H101.057ZM51.5468 108.272H97.9531V51.685L86.4965 40.2284H51.5468V108.272Z" fill="#232323"/>
<path d="M80.9568 61.8654H68.5721V74.25H80.9568V61.8654Z" fill="#9BC1BC"/>
<path d="M65.4687 86.6346H59.2909V92.8125H65.4687V86.6346Z" fill="#9BC1BC"/>
<path d="M77.8244 86.6346H71.6465V92.8125H77.8244V86.6346Z" fill="#9BC1BC"/>
<path d="M90.2091 86.6346H84.0313V92.8125H90.2091V86.6346Z" fill="#9BC1BC"/>
</svg>
