<svg width="105" height="67" viewBox="0 0 105 67" fill="none" xmlns="http://www.w3.org/2000/svg">
<path d="M36.8073 36.6951H93.8512V40.852H36.8073V36.6951Z" fill="#111111"/>
<path d="M37.8982 58.512H66.3773V62.6689H37.8982V58.512Z" fill="#111111"/>
<path d="M37.8943 4.4917H66.689V8.64863H37.8943V4.4917Z" fill="#232323"/>
<path d="M52.2936 19.0348V14.8779C44.2719 14.8779 37.7502 8.35225 37.7502 0.334473H33.5932C33.5932 10.6469 41.9811 19.0348 52.2936 19.0348Z" fill="#232323"/>
<path d="M33.5932 66.8258H37.7502C37.7502 58.8042 44.2758 52.2824 52.2936 52.2824V48.1255C41.9811 48.1255 33.5932 56.5134 33.5932 66.8258Z" fill="#111111"/>
<path d="M66.837 33.5783H70.9939C70.9939 23.2658 62.606 14.8779 52.2935 14.8779V19.0349C60.3152 19.0349 66.837 25.5605 66.837 33.5783Z" fill="#111111"/>
<path d="M52.2935 52.2787C62.606 52.2787 70.9939 43.8908 70.9939 33.5784H66.837C66.837 41.5961 60.3113 48.1218 52.2935 48.1218V52.2787Z" fill="#111111"/>
<path d="M66.837 66.8259H70.9939C70.9939 56.5135 62.606 48.1256 52.2935 48.1256C44.2719 48.1256 37.7501 41.5999 37.7501 33.5822C37.7501 25.5605 44.2758 19.0387 52.2935 19.0387C62.606 19.0387 70.9939 10.6508 70.9939 0.338379H66.837C66.837 8.36005 60.3113 14.8818 52.2935 14.8818C41.9811 14.8818 33.5932 23.2697 33.5932 33.5822C33.5932 43.8946 41.9811 52.2825 52.2935 52.2825C60.3152 52.2786 66.837 58.8043 66.837 66.8259Z" fill="white"/>
<path d="M10.7398 26.3086H68.9174V30.4655H10.7398V26.3086Z" fill="#111111"/>
<path d="M98.0043 45.0089C101.44 45.0089 104.238 42.2116 104.238 38.7754C104.238 35.3393 101.44 32.542 98.0043 32.542C94.5681 32.542 91.7708 35.3393 91.7708 38.7754C91.7708 42.2116 94.5681 45.0089 98.0043 45.0089ZM98.0043 36.695C99.1497 36.695 100.081 37.6262 100.081 38.7716C100.081 39.9169 99.1497 40.8481 98.0043 40.8481C96.8589 40.8481 95.9278 39.9169 95.9278 38.7716C95.9278 37.63 96.8589 36.695 98.0043 36.695Z" fill="white"/>
<path d="M6.58295 34.6183C10.0191 34.6183 12.8164 31.821 12.8164 28.3848C12.8164 24.9486 10.0191 22.1514 6.58295 22.1514C3.14676 22.1514 0.349502 24.9486 0.349502 28.3848C0.349502 31.821 3.14287 34.6183 6.58295 34.6183ZM6.58295 26.3083C7.72835 26.3083 8.65947 27.2394 8.65947 28.3848C8.65947 29.5302 7.72835 30.4613 6.58295 30.4613C5.43756 30.4613 4.50643 29.5302 4.50643 28.3848C4.50643 27.2394 5.43756 26.3083 6.58295 26.3083Z" fill="#232323"/>
</svg>
