<svg width="148" height="148" viewBox="0 0 148 148" fill="none" xmlns="http://www.w3.org/2000/svg">
<path d="M84.2351 72.8819H42.1108V75.9516H84.2351V72.8819Z" fill="white"/>
<path d="M83.4296 88.9928H62.399V92.0625H83.4296V88.9928Z" fill="#232323"/>
<path d="M83.4324 49.101H62.1689V52.1707H83.4324V49.101Z" fill="#232323"/>
<path d="M72.7992 59.8406V56.7709C78.7229 56.7709 83.5389 51.952 83.5389 46.0312H86.6086C86.6086 53.6465 80.4145 59.8406 72.7992 59.8406Z" fill="#232323"/>
<path d="M86.6086 95.1322H83.5389C83.5389 89.2086 78.72 84.3925 72.7992 84.3925V81.3228C80.4145 81.3228 86.6086 87.5169 86.6086 95.1322Z" fill="#232323"/>
<path d="M62.0595 70.5803H58.9898C58.9898 62.965 65.1839 56.7709 72.7992 56.7709V59.8406C66.8756 59.8406 62.0595 64.6595 62.0595 70.5803Z" fill="#232323"/>
<path d="M72.7992 84.3897C65.1839 84.3897 58.9898 78.1956 58.9898 70.5803H62.0595C62.0595 76.5011 66.8784 81.32 72.7992 81.32V84.3897Z" fill="#232323"/>
<path d="M62.0595 95.1322H58.9898C58.9898 87.5169 65.1839 81.3228 72.7992 81.3228C78.7229 81.3228 83.5389 76.5039 83.5389 70.5832C83.5389 64.6595 78.72 59.8435 72.7992 59.8435C65.1839 59.8435 58.9898 53.6494 58.9898 46.0341H62.0595C62.0595 51.9578 66.8784 56.7738 72.7992 56.7738C80.4145 56.7738 86.6086 62.9679 86.6086 70.5832C86.6086 78.1985 80.4145 84.3925 72.7992 84.3925C66.8756 84.3897 62.0595 89.2086 62.0595 95.1322Z" fill="white"/>
<path d="M103.485 65.2119H60.5233V68.2816H103.485V65.2119Z" fill="#232323"/>
<path d="M39.0439 79.0213C36.5064 79.0213 34.4408 76.9556 34.4408 74.4181C34.4408 71.8807 36.5064 69.815 39.0439 69.815C41.5814 69.815 43.647 71.8807 43.647 74.4181C43.647 76.9556 41.5814 79.0213 39.0439 79.0213ZM39.0439 72.8818C38.1981 72.8818 37.5105 73.5694 37.5105 74.4153C37.5105 75.2611 38.1981 75.9487 39.0439 75.9487C39.8897 75.9487 40.5773 75.2611 40.5773 74.4153C40.5773 73.5723 39.8897 72.8818 39.0439 72.8818Z" fill="white"/>
<path d="M106.555 71.3484C104.017 71.3484 101.951 69.2828 101.951 66.7453C101.951 64.2078 104.017 62.1422 106.555 62.1422C109.092 62.1422 111.158 64.2078 111.158 66.7453C111.158 69.2828 109.095 71.3484 106.555 71.3484ZM106.555 65.2119C105.709 65.2119 105.021 65.8995 105.021 66.7453C105.021 67.5911 105.709 68.2787 106.555 68.2787C107.4 68.2787 108.088 67.5911 108.088 66.7453C108.088 65.8995 107.4 65.2119 106.555 65.2119Z" fill="#232323"/>
</svg>
