<svg width="149" height="149" viewBox="0 0 149 149" fill="none" xmlns="http://www.w3.org/2000/svg">
<path d="M49.5166 42.6607L47.3222 44.8551L99.004 96.5369L101.198 94.3425L49.5166 42.6607Z" fill="#232323"/>
<path d="M74.25 94.3498C87.9137 94.3498 98.9903 83.2732 98.9903 69.6095C98.9903 55.9458 87.9137 44.8691 74.25 44.8691C60.5863 44.8691 49.5097 55.9458 49.5097 69.6095C49.5097 83.2732 60.5863 94.3498 74.25 94.3498Z" fill="#AEDAD9"/>
<path d="M74.2501 95.9159C59.7481 95.9159 47.9435 84.1113 47.9435 69.6093C47.9435 55.1074 59.7481 43.3028 74.2501 43.3028C88.752 43.3028 100.557 55.1074 100.557 69.6093C100.557 84.1113 88.752 95.9159 74.2501 95.9159ZM74.2501 46.4062C61.4593 46.4062 51.0469 56.8186 51.0469 69.6093C51.0469 82.4001 61.4593 92.8125 74.2501 92.8125C87.0408 92.8125 97.4532 82.4001 97.4532 69.6093C97.4532 56.8186 87.0408 46.4062 74.2501 46.4062Z" fill="#232323"/>
<path d="M75.8162 44.8691H72.7128V94.3788H75.8162V44.8691Z" fill="#232323"/>
<path d="M74.25 96.0319L73.67 95.7999C65.8099 92.6675 60.3282 81.907 60.3282 69.6094C60.3282 57.3117 65.8099 46.5513 73.67 43.4189L74.25 43.1868L74.8301 43.4189C82.6902 46.5513 88.1719 57.3117 88.1719 69.6094C88.1719 81.907 82.6902 92.6675 74.8301 95.7999L74.25 96.0319ZM74.25 46.5513C67.8402 49.5387 63.4316 58.8779 63.4316 69.6094C63.4316 80.3408 67.8402 89.7091 74.25 92.6675C80.6599 89.6801 85.0685 80.3408 85.0685 69.6094C85.0685 58.8779 80.6599 49.5097 74.25 46.5513Z" fill="#232323"/>
<path d="M99.0193 68.0723H49.5097V71.1757H99.0193V68.0723Z" fill="#232323"/>
<path d="M74.2501 98.9904C58.0369 98.9904 44.8691 85.7936 44.8691 69.6094C44.8691 61.5173 48.1755 54.1503 53.4833 48.8426L51.279 46.6383C45.3912 52.5261 41.7657 60.6472 41.7657 69.6094C41.7657 87.5628 56.2966 102.094 74.2501 102.094C83.2123 102.094 91.3334 98.4683 97.2212 92.5805L95.0169 90.3762C89.7091 95.7129 82.3422 98.9904 74.2501 98.9904Z" fill="#232323"/>
<path d="M75.8162 102.094H72.7128V106.734H75.8162V102.094Z" fill="#232323"/>
<path d="M86.6057 105.197H61.8654V108.301H86.6057V105.197Z" fill="#232323"/>
<path d="M92.8125 108.272H55.6875V111.375H92.8125V108.272Z" fill="#232323"/>
<path d="M95.6839 80.4279H52.8162V83.5313H95.6839V80.4279Z" fill="#232323"/>
<path d="M95.6839 55.6876H52.8162V58.791H95.6839V55.6876Z" fill="#232323"/>
</svg>
