<svg width="108" height="125" viewBox="0 0 108 125" fill="none" xmlns="http://www.w3.org/2000/svg">
<path d="M14.4969 0.151439L10.5406 4.10779L103.718 97.2854L107.675 93.329L14.4969 0.151439Z" fill="#232323"/>
<path d="M59.089 93.3423C83.7234 93.3423 103.694 73.3721 103.694 48.7377C103.694 24.1033 83.7234 4.13318 59.089 4.13318C34.4546 4.13318 14.4844 24.1033 14.4844 48.7377C14.4844 73.3721 34.4546 93.3423 59.089 93.3423Z" fill="#9BC1BC"/>
<path d="M59.089 96.1658C32.9434 96.1658 11.6608 74.8832 11.6608 48.7375C11.6608 22.5918 32.9434 1.3092 59.089 1.3092C85.2347 1.3092 106.517 22.5918 106.517 48.7375C106.517 74.8832 85.2347 96.1658 59.089 96.1658ZM59.089 6.90438C36.0285 6.90438 17.2559 25.677 17.2559 48.7375C17.2559 71.798 36.0285 90.5706 59.089 90.5706C82.1495 90.5706 100.922 71.798 100.922 48.7375C100.922 25.677 82.1495 6.90438 59.089 6.90438Z" fill="#9BC1BC"/>
<path d="M61.9127 4.13318H56.3175V93.3946H61.9127V4.13318Z" fill="#9BC1BC"/>
<path d="M59.089 96.375L58.0432 95.9566C43.8722 90.3092 33.9891 70.9091 33.9891 48.7375C33.9891 26.566 43.8722 7.1659 58.0432 1.51843L59.089 1.1001L60.1348 1.51843C74.3058 7.1659 84.1889 26.566 84.1889 48.7375C84.1889 70.9091 74.3058 90.3092 60.1348 95.9566L59.089 96.375ZM59.089 7.1659C47.5326 12.5519 39.5843 29.3897 39.5843 48.7375C39.5843 68.0854 47.5326 84.9755 59.089 90.3092C70.6454 84.9232 78.5937 68.0854 78.5937 48.7375C78.5937 29.3897 70.6454 12.4996 59.089 7.1659Z" fill="#232323"/>
<path d="M103.746 45.9663H14.4844V51.5615H103.746V45.9663Z" fill="#232323"/>
<path d="M59.089 101.709C29.8582 101.709 6.11788 77.9161 6.11788 48.7375C6.11788 34.1482 12.0791 20.8662 21.6484 11.2969L17.6743 7.32275C7.05913 17.9379 0.522705 32.5795 0.522705 48.7375C0.522705 81.1059 26.7207 107.304 59.089 107.304C75.2471 107.304 89.8887 100.767 100.504 90.1523L96.5297 86.1782C86.9604 95.7998 73.6783 101.709 59.089 101.709Z" fill="#232323"/>
<path d="M61.9127 107.304H56.3175V115.671H61.9127V107.304Z" fill="#232323"/>
<path d="M81.3652 112.899H36.7607V118.494H81.3652V112.899Z" fill="#232323"/>
<path d="M92.5555 118.442H25.6225V124.037H92.5555V118.442Z" fill="#232323"/>
<path d="M97.7323 68.2422H20.4457V73.8374H97.7323V68.2422Z" fill="#232323"/>
<path d="M97.7323 23.6378H20.4457V29.233H97.7323V23.6378Z" fill="#232323"/>
</svg>
