<svg width="149" height="149" viewBox="0 0 149 149" fill="none" xmlns="http://www.w3.org/2000/svg">
<path d="M113.115 86.3516C112.709 86.3516 112.332 86.2066 112.013 85.8875L87.2728 61.1472C86.6637 60.5381 86.6637 59.552 87.2728 58.9719C87.8818 58.3628 88.868 58.3628 89.4481 58.9719L114.188 83.7122C114.797 84.3213 114.797 85.3074 114.188 85.8875C113.898 86.2066 113.521 86.3516 113.115 86.3516Z" fill="#232323"/>
<path d="M63.6056 86.3516C63.1995 86.3516 62.8225 86.2066 62.5034 85.8875L37.7631 61.1472C37.154 60.5381 37.154 59.552 37.7631 58.9719C38.3722 58.3628 39.3583 58.3628 39.9384 58.9719L64.6787 83.7122C65.2878 84.3213 65.2878 85.3074 64.6787 85.8875C64.4177 86.2066 64.0116 86.3516 63.6056 86.3516Z" fill="#232323"/>
<path d="M63.6056 86.3516C63.1996 86.3516 62.8225 86.2066 62.5035 85.8875C61.8944 85.2784 61.8944 84.2923 62.5035 83.7122L87.2438 58.9719C87.8529 58.3628 88.839 58.3628 89.4191 58.9719C90.0282 59.581 90.0282 60.5671 89.4191 61.1472L64.6788 85.8875C64.4177 86.2066 64.0117 86.3516 63.6056 86.3516Z" fill="#232323"/>
<path d="M119.293 84.8143C119.293 88.2368 116.509 90.9921 113.115 90.9921C109.693 90.9921 106.937 88.2077 106.937 84.8143C106.937 81.4208 109.722 78.6365 113.115 78.6365C116.538 78.6075 119.293 81.3918 119.293 84.8143Z" fill="#AEDAD9"/>
<path d="M94.5527 60.045C94.5527 63.4674 91.7684 66.2228 88.3749 66.2228C84.9815 66.2228 82.1971 63.4674 82.1971 60.045C82.1971 56.6225 84.9815 53.8671 88.3749 53.8671C91.7684 53.8671 94.5527 56.6515 94.5527 60.045Z" fill="#AEDAD9"/>
<path d="M45.0431 60.045C45.0431 63.4675 42.2877 66.2229 38.8652 66.2229C35.4428 66.2229 32.6874 63.4675 32.6874 60.045C32.6874 56.6226 35.4718 53.8672 38.8652 53.8672C42.2877 53.8672 45.0431 56.6516 45.0431 60.045Z" fill="#AEDAD9"/>
<path d="M69.8124 84.8143C69.8124 88.2368 67.028 90.9921 63.6345 90.9921C60.2121 90.9921 57.4567 88.2077 57.4567 84.8143C57.4567 81.4208 60.2411 78.6365 63.6345 78.6365C67.028 78.6075 69.8124 81.3918 69.8124 84.8143Z" fill="#AEDAD9"/>
</svg>
