<svg width="149" height="149" viewBox="0 0 149 149" fill="none" xmlns="http://www.w3.org/2000/svg">
<path d="M82.4941 62.3654H79.3907V51.5469H70.1094V62.3654H67.006V48.4435H82.4941V62.3654Z" fill="#232323"/>
<path d="M111.875 56.1875H37.6251V93.3125H111.875V56.1875Z" fill="white"/>
<path d="M70.1094 88.6719H42.2657V60.8281H70.1094V88.6719ZM45.3691 85.5685H67.035V63.9025H45.3691V85.5685Z" fill="#232323"/>
<path d="M56.1876 76.2872C53.6352 76.2872 51.5469 74.199 51.5469 71.6466C51.5469 69.0943 53.6352 67.006 56.1876 67.006C58.7399 67.006 60.8282 69.0943 60.8282 71.6466C60.8282 74.199 58.7399 76.2872 56.1876 76.2872ZM56.1876 70.1094C55.3464 70.1094 54.6503 70.8055 54.6503 71.6466C54.6503 72.4877 55.3464 73.1838 56.1876 73.1838C57.0287 73.1838 57.7248 72.4877 57.7248 71.6466C57.7248 70.8055 57.0287 70.1094 56.1876 70.1094Z" fill="#232323"/>
<path d="M63.9316 82.494H60.8282C60.8282 79.9417 58.7399 77.8534 56.1876 77.8534C53.6352 77.8534 51.5469 79.9417 51.5469 82.494H48.4435C48.4435 78.2305 51.924 74.75 56.1876 74.75C60.4511 74.75 63.9316 78.2305 63.9316 82.494Z" fill="#232323"/>
<path d="M87.1347 60.8281H74.7501V63.9315H87.1347V60.8281Z" fill="#8891BF"/>
<path d="M107.234 60.8281H90.2092V63.9315H107.234V60.8281Z" fill="#8891BF"/>
<path d="M99.4904 67.006H74.7501V70.1094H99.4904V67.006Z" fill="#232323"/>
<path d="M107.234 79.3906H74.7501V82.494H107.234V79.3906Z" fill="#8891BF"/>
<path d="M80.9279 85.5685H74.7501V88.6719H80.9279V85.5685Z" fill="#232323"/>
<path d="M90.2091 85.5685H84.0313V88.6719H90.2091V85.5685Z" fill="#232323"/>
<path d="M99.4904 85.5685H93.3125V88.6719H99.4904V85.5685Z" fill="#232323"/>
</svg>
