<svg width="149" height="148" viewBox="0 0 149 148" fill="none" xmlns="http://www.w3.org/2000/svg">
<path d="M73.1449 50.0127L60.8655 77.6269L63.6677 78.8729L75.947 51.2587L73.1449 50.0127Z" fill="#232323"/>
<path d="M73.5373 106.511L60.8787 78.8918L63.6694 77.6116L76.328 105.23L73.5373 106.511Z" fill="#232323"/>
<path d="M62.2741 82.8562C64.8163 82.8562 66.8772 80.7954 66.8772 78.2531C66.8772 75.7109 64.8163 73.65 62.2741 73.65C59.7318 73.65 57.6709 75.7109 57.6709 78.2531C57.6709 80.7954 59.7318 82.8562 62.2741 82.8562Z" fill="white"/>
<path d="M74.55 108.942C77.0923 108.942 79.1532 106.881 79.1532 104.338C79.1532 101.796 77.0923 99.7354 74.55 99.7354C72.0078 99.7354 69.9469 101.796 69.9469 104.338C69.9469 106.881 72.0078 108.942 74.55 108.942Z" fill="white"/>
<path d="M86.8231 104.338H62.2741V107.408H86.8231V104.338Z" fill="#232323"/>
<path d="M92.9625 107.405H56.1375V110.475H92.9625V107.405Z" fill="#232323"/>
<path d="M92.0391 58.2295C91.1903 58.2295 90.3618 58.0569 89.5764 57.7117C88.0746 57.0528 86.921 55.8503 86.3225 54.3226C85.727 52.7949 85.7615 51.1292 86.4175 49.6274C87.3956 47.3949 89.6051 45.9536 92.0419 45.9536C92.8906 45.9536 93.7192 46.1262 94.5017 46.4714C96.0035 47.1302 97.1571 48.3328 97.7556 49.8605C98.3511 51.3881 98.3166 53.0539 97.6606 54.5556C96.6824 56.7882 94.4758 58.2295 92.0391 58.2295ZM92.0419 49.0204C90.8221 49.0204 89.7173 49.7425 89.2283 50.8588C88.9003 51.6096 88.883 52.444 89.1794 53.2064C89.4757 53.9687 90.054 54.57 90.8048 54.9009C91.1961 55.0735 91.6104 55.1598 92.0333 55.1598C93.2531 55.1598 94.3579 54.4377 94.847 53.3214C95.1749 52.5705 95.1922 51.7362 94.8959 50.9738C94.5995 50.2114 94.0213 49.6102 93.2704 49.2793C92.8791 49.1096 92.4677 49.0204 92.0419 49.0204Z" fill="#232323"/>
<path d="M69.9009 49.0895C70.9222 46.762 73.6352 45.7004 75.9655 46.7217C78.293 47.743 79.3546 50.456 78.3332 52.7835C77.3119 55.1109 74.599 56.1725 72.2686 55.1512C69.9412 54.1328 68.8825 51.4169 69.9009 49.0895Z" fill="white"/>
<path d="M73.4261 37.2279L68.4985 48.4714L79.7421 53.399L84.6696 42.1555L73.4261 37.2279Z" fill="#232323"/>
<path d="M88.5176 63.9518L79.7401 53.402L84.6683 42.1589L98.3741 41.4655L88.5176 63.9518Z" fill="white"/>
<path d="M69.3795 38.8063L66.9157 44.4294L69.7273 45.6613L72.191 40.0382L69.3795 38.8063Z" fill="white"/>
<path d="M63.8104 78.2531C63.8104 79.1018 63.1228 79.7866 62.2769 79.7866C61.4282 79.7866 60.7435 79.099 60.7435 78.2531C60.7435 77.4073 61.4282 76.7197 62.2769 76.7197C63.1228 76.7197 63.8104 77.4044 63.8104 78.2531Z" fill="#232323"/>
<path d="M76.0835 104.338C76.0835 105.187 75.3959 105.872 74.55 105.872C73.7013 105.872 73.0166 105.184 73.0166 104.338C73.0166 103.493 73.7042 102.805 74.55 102.805C75.3959 102.802 76.0835 103.49 76.0835 104.338Z" fill="#232323"/>
<path d="M75.6519 50.9365C75.6519 51.7852 74.9643 52.4699 74.1185 52.4699C73.2727 52.4699 72.5851 51.7823 72.5851 50.9365C72.5851 50.0906 73.2727 49.403 74.1185 49.403C74.9672 49.403 75.6519 50.0906 75.6519 50.9365Z" fill="#232323"/>
</svg>
