<?xml version="1.0" encoding="UTF-8" standalone="no"?>
<svg
   xmlns:dc="http://purl.org/dc/elements/1.1/"
   xmlns:cc="http://creativecommons.org/ns#"
   xmlns:rdf="http://www.w3.org/1999/02/22-rdf-syntax-ns#"
   xmlns:svg="http://www.w3.org/2000/svg"
   xmlns="http://www.w3.org/2000/svg"
   xmlns:sodipodi="http://sodipodi.sourceforge.net/DTD/sodipodi-0.dtd"
   xmlns:inkscape="http://www.inkscape.org/namespaces/inkscape"
   width="42.236599"
   height="73.247101"
   viewBox="0 0 42.236599 73.247101"
   fill="none"
   version="1.1"
   id="svg380"
   sodipodi:docname="Lamp.svg"
   inkscape:version="1.0.2 (e86c870879, 2021-01-15, custom)">
  <metadata
     id="metadata386">
    <rdf:RDF>
      <cc:Work
         rdf:about="">
        <dc:format>image/svg+xml</dc:format>
        <dc:type
           rdf:resource="http://purl.org/dc/dcmitype/StillImage" />
        <dc:title></dc:title>
      </cc:Work>
    </rdf:RDF>
  </metadata>
  <defs
     id="defs384" />
  <sodipodi:namedview
     pagecolor="#ffffff"
     bordercolor="#666666"
     borderopacity="1"
     objecttolerance="10"
     gridtolerance="10"
     guidetolerance="10"
     inkscape:pageopacity="0"
     inkscape:pageshadow="2"
     inkscape:window-width="704"
     inkscape:window-height="480"
     id="namedview382"
     showgrid="false"
     fit-margin-top="0"
     fit-margin-left="0"
     fit-margin-right="0"
     fit-margin-bottom="0"
     inkscape:zoom="1.7502131"
     inkscape:cx="18.931208"
     inkscape:cy="36.7721"
     inkscape:window-x="0"
     inkscape:window-y="0"
     inkscape:window-maximized="0"
     inkscape:current-layer="svg380" />
  <path
     d="M 17.0074,12.7848 4.728,40.399 7.5302,41.645 19.8095,14.0308 Z"
     fill="#232323"
     id="path352" />
  <path
     d="M 17.3998,69.2831 4.7412,41.6639 7.5319,40.3837 20.1905,68.0021 Z"
     fill="#232323"
     id="path354" />
  <path
     d="m 6.1366,45.6283 c 2.5422,0 4.6031,-2.0608 4.6031,-4.6031 0,-2.5422 -2.0609,-4.6031 -4.6031,-4.6031 -2.5423,0 -4.6032,2.0609 -4.6032,4.6031 0,2.5423 2.0609,4.6031 4.6032,4.6031 z"
     fill="#ffffff"
     id="path356" />
  <path
     d="m 18.4125,71.7141 c 2.5423,0 4.6032,-2.061 4.6032,-4.604 0,-2.542 -2.0609,-4.6026 -4.6032,-4.6026 -2.5422,0 -4.6031,2.0606 -4.6031,4.6026 0,2.543 2.0609,4.604 4.6031,4.604 z"
     fill="#ffffff"
     id="path358" />
  <path
     d="M 30.6856,67.1101 H 6.1366 v 3.07 h 24.549 z"
     fill="#232323"
     id="path360" />
  <path
     d="M 36.825,70.1771 H 0 v 3.07 h 36.825 z"
     fill="#232323"
     id="path362" />
  <path
     d="m 35.9016,21.0016 c -0.8488,0 -1.6773,-0.1726 -2.4627,-0.5178 -1.5018,-0.6589 -2.6554,-1.8614 -3.2539,-3.3891 -0.5955,-1.5277 -0.561,-3.1934 0.095,-4.6952 0.9781,-2.2325 3.1876,-3.6738 5.6244,-3.6738 0.8487,0 1.6773,0.1726 2.4598,0.5178 1.5018,0.6588 2.6554,1.8614 3.2539,3.3891 0.5955,1.5276 0.561,3.1934 -0.095,4.6951 -0.9782,2.2326 -3.1848,3.6739 -5.6215,3.6739 z m 0.0028,-9.2091 c -1.2198,0 -2.3246,0.7221 -2.8136,1.8384 -0.328,0.7508 -0.3453,1.5852 -0.0489,2.3476 0.2963,0.7623 0.8746,1.3636 1.6254,1.6945 0.3913,0.1726 0.8056,0.2589 1.2285,0.2589 1.2198,0 2.3246,-0.7221 2.8137,-1.8384 0.3279,-0.7509 0.3452,-1.5852 0.0489,-2.3476 -0.2964,-0.7624 -0.8746,-1.3636 -1.6255,-1.6945 -0.3913,-0.1697 -0.8027,-0.2589 -1.2285,-0.2589 z"
     fill="#232323"
     id="path364" />
  <path
     d="m 13.7634,11.8616 c 1.0213,-2.3275 3.7343,-3.3891 6.0646,-2.3678 2.3275,1.0213 3.3891,3.7343 2.3677,6.0618 -1.0213,2.3274 -3.7342,3.389 -6.0646,2.3677 -2.3274,-1.0184 -3.3861,-3.7343 -2.3677,-6.0617 z"
     fill="#ffffff"
     id="path366" />
  <path
     d="M 17.2886,0 12.361,11.2435 23.6046,16.1711 28.5321,4.9276 Z"
     fill="#232323"
     id="path368" />
  <path
     d="M 32.3801,26.7239 23.6026,16.1741 28.5308,4.931 42.2366,4.2376 Z"
     fill="#ffffff"
     id="path370" />
  <path
     d="m 13.242,1.5784 -2.4638,5.6231 2.8116,1.2319 2.4637,-5.6231 z"
     fill="#ffffff"
     id="path372" />
  <path
     d="m 7.6729,41.0252 c 0,0.8487 -0.6876,1.5335 -1.5335,1.5335 -0.8487,0 -1.5334,-0.6876 -1.5334,-1.5335 0,-0.8458 0.6847,-1.5334 1.5334,-1.5334 0.8459,0 1.5335,0.6847 1.5335,1.5334 z"
     fill="#232323"
     id="path374" />
  <path
     d="m 19.946,67.1101 c 0,0.849 -0.6876,1.534 -1.5335,1.534 -0.8487,0 -1.5334,-0.688 -1.5334,-1.534 0,-0.845 0.6876,-1.533 1.5334,-1.533 0.8459,-0.003 1.5335,0.685 1.5335,1.533 z"
     fill="#232323"
     id="path376" />
  <path
     d="m 19.5144,13.7086 c 0,0.8487 -0.6876,1.5334 -1.5334,1.5334 -0.8458,0 -1.5334,-0.6876 -1.5334,-1.5334 0,-0.8459 0.6876,-1.5335 1.5334,-1.5335 0.8487,0 1.5334,0.6876 1.5334,1.5335 z"
     fill="#232323"
     id="path378" />
</svg>
