<svg width="148" height="148" viewBox="0 0 148 148" fill="none" xmlns="http://www.w3.org/2000/svg">
<path d="M112.008 41.4281H38.3584V90.5291H112.008V41.4281Z" fill="white"/>
<path d="M59.8406 105.872H39.8947V101.269H42.9615V102.802H59.8406V105.872Z" fill="#232323"/>
<path d="M41.4281 98.199H35.2916V101.269H41.4281V98.199Z" fill="#232323"/>
<path d="M75.1841 74.1132L66.838 67.1567L43.5462 48.7701L45.4479 46.3621L68.7713 64.7746L75.1841 70.1171L81.568 64.7976L104.923 46.3621L106.825 48.7701L83.5013 67.1826L75.1841 74.1132Z" fill="#232323"/>
<path d="M66.8724 64.7744L43.5453 83.1835L45.447 85.5932L68.7741 67.1841L66.8724 64.7744Z" fill="#232323"/>
<path d="M83.5035 64.7713L81.6015 67.1807L104.926 85.5928L106.828 83.1833L83.5035 64.7713Z" fill="#232323"/>
<path d="M99.7353 96.6656H38.3584V102.802H99.7353L112.008 99.7353L99.7353 96.6656Z" fill="white"/>
<path d="M101.269 96.6656H98.199V102.802H101.269V96.6656Z" fill="#232323"/>
</svg>
