<svg width="149" height="149" viewBox="0 0 149 149" fill="none" xmlns="http://www.w3.org/2000/svg">
<path d="M111.375 75.7959C111.375 96.2988 94.7529 112.921 74.25 112.921C53.7471 112.921 37.125 96.2988 37.125 75.7959C37.125 55.2931 53.7471 38.6709 74.25 38.6709C94.7529 38.6709 111.375 55.2931 111.375 75.7959Z" fill="#FF8C21"/>
<path d="M80.4394 105.189H68.0634V111.375H80.4394V105.189Z" fill="white"/>
<path d="M81.9853 112.921H66.5175V103.64H81.9853V112.921ZM69.6094 109.829H78.8906V106.734H69.6094V109.829Z" fill="#232323"/>
<path d="M83.5283 86.626H64.9659V106.734H83.5283V86.626Z" fill="white"/>
<path d="M86.6231 91.2666H61.874V94.3613H86.6231V91.2666Z" fill="#232323"/>
<path d="M63.4228 86.626V83.5313C63.4228 81.8404 61.2388 79.5694 58.8286 77.075L58.8315 77.0721C54.9769 73.1624 52.5986 67.7967 52.5986 61.8741C52.5986 49.9129 62.2946 40.2169 74.2558 40.2169C86.2141 40.2169 95.913 49.9129 95.913 61.8741C95.913 67.7967 93.5318 73.1624 89.6772 77.0721L89.6801 77.075C87.2698 79.5694 85.0858 81.8375 85.0858 83.5313V86.626" fill="white"/>
<path d="M86.626 86.626H83.5312V83.5313C83.5312 81.5126 85.2831 79.433 87.5048 77.0982L87.4903 77.0837L88.5663 75.9874C92.2991 72.1994 94.3555 67.1876 94.3555 61.8741C94.3555 50.7859 85.3353 41.7656 74.2471 41.7656C63.1589 41.7656 54.1387 50.7859 54.1387 61.8741C54.1387 67.1876 56.1951 72.1994 59.9279 75.9874L61.0068 77.0808L60.9923 77.0953C63.2169 79.433 64.9688 81.5126 64.9688 83.5313V86.626H61.874V83.5313C61.874 82.4523 59.4696 79.9667 57.7149 78.1511L56.6562 77.0576L56.6823 77.0315C53.0394 72.8172 51.0469 67.4921 51.0469 61.8741C51.0469 49.0804 61.4564 38.6709 74.25 38.6709C87.0436 38.6709 97.4531 49.0804 97.4531 61.8741C97.4531 67.4921 95.4606 72.8172 91.8148 77.0315L91.838 77.0547L90.7822 78.1511C89.0275 79.9667 86.6231 82.4552 86.6231 83.5313L86.626 86.626Z" fill="#232323"/>
<path d="M86.6231 85.0772H61.874V88.1719H86.6231V85.0772Z" fill="#232323"/>
<path d="M86.6231 97.4532H61.874V100.548H86.6231V97.4532Z" fill="#232323"/>
<path d="M80.4365 86.6956L77.3447 86.5535L78.8181 54.1417H69.6819L71.1553 86.5535L68.0635 86.6956L66.445 51.0469H82.0549L80.4365 86.6956Z" fill="#232323"/>
<path d="M86.6231 103.64H61.874V106.734H86.6231V103.64Z" fill="#232323"/>
<path d="M83.0294 26.0923L81.9972 33.8257L85.0647 34.2351L86.0969 26.5017L83.0294 26.0923Z" fill="#232323"/>
<path d="M75.7988 21.6573H72.7041V34.0332H75.7988V21.6573Z" fill="#232323"/>
<path d="M65.4685 26.0926L62.401 26.5023L63.434 34.2357L66.5015 33.826L65.4685 26.0926Z" fill="#232323"/>
<path d="M111.375 81.9824C114.792 81.9824 117.561 79.2126 117.561 75.7959C117.561 72.3792 114.792 69.6094 111.375 69.6094C107.958 69.6094 105.188 72.3792 105.188 75.7959C105.188 79.2126 107.958 81.9824 111.375 81.9824Z" fill="white"/>
<path d="M111.375 83.5313C107.111 83.5313 103.64 80.0624 103.64 75.7959C103.64 71.5323 107.109 68.0606 111.375 68.0606C115.641 68.0606 119.11 71.5294 119.11 75.7959C119.11 80.0624 115.639 83.5313 111.375 83.5313ZM111.375 71.1553C108.817 71.1553 106.734 73.2378 106.734 75.7959C106.734 78.3541 108.817 80.4365 111.375 80.4365C113.933 80.4365 116.016 78.3541 116.016 75.7959C116.016 73.2378 113.933 71.1553 111.375 71.1553Z" fill="#232323"/>
<path d="M37.125 81.9824C40.5417 81.9824 43.3115 79.2126 43.3115 75.7959C43.3115 72.3792 40.5417 69.6094 37.125 69.6094C33.7083 69.6094 30.9384 72.3792 30.9384 75.7959C30.9384 79.2126 33.7083 81.9824 37.125 81.9824Z" fill="white"/>
<path d="M37.125 83.5313C32.8614 83.5313 29.3896 80.0624 29.3896 75.7959C29.3896 71.5323 32.8585 68.0606 37.125 68.0606C41.3885 68.0606 44.8603 71.5294 44.8603 75.7959C44.8603 80.0624 41.3885 83.5313 37.125 83.5313ZM37.125 71.1553C34.5668 71.1553 32.4843 73.2378 32.4843 75.7959C32.4843 78.3541 34.5668 80.4365 37.125 80.4365C39.6831 80.4365 41.7656 78.3541 41.7656 75.7959C41.7656 73.2378 39.6831 71.1553 37.125 71.1553Z" fill="#232323"/>
</svg>
