<svg width="150" height="150" viewBox="0 0 150 150" fill="none" xmlns="http://www.w3.org/2000/svg">
<path d="M111.904 76.156C111.904 96.7563 95.2031 113.457 74.6028 113.457C54.0025 113.457 37.3014 96.7563 37.3014 76.156C37.3014 55.5557 54.0025 38.8546 74.6028 38.8546C95.2031 38.8546 111.904 55.5557 111.904 76.156Z" fill="#F4F1BB"/>
<path d="M80.8217 105.688H68.387V111.904H80.8217V105.688Z" fill="white"/>
<path d="M82.375 113.458H66.8337V104.132H82.375V113.458ZM69.9403 110.351H79.2656V107.242H69.9403V110.351Z" fill="white"/>
<path d="M83.9252 87.0376H65.2745V107.242H83.9252V87.0376Z" fill="white"/>
<path d="M87.0347 91.7003H62.1681V94.8097H87.0347V91.7003Z" fill="white"/>
<path d="M63.7242 87.0377V83.9282C63.7242 82.2293 61.5298 79.9475 59.1082 77.4413L59.1111 77.4384C55.2381 73.5101 52.8485 68.1188 52.8485 62.1681C52.8485 50.15 62.5906 40.408 74.6086 40.408C86.6238 40.408 96.3688 50.15 96.3688 62.1681C96.3688 68.1188 93.9763 73.5101 90.1033 77.4384L90.1062 77.4413C87.6846 79.9475 85.4902 82.2264 85.4902 83.9282V87.0377" fill="white"/>
<path d="M87.0376 87.0376H83.9282V83.9282C83.9282 81.8999 85.6883 79.8104 87.9206 77.4645L87.906 77.4499L88.9872 76.3484C92.7377 72.5425 94.8039 67.5068 94.8039 62.168C94.8039 51.0271 85.7408 41.964 74.5999 41.964C63.459 41.964 54.3959 51.0271 54.3959 62.168C54.3959 67.5068 56.4621 72.5425 60.2126 76.3484L61.2967 77.447L61.2821 77.4616C63.5173 79.8104 65.2775 81.8999 65.2775 83.9282V87.0376H62.168V83.9282C62.168 82.8441 59.7522 80.3466 57.9891 78.5224L56.9254 77.4237L56.9517 77.3975C53.2915 73.1632 51.2894 67.8128 51.2894 62.168C51.2894 49.3136 61.7484 38.8546 74.6028 38.8546C87.4572 38.8546 97.9162 49.3136 97.9162 62.168C97.9162 67.8128 95.9142 73.1632 92.2511 77.3975L92.2744 77.4208L91.2136 78.5224C89.4505 80.3466 87.0347 82.847 87.0347 83.9282L87.0376 87.0376Z" fill="white"/>
<path d="M87.0347 85.4814H62.1681V88.5909H87.0347V85.4814Z" fill="#232323"/>
<path d="M87.0347 97.9163H62.1681V101.026H87.0347V97.9163Z" fill="#232323"/>
<path d="M80.8188 87.1075L77.7123 86.9648L79.1927 54.3989H70.0131L71.4935 86.9648L68.387 87.1075L66.7609 51.2894H82.445L80.8188 87.1075Z" fill="#232323"/>
<path d="M87.0347 104.132H62.1681V107.242H87.0347V104.132Z" fill="#232323"/>
<path d="M83.424 26.2163L82.3868 33.9865L85.4689 34.3978L86.506 26.6277L83.424 26.2163Z" fill="#232323"/>
<path d="M76.159 21.7601H73.0496V34.1949H76.159V21.7601Z" fill="#232323"/>
<path d="M65.7796 26.2166L62.6975 26.6283L63.7354 34.3984L66.8175 33.9868L65.7796 26.2166Z" fill="#232323"/>
<path d="M111.904 82.3721C115.337 82.3721 118.12 79.5891 118.12 76.1561C118.12 72.7232 115.337 69.9402 111.904 69.9402C108.471 69.9402 105.688 72.7232 105.688 76.1561C105.688 79.5891 108.471 82.3721 111.904 82.3721Z" fill="white"/>
<path d="M111.904 83.9282C107.62 83.9282 104.132 80.4429 104.132 76.1561C104.132 71.8723 107.618 68.384 111.904 68.384C116.191 68.384 119.676 71.8694 119.676 76.1561C119.676 80.4429 116.188 83.9282 111.904 83.9282ZM111.904 71.4935C109.334 71.4935 107.242 73.5858 107.242 76.1561C107.242 78.7264 109.334 80.8188 111.904 80.8188C114.475 80.8188 116.567 78.7264 116.567 76.1561C116.567 73.5858 114.475 71.4935 111.904 71.4935Z" fill="#232323"/>
<path d="M37.3014 82.3721C40.7343 82.3721 43.5173 79.5891 43.5173 76.1561C43.5173 72.7232 40.7343 69.9402 37.3014 69.9402C33.8684 69.9402 31.0854 72.7232 31.0854 76.1561C31.0854 79.5891 33.8684 82.3721 37.3014 82.3721Z" fill="white"/>
<path d="M37.3014 83.9282C33.0176 83.9282 29.5293 80.4429 29.5293 76.1561C29.5293 71.8723 33.0146 68.384 37.3014 68.384C41.5852 68.384 45.0735 71.8694 45.0735 76.1561C45.0735 80.4429 41.5852 83.9282 37.3014 83.9282ZM37.3014 71.4935C34.7311 71.4935 32.6387 73.5858 32.6387 76.1561C32.6387 78.7264 34.7311 80.8188 37.3014 80.8188C39.8717 80.8188 41.9641 78.7264 41.9641 76.1561C41.9641 73.5858 39.8717 71.4935 37.3014 71.4935Z" fill="#232323"/>
</svg>
