<svg width="64" height="64" viewBox="0 0 64 64" fill="none" xmlns="http://www.w3.org/2000/svg">
<path d="M21.8307 5.77399L42.8655 0.527588H63.8758V58.3366H42.8655L21.8307 63.583H0.820423V5.77399H21.8307Z" fill="white"/>
<path d="M52.0529 25.7005C55.0086 27.8434 57.3239 31.3656 56.1417 35.1095C54.984 38.7796 51.7081 40.1096 48.5307 41.4397C46.5602 42.2772 44.8607 44.0013 43.0872 45.1836C40.6734 46.7107 37.3975 47.5975 34.3186 46.9324C31.0427 46.0457 30.1559 43.4348 27.7421 41.4643C25.5499 39.7155 23.5795 39.9126 20.7469 39.7155C11.3379 39.0505 5.84514 30.3065 11.7566 24.1734C14.1704 21.3162 21.4119 20.0107 25.1312 20.6758C27.9884 21.1191 29.9589 22.8679 32.7915 23.3113C39.7867 24.6167 45.6981 20.8975 52.0529 25.7005Z" fill="white"/>
<path d="M4.76139 59.6422H17.8897V46.5139H4.76139V59.6422ZM15.2788 57.0067H7.39691V49.1248H15.2788V57.0067Z" fill="white"/>
<path d="M48.1119 4.46875H58.6293V7.10427H48.1119V4.46875Z" fill="white"/>
<path d="M48.1119 9.71484H58.6293V12.3504H48.1119V9.71484Z" fill="white"/>
<path d="M10.7713 30.676C11.1901 30.5528 11.6088 30.4297 12.0275 30.3065L11.3132 27.7695C10.8945 27.8927 10.4758 28.0158 10.0324 28.139L10.7713 30.676Z" fill="white"/>
<path d="M48.9494 46.3414L50.4519 44.1985C49.6883 43.6566 48.9987 43.1394 48.3829 42.6221L46.708 44.6419C47.3977 45.2084 48.112 45.7503 48.9494 46.3414ZM44.6144 42.696L46.5109 40.8733C45.9198 40.2576 45.3533 39.5925 44.8853 38.9521L42.767 40.5039C43.2843 41.2428 43.9247 42.0064 44.6144 42.696ZM41.2153 38.0161L43.5552 36.8339C43.1858 36.0949 42.8656 35.3314 42.5946 34.5185L40.1069 35.3314C40.4025 36.2673 40.7966 37.1541 41.2153 38.0161ZM39.4911 32.4249L42.102 32.1047C42.0035 31.3658 41.9542 30.5283 41.9296 29.5185L39.2941 29.5677C39.3433 30.6761 39.3926 31.5875 39.4911 32.4249ZM14.6631 29.5677C15.7222 29.2229 16.5843 28.9027 17.3478 28.5332L16.2394 26.144C15.5744 26.4642 14.8108 26.7598 13.8749 27.0553L14.6631 29.5677ZM19.9095 26.9815C20.5991 26.4642 21.2149 25.8731 21.8061 25.208C21.9046 25.1095 21.9785 24.9863 22.077 24.8878L20.0572 23.2129C19.9834 23.2868 19.9095 23.3853 19.8356 23.4592C19.3676 24.0011 18.875 24.4691 18.3331 24.8878L19.9095 26.9815ZM39.2941 26.8583H41.9296C41.9296 25.9716 41.9049 25.011 41.8311 24.0504L39.2202 24.2474C39.2941 25.1341 39.2941 26.0208 39.2941 26.8583ZM23.7273 22.5232C23.9736 22.1292 24.1953 21.7351 24.4416 21.341C24.6632 20.9715 24.8849 20.5774 25.1066 20.2079L22.8652 18.8532C22.6189 19.2473 22.3972 19.6414 22.1755 20.0355C21.9538 20.4296 21.7322 20.7991 21.4858 21.1932L23.7273 22.5232ZM38.8507 21.7843L41.3877 21.1439C41.3384 20.9222 41.2645 20.7252 41.2153 20.5035C40.9936 19.7646 40.6488 19.001 40.2054 18.2867L37.964 19.666C38.2842 20.2079 38.5305 20.7498 38.7029 21.2671C38.7522 21.4395 38.8014 21.6119 38.8507 21.7843ZM26.5352 18.1143C27.0771 17.4493 27.6436 16.932 28.2347 16.5133L26.7569 14.3458C25.9441 14.8876 25.2298 15.5773 24.5155 16.4394L26.5352 18.1143ZM36.4615 17.8434L38.2596 15.9221C37.5206 15.2078 36.6832 14.6167 35.7965 14.1241L34.5403 16.4394C35.2299 16.8089 35.8704 17.3015 36.4615 17.8434ZM32.3974 15.6512L32.9146 13.0649C31.8309 12.8433 30.7471 12.8433 29.7126 13.0649L30.2298 15.6512C30.8949 15.5034 31.6338 15.5034 32.3974 15.6512Z" fill="white"/>
<path d="M52.3977 48.6074L53.777 46.3906C53.4076 46.1689 53.0381 45.9226 52.6686 45.7009L51.24 47.9177C51.6588 48.1394 52.0282 48.3611 52.3977 48.6074Z" fill="#232323"/>
<path d="M19.2198 41.2676C17.7642 41.2676 16.5843 40.0877 16.5843 38.6321C16.5843 37.1765 17.7642 35.9966 19.2198 35.9966C20.6753 35.9966 21.8553 37.1765 21.8553 38.6321C21.8553 40.0877 20.6753 41.2676 19.2198 41.2676Z" fill="white"/>
<path d="M19.2197 42.5728C21.3873 42.5728 23.1607 40.7994 23.1607 38.6319C23.1607 36.4644 21.3873 34.6909 19.2197 34.6909C17.0522 34.6909 15.2788 36.4644 15.2788 38.6319C15.2788 40.7994 17.0276 42.5728 19.2197 42.5728ZM19.2197 37.3018C19.934 37.3018 20.5252 37.8929 20.5252 38.6072C20.5252 39.3215 19.934 39.9127 19.2197 39.9127C18.5054 39.9127 17.9143 39.3215 17.9143 38.6072C17.9143 37.8929 18.4808 37.3018 19.2197 37.3018Z" fill="#232323"/>
<path d="M9.29343 32.0552C7.83788 32.0552 6.65792 30.8753 6.65792 29.4197C6.65792 27.9641 7.83788 26.7842 9.29343 26.7842C10.749 26.7842 11.929 27.9641 11.929 29.4197C11.929 30.8753 10.749 32.0552 9.29343 32.0552Z" fill="white"/>
<path d="M9.29348 33.3607C11.461 33.3607 13.2344 31.5872 13.2344 29.4197C13.2344 27.2522 11.461 25.4788 9.29348 25.4788C7.12595 25.4788 5.35251 27.2522 5.35251 29.4197C5.35251 31.5872 7.12595 33.3607 9.29348 33.3607ZM9.29348 28.1143C10.0078 28.1143 10.5989 28.7054 10.5989 29.4197C10.5989 30.134 10.0078 30.7252 9.29348 30.7252C8.57918 30.7252 7.98804 30.134 7.98804 29.4197C7.98804 28.7054 8.57918 28.1143 9.29348 28.1143Z" fill="#232323"/>
<path d="M53.3583 51.3413C51.9028 51.3413 50.7228 50.1614 50.7228 48.7058C50.7228 47.2503 51.9028 46.0703 53.3583 46.0703C54.8139 46.0703 55.9938 47.2503 55.9938 48.7058C55.9938 50.1614 54.8139 51.3413 53.3583 51.3413Z" fill="white"/>
<path d="M53.3584 52.6468C55.5259 52.6468 57.2993 50.8734 57.2993 48.7059C57.2993 46.5383 55.5259 44.7649 53.3584 44.7649C51.1908 44.7649 49.4174 46.5383 49.4174 48.7059C49.4174 50.8734 51.1908 52.6468 53.3584 52.6468ZM53.3584 47.3758C54.0727 47.3758 54.6638 47.9669 54.6638 48.6812C54.6638 49.3955 54.0727 49.9867 53.3584 49.9867C52.6441 49.9867 52.0529 49.3955 52.0529 48.6812C52.0529 47.9669 52.6441 47.3758 53.3584 47.3758Z" fill="#232323"/>
<path d="M32.3481 16.2913C30.8925 16.2913 29.7125 15.1113 29.7125 13.6558C29.7125 12.2002 30.8925 11.0203 32.3481 11.0203C33.8036 11.0203 34.9836 12.2002 34.9836 13.6558C34.9836 15.1113 33.8036 16.2913 32.3481 16.2913Z" fill="white"/>
<path d="M32.3481 17.5968C34.5156 17.5968 36.2891 15.8233 36.2891 13.6558C36.2891 11.4883 34.5156 9.71484 32.3481 9.71484C30.1806 9.71484 28.4071 11.4883 28.4071 13.6558C28.4071 15.848 30.1806 17.5968 32.3481 17.5968ZM32.3481 12.3504C33.0624 12.3504 33.6535 12.9415 33.6535 13.6558C33.6535 14.3701 33.0624 14.9612 32.3481 14.9612C31.6338 14.9612 31.0427 14.3701 31.0427 13.6558C31.0427 12.9415 31.6338 12.3504 32.3481 12.3504Z" fill="#232323"/>
</svg>
