<svg width="149" height="149" viewBox="0 0 149 149" fill="none" xmlns="http://www.w3.org/2000/svg">
<path d="M87.1347 43.3028L62.3654 37.125H37.625V105.197H62.3654L87.1347 111.375H111.875V43.3028H87.1347Z" fill="white"/>
<path d="M51.5469 66.767C48.0664 69.2903 45.3401 73.4379 46.7323 77.8465C48.0955 82.1681 51.953 83.7343 55.6945 85.3005C58.0148 86.2866 60.0161 88.3169 62.1043 89.7091C64.9467 91.5073 68.8042 92.5515 72.4297 91.7684C76.2872 90.7242 77.3314 87.6498 80.1738 85.3295C82.7551 83.2702 85.0754 83.5022 88.4109 83.2702C99.4904 82.4871 105.958 72.1907 98.9973 64.9687C96.1549 61.6043 87.6278 60.0671 83.2482 60.8502C79.8837 61.3723 77.5634 63.4315 74.228 63.9536C65.9909 65.4908 59.0299 61.1112 51.5469 66.767Z" fill="#AEDAD9"/>
<path d="M107.234 106.734H91.7753V91.2753H107.234V106.734ZM94.8497 103.631H104.131V94.3497H94.8497V103.631Z" fill="#232323"/>
<path d="M56.1876 41.7656H43.8029V44.869H56.1876V41.7656Z" fill="#232323"/>
<path d="M56.1876 47.9435H43.8029V51.0469H56.1876V47.9435Z" fill="#232323"/>
<path d="M100.158 72.6258C99.6644 72.4807 99.1714 72.3357 98.6783 72.1907L99.5194 69.2033C100.012 69.3483 100.506 69.4933 101.028 69.6384L100.158 72.6258Z" fill="#232323"/>
<path d="M55.2015 91.0723L53.4322 88.5489C54.3313 87.9108 55.1434 87.3017 55.8685 86.6927L57.8408 89.071C57.0287 89.7381 56.1876 90.3762 55.2015 91.0723ZM60.3061 86.7797L58.0728 84.6334C58.7689 83.9083 59.436 83.1252 59.9871 82.3711L62.4814 84.1983C61.8724 85.0684 61.1183 85.9676 60.3061 86.7797ZM64.3087 81.2689L61.5533 79.8767C61.9884 79.0066 62.3654 78.1075 62.6845 77.1504L65.6139 78.1075C65.2658 79.2097 64.8018 80.2538 64.3087 81.2689ZM66.339 74.685L63.2645 74.308C63.3806 73.4379 63.4386 72.4517 63.4676 71.2626L66.571 71.3206C66.513 72.6258 66.455 73.6989 66.339 74.685ZM95.5749 71.3206C94.3277 70.9145 93.3126 70.5375 92.4135 70.1024L93.7186 67.2891C94.5018 67.6661 95.4009 68.0141 96.503 68.3622L95.5749 71.3206ZM89.3971 68.2752C88.585 67.6661 87.8599 66.97 87.1638 66.1869C87.0477 66.0709 86.9607 65.9259 86.8447 65.8099L89.223 63.8376C89.3101 63.9246 89.3971 64.0406 89.4841 64.1276C90.0351 64.7657 90.6152 65.3168 91.2533 65.8099L89.3971 68.2752ZM66.571 68.1302H63.4676C63.4676 67.086 63.4966 65.9549 63.5836 64.8237L66.658 65.0558C66.571 66.0999 66.571 67.144 66.571 68.1302ZM84.9015 63.0255C84.6114 62.5614 84.3504 62.0974 84.0604 61.6333C83.7993 61.1982 83.5383 60.7342 83.2772 60.2991L85.9166 58.7039C86.2066 59.168 86.4677 59.632 86.7287 60.0961C86.9897 60.5601 87.2508 60.9952 87.5408 61.4593L84.9015 63.0255ZM67.0931 62.1554L64.1057 61.4013C64.1637 61.1402 64.2507 60.9082 64.3087 60.6472C64.5697 59.777 64.9758 58.8779 65.4978 58.0368L68.1372 59.661C67.7602 60.2991 67.4701 60.9372 67.2671 61.5463C67.2091 61.7493 67.1511 61.9523 67.0931 62.1554ZM81.595 57.8338C80.9569 57.0507 80.2898 56.4416 79.5938 55.9485L81.334 53.3962C82.2911 54.0343 83.1322 54.8464 83.9733 55.8615L81.595 57.8338ZM69.9064 57.5147L67.7892 55.2524C68.6593 54.4113 69.6454 53.7152 70.6895 53.1351L72.1687 55.8615C71.3566 56.2966 70.6025 56.8767 69.9064 57.5147ZM74.6921 54.9334L74.083 51.888C75.3592 51.6269 76.6354 51.6269 77.8535 51.888L77.2444 54.9334C76.4613 54.7594 75.5912 54.7594 74.6921 54.9334Z" fill="#232323"/>
<path d="M51.1409 93.7406L49.5167 91.1303C49.9518 90.8693 50.3868 90.5792 50.8219 90.3182L52.5041 92.9285C52.011 93.1896 51.576 93.4506 51.1409 93.7406Z" fill="#232323"/>
<path d="M90.2091 85.0975C91.9231 85.0975 93.3125 83.708 93.3125 81.9941C93.3125 80.2801 91.9231 78.8907 90.2091 78.8907C88.4951 78.8907 87.1057 80.2801 87.1057 81.9941C87.1057 83.708 88.4951 85.0975 90.2091 85.0975Z" fill="white"/>
<path d="M90.2091 86.6346C87.6568 86.6346 85.5685 84.5464 85.5685 81.994C85.5685 79.4417 87.6568 77.3534 90.2091 77.3534C92.7615 77.3534 94.8498 79.4417 94.8498 81.994C94.8498 84.5464 92.7905 86.6346 90.2091 86.6346ZM90.2091 80.4278C89.368 80.4278 88.6719 81.1239 88.6719 81.965C88.6719 82.8061 89.368 83.5022 90.2091 83.5022C91.0503 83.5022 91.7463 82.8061 91.7463 81.965C91.7463 81.1239 91.0793 80.4278 90.2091 80.4278Z" fill="#232323"/>
<path d="M101.898 74.25C103.612 74.25 105.001 72.8606 105.001 71.1466C105.001 69.4327 103.612 68.0432 101.898 68.0432C100.184 68.0432 98.7943 69.4327 98.7943 71.1466C98.7943 72.8606 100.184 74.25 101.898 74.25Z" fill="white"/>
<path d="M101.898 75.7872C99.3454 75.7872 97.2571 73.699 97.2571 71.1466C97.2571 68.5943 99.3454 66.506 101.898 66.506C104.45 66.506 106.538 68.5943 106.538 71.1466C106.538 73.699 104.45 75.7872 101.898 75.7872ZM101.898 69.6094C101.057 69.6094 100.36 70.3055 100.36 71.1466C100.36 71.9877 101.057 72.6838 101.898 72.6838C102.739 72.6838 103.435 71.9877 103.435 71.1466C103.435 70.3055 102.739 69.6094 101.898 69.6094Z" fill="#232323"/>
<path d="M50.0097 96.96C51.7237 96.96 53.1131 95.5706 53.1131 93.8566C53.1131 92.1426 51.7237 90.7532 50.0097 90.7532C48.2958 90.7532 46.9063 92.1426 46.9063 93.8566C46.9063 95.5706 48.2958 96.96 50.0097 96.96Z" fill="white"/>
<path d="M50.0097 98.4973C47.4574 98.4973 45.3691 96.409 45.3691 93.8566C45.3691 91.3043 47.4574 89.216 50.0097 89.216C52.562 89.216 54.6503 91.3043 54.6503 93.8566C54.6503 96.409 52.562 98.4973 50.0097 98.4973ZM50.0097 92.2904C49.1686 92.2904 48.4725 92.9865 48.4725 93.8276C48.4725 94.6687 49.1686 95.3648 50.0097 95.3648C50.8508 95.3648 51.5469 94.6687 51.5469 93.8276C51.5469 92.9865 50.8508 92.2904 50.0097 92.2904Z" fill="#232323"/>
<path d="M74.75 55.6875C76.464 55.6875 77.8534 54.298 77.8534 52.5841C77.8534 50.8701 76.464 49.4807 74.75 49.4807C73.0361 49.4807 71.6466 50.8701 71.6466 52.5841C71.6466 54.298 73.0361 55.6875 74.75 55.6875Z" fill="white"/>
<path d="M74.75 57.2247C72.1977 57.2247 70.1094 55.1364 70.1094 52.5841C70.1094 50.0317 72.1977 47.9435 74.75 47.9435C77.3024 47.9435 79.3907 50.0317 79.3907 52.5841C79.3907 55.1654 77.3024 57.2247 74.75 57.2247ZM74.75 51.0469C73.9089 51.0469 73.2128 51.743 73.2128 52.5841C73.2128 53.4252 73.9089 54.1213 74.75 54.1213C75.5911 54.1213 76.2872 53.4252 76.2872 52.5841C76.2872 51.743 75.5911 51.0469 74.75 51.0469Z" fill="#232323"/>
</svg>
