<svg width="149" height="149" viewBox="0 0 149 149" fill="none" xmlns="http://www.w3.org/2000/svg">
<path d="M111.375 46.9062H37.125V102.594H111.375V46.9062Z" fill="#AEDAD9"/>
<path d="M51.0469 56.1875H47.9435V93.3125H51.0469V56.1875Z" fill="white"/>
<path d="M63.4316 56.1875H60.3282V93.3125H63.4316V56.1875Z" fill="white"/>
<path d="M75.8162 56.1875H72.7128V93.3125H75.8162V56.1875Z" fill="white"/>
<path d="M88.172 56.1875H85.0685V93.3125H88.172V56.1875Z" fill="white"/>
<path d="M100.557 56.1875H97.4532V93.3125H100.557V56.1875Z" fill="white"/>
<path d="M103.631 88.6719H94.3498V79.3906H103.631V88.6719ZM97.4532 85.5685H100.557V82.465H97.4532V85.5685Z" fill="#232323"/>
<path d="M91.2753 84.0313H81.994V74.75H91.2753V84.0313ZM85.0685 80.9278H88.1719V77.8244H85.0685V80.9278Z" fill="#232323"/>
<path d="M78.8907 79.3906H69.6094V70.1094H78.8907V79.3906ZM72.7128 76.2872H75.8162V73.1838H72.7128V76.2872Z" fill="#232323"/>
<path d="M66.506 74.75H57.2247V65.4688H66.506V74.75ZM60.3281 71.6466H63.4316V68.5432H60.3281V71.6466Z" fill="#232323"/>
<path d="M54.1503 70.1094H44.8691V60.8281H54.1503V70.1094ZM47.9435 67.006H51.0469V63.9025H47.9435V67.006Z" fill="#232323"/>
<path d="M108.272 50.0097V99.5193H40.2284V50.0097H108.272ZM111.375 46.9062H37.125V102.594H111.375V46.9062Z" fill="#232323"/>
</svg>
