<svg width="130" height="120" viewBox="0 0 130 120" fill="none" xmlns="http://www.w3.org/2000/svg">
<path d="M69.9197 10.3926C69.9197 4.94176 65.4586 0.480713 60.0078 0.480713H10.439C4.98815 0.480713 0.5271 4.94176 0.5271 10.3926V109.525C0.5271 114.976 4.98815 119.437 10.439 119.437H60.0078C65.4586 119.437 69.9197 114.976 69.9197 109.525V10.3926Z" fill="#111111"/>
<path d="M45.1375 7.91577H25.3091V12.874H45.1375V7.91577Z" fill="#111111"/>
<path d="M62.4799 20.3091H7.95752V99.6182H62.4799V20.3091Z" fill="white"/>
<path d="M64.9614 102.095H5.48071V17.8276H64.9614V102.095ZM10.439 97.1367H60.0077V22.7859H10.439V97.1367Z" fill="#232323"/>
<path d="M38.9385 110.766C38.9385 112.82 37.2749 114.484 35.221 114.484C33.167 114.484 31.5034 112.82 31.5034 110.766C31.5034 108.712 33.167 107.049 35.221 107.049C37.2749 107.049 38.9385 108.712 38.9385 110.766Z" fill="#111111"/>
<path d="M126.923 20.3091H77.3545V40.1375H126.923V20.3091Z" fill="#111111"/>
<path d="M129.4 17.8276H124.442V22.7859H129.4V17.8276Z" fill="#111111"/>
<path d="M119.484 22.7859H114.525V17.8276H119.484V22.7859ZM109.572 22.7859H104.613V17.8276H109.572V22.7859ZM99.6597 22.7859H94.7015V17.8276H99.6597V22.7859ZM89.7432 22.7859H84.7849V17.8276H89.7432V22.7859Z" fill="#232323"/>
<path d="M79.8313 17.8276H74.873V22.7859H79.8313V17.8276Z" fill="#232323"/>
<path d="M79.8313 27.7443H74.873V32.7025H79.8313V27.7443Z" fill="#232323"/>
<path d="M79.8313 37.6561H74.873V42.6144H79.8313V37.6561Z" fill="#232323"/>
<path d="M119.484 42.6144H114.525V37.6561H119.484V42.6144ZM109.572 42.6144H104.613V37.6561H109.572V42.6144ZM99.6597 42.6144H94.7015V37.6561H99.6597V42.6144ZM89.7432 42.6144H84.7849V37.6561H89.7432V42.6144Z" fill="#232323"/>
<path d="M129.4 37.6561H124.442V42.6144H129.4V37.6561Z" fill="#232323"/>
<path d="M129.4 27.7443H124.442V32.7025H129.4V27.7443Z" fill="#232323"/>
<path d="M129.4 72.3547H74.8733V47.5726H129.396V72.3547H129.4ZM79.8316 67.3964H124.442V52.5263H79.8316V67.3964Z" fill="#232323"/>
<path d="M126.923 79.7898H77.3547V99.6182H126.923V79.7898Z" fill="white"/>
<path d="M129.4 102.095H74.8733V77.313H129.396V102.095H129.4ZM79.8316 97.1368H124.442V82.2666H79.8316V97.1368Z" fill="#232323"/>
<path d="M77.3547 27.7441H25.3091V32.7024H77.3547V27.7441Z" fill="#232323"/>
<path d="M77.3547 57.4845H25.3091V62.4428H77.3547V57.4845Z" fill="#232323"/>
<path d="M77.3547 87.2249H25.3091V92.1831H77.3547V87.2249Z" fill="#232323"/>
</svg>
