<svg width="149" height="149" viewBox="0 0 149 149" fill="none" xmlns="http://www.w3.org/2000/svg">
<path d="M95.9159 43.8028C95.9159 40.4094 93.1315 37.625 89.7381 37.625H58.7909C55.3974 37.625 52.6131 40.4094 52.6131 43.8028V105.668C52.6131 109.062 55.3974 111.846 58.7909 111.846H89.7381C93.1315 111.846 95.9159 109.062 95.9159 105.668V43.8028Z" fill="white"/>
<path d="M80.4568 42.2656H68.0721V45.369H80.4568V42.2656Z" fill="#232323"/>
<path d="M91.2463 50.0097H57.2247V99.5194H91.2463V50.0097Z" fill="white"/>
<path d="M92.8125 101.057H55.6875V48.4435H92.8125V101.057ZM58.7909 97.9531H89.7381V51.5469H58.7909V97.9531Z" fill="#232323"/>
<path d="M74.25 108.772C75.5315 108.772 76.5703 107.733 76.5703 106.451C76.5703 105.17 75.5315 104.131 74.25 104.131C72.9685 104.131 71.9297 105.17 71.9297 106.451C71.9297 107.733 72.9685 108.772 74.25 108.772Z" fill="#232323"/>
<path d="M74.2499 74.75H61.8653V87.1347H74.2499V74.75Z" fill="#8891BF"/>
<path d="M77.3535 71.6465H74.25V74.75H77.3535V71.6465Z" fill="#232323"/>
<path d="M86.6347 62.3653H83.5313V65.4687H86.6347V62.3653Z" fill="#232323"/>
<path d="M77.3535 62.3655H74.2501V65.469H77.3535V62.3655Z" fill="#232323"/>
<path d="M86.6347 71.6465H83.5313V74.75H86.6347V71.6465Z" fill="#232323"/>
<path d="M81.9941 62.3653H78.8907V65.4687H81.9941V62.3653Z" fill="#232323"/>
<path d="M81.9941 71.6465H78.8907V74.75H81.9941V71.6465Z" fill="#232323"/>
<path d="M86.6347 67.0059H83.5313V70.1093H86.6347V67.0059Z" fill="#232323"/>
<path d="M77.3535 67.0059H74.25V70.1093H77.3535V67.0059Z" fill="#232323"/>
</svg>
