<svg width="149" height="149" viewBox="0 0 149 149" fill="none" xmlns="http://www.w3.org/2000/svg">
<path d="M97.9462 40.5184C97.9462 37.1249 95.1618 34.3406 91.7684 34.3406H60.8212C57.4277 34.3406 54.6434 37.1249 54.6434 40.5184V102.384C54.6434 105.777 57.4277 108.562 60.8212 108.562H91.7684C95.1618 108.562 97.9462 105.777 97.9462 102.384V40.5184Z" fill="white"/>
<path d="M82.4871 38.9521H70.1024V42.0556H82.4871V38.9521Z" fill="#232323"/>
<path d="M93.2766 46.6963H59.255V96.206H93.2766V46.6963Z" fill="white"/>
<path d="M94.8428 97.7431H57.7178V45.1591H94.8428V97.7431ZM60.8212 94.6397H91.7684V48.2335H60.8212V94.6397Z" fill="#232323"/>
<path d="M76.2803 105.487C77.5618 105.487 78.6006 104.448 78.6006 103.167C78.6006 101.885 77.5618 100.847 76.2803 100.847C74.9988 100.847 73.96 101.885 73.96 103.167C73.96 104.448 74.9988 105.487 76.2803 105.487Z" fill="#232323"/>
</svg>
