<?xml version="1.0" encoding="UTF-8" standalone="no"?>
<svg
   xmlns:dc="http://purl.org/dc/elements/1.1/"
   xmlns:cc="http://creativecommons.org/ns#"
   xmlns:rdf="http://www.w3.org/1999/02/22-rdf-syntax-ns#"
   xmlns:svg="http://www.w3.org/2000/svg"
   xmlns="http://www.w3.org/2000/svg"
   xmlns:sodipodi="http://sodipodi.sourceforge.net/DTD/sodipodi-0.dtd"
   xmlns:inkscape="http://www.inkscape.org/namespaces/inkscape"
   width="149"
   height="149"
   viewBox="0 0 149 149"
   fill="none"
   version="1.1"
   id="svg38"
   sodipodi:docname="mobile-1.svg"
   inkscape:version="1.0.2 (e86c870879, 2021-01-15, custom)">
  <metadata
     id="metadata44">
    <rdf:RDF>
      <cc:Work
         rdf:about="">
        <dc:format>image/svg+xml</dc:format>
        <dc:type
           rdf:resource="http://purl.org/dc/dcmitype/StillImage" />
        <dc:title></dc:title>
      </cc:Work>
    </rdf:RDF>
  </metadata>
  <defs
     id="defs42" />
  <sodipodi:namedview
     pagecolor="#ffffff"
     bordercolor="#666666"
     borderopacity="1"
     objecttolerance="10"
     gridtolerance="10"
     guidetolerance="10"
     inkscape:pageopacity="0"
     inkscape:pageshadow="2"
     inkscape:window-width="1920"
     inkscape:window-height="1017"
     id="namedview40"
     showgrid="false"
     inkscape:zoom="5.5175807"
     inkscape:cx="74.5"
     inkscape:cy="74.5"
     inkscape:window-x="-8"
     inkscape:window-y="-8"
     inkscape:window-maximized="1"
     inkscape:current-layer="svg38"
     inkscape:document-rotation="0" />
  <g
     id="g36">
    <g
       id="g60"
       transform="translate(0.2355,-0.2355)">
      <path
         d="m 95.9159,43.8028 c 0,-3.3934 -2.7844,-6.1778 -6.1778,-6.1778 H 58.7909 c -3.3935,0 -6.1778,2.7844 -6.1778,6.1778 v 61.8652 c 0,3.394 2.7843,6.178 6.1778,6.178 h 30.9472 c 3.3934,0 6.1778,-2.784 6.1778,-6.178 z"
         fill="#ffffff"
         id="path10" />
      <path
         d="M 80.4568,42.2656 H 68.0721 v 3.1034 h 12.3847 z"
         fill="#232323"
         id="path12" />
      <path
         d="M 91.2463,50.0097 H 57.2247 v 49.5097 h 34.0216 z"
         fill="#ffffff"
         id="path14" />
      <path
         d="M 92.8125,101.057 H 55.6875 V 48.4435 h 37.125 z M 58.7909,97.9531 H 89.7381 V 51.5469 H 58.7909 Z"
         fill="#232323"
         id="path16" />
      <path
         d="m 74.25,108.772 c 1.2815,0 2.3203,-1.039 2.3203,-2.321 0,-1.281 -1.0388,-2.32 -2.3203,-2.32 -1.2815,0 -2.3203,1.039 -2.3203,2.32 0,1.282 1.0388,2.321 2.3203,2.321 z"
         fill="#232323"
         id="path18" />
      <path
         d="M 74.2499,74.75 H 61.8653 v 12.3847 h 12.3846 z"
         fill="#8891bf"
         id="path20" />
      <path
         d="M 77.3535,71.6465 H 74.25 V 74.75 h 3.1035 z"
         fill="#232323"
         id="path22" />
      <path
         d="m 86.6347,62.3653 h -3.1034 v 3.1034 h 3.1034 z"
         fill="#232323"
         id="path24" />
      <path
         d="m 77.3535,62.3655 h -3.1034 v 3.1035 h 3.1034 z"
         fill="#232323"
         id="path26" />
      <path
         d="M 86.6347,71.6465 H 83.5313 V 74.75 h 3.1034 z"
         fill="#232323"
         id="path28" />
      <path
         d="m 81.9941,62.3653 h -3.1034 v 3.1034 h 3.1034 z"
         fill="#232323"
         id="path30" />
      <path
         d="M 81.9941,71.6465 H 78.8907 V 74.75 h 3.1034 z"
         fill="#232323"
         id="path32" />
      <path
         d="m 86.6347,67.0059 h -3.1034 v 3.1034 h 3.1034 z"
         fill="#232323"
         id="path34" />
      <path
         d="M 77.3535,67.0059 H 74.25 v 3.1034 h 3.1035 z"
         fill="#232323"
         id="path36" />
    </g>
  </g>
  <path
     d="m 96.1513,43.5963 c 0,-3.3935 -2.7843,-6.1778 -6.1778,-6.1778 H 59.0263 c -3.3934,0 -6.1778,2.7843 -6.1778,6.1778 v 61.8656 c 0,3.393 2.7844,6.178 6.1778,6.178 h 30.9472 c 3.3935,0 6.1778,-2.785 6.1778,-6.178 z"
     fill="#ffffff"
     id="path84"
     style="fill:#ffffff;fill-opacity:0.9558233" />
  <path
     d="M 80.6923,42.03 H 68.3076 v 3.1035 h 12.3847 z"
     fill="#232323"
     id="path86"
     style="fill:#000000;fill-opacity:1" />
  <path
     d="M 91.4818,49.7744 H 57.4602 v 49.509696 h 34.0216 z"
     fill="#ffffff"
     id="path88"
     style="fill:#ffffff;fill-opacity:0.9558233" />
  <path
     d="M 93.048,100.8212 H 55.923 V 48.2371 H 93.048 Z M 59.0264,97.717696 H 89.9736 V 51.3115 H 59.0264 Z"
     fill="#232323"
     id="path90"
     style="fill:#000000;fill-opacity:0.9558233" />
  <path
     d="m 74.4855,108.5649 c 1.2814,0 2.3203,-1.039 2.3203,-2.32 0,-1.282 -1.0389,-2.321 -2.3203,-2.321 -1.2815,0 -2.3203,1.039 -2.3203,2.321 0,1.281 1.0388,2.32 2.3203,2.32 z"
     fill="#232323"
     id="path92"
     style="fill:#000000;fill-opacity:0.9558233" />
</svg>
