<svg width="149" height="149" viewBox="0 0 149 149" fill="none" xmlns="http://www.w3.org/2000/svg">
<path d="M77.8447 43.3115C77.8447 39.9094 75.0603 37.125 71.6582 37.125H40.7197C37.3175 37.125 34.5332 39.9094 34.5332 43.3115V105.186C34.5332 108.588 37.3175 111.372 40.7197 111.372H71.6582C75.0603 111.372 77.8447 108.588 77.8447 105.186V43.3115Z" fill="#AEDAD9"/>
<path d="M62.3769 41.7656H50.001V44.8603H62.3769V41.7656Z" fill="#232323"/>
<path d="M73.2012 49.5009H39.1709V99.0019H73.2012V49.5009Z" fill="white"/>
<path d="M74.75 100.548H37.625V47.9521H74.75V100.548ZM40.7197 97.4531H71.6582V51.0468H40.7197V97.4531Z" fill="#232323"/>
<path d="M58.5078 105.96C58.5078 107.242 57.4695 108.28 56.1875 108.28C54.9055 108.28 53.8672 107.242 53.8672 105.96C53.8672 104.678 54.9055 103.64 56.1875 103.64C57.4695 103.64 58.5078 104.678 58.5078 105.96Z" fill="#232323"/>
<path d="M113.424 49.5009H82.4854V61.8769H113.424V49.5009Z" fill="white"/>
<path d="M114.97 47.9521H111.875V51.0468H114.97V47.9521Z" fill="#232323"/>
<path d="M108.78 51.0468H105.686V47.9521H108.78V51.0468ZM102.594 51.0468H99.499V47.9521H102.594V51.0468ZM96.4072 51.0468H93.3125V47.9521H96.4072V51.0468ZM90.2178 51.0468H87.123V47.9521H90.2178V51.0468Z" fill="#232323"/>
<path d="M84.0312 47.9521H80.9365V51.0468H84.0312V47.9521Z" fill="#232323"/>
<path d="M84.0312 54.1415H80.9365V57.2362H84.0312V54.1415Z" fill="#232323"/>
<path d="M84.0312 60.3281H80.9365V63.4228H84.0312V60.3281Z" fill="#232323"/>
<path d="M108.78 63.4228H105.686V60.3281H108.78V63.4228ZM102.594 63.4228H99.499V60.3281H102.594V63.4228ZM96.4072 63.4228H93.3125V60.3281H96.4072V63.4228ZM90.2178 63.4228H87.123V60.3281H90.2178V63.4228Z" fill="#232323"/>
<path d="M114.97 60.3281H111.875V63.4228H114.97V60.3281Z" fill="#232323"/>
<path d="M114.97 54.1415H111.875V57.2362H114.97V54.1415Z" fill="#232323"/>
<path d="M114.97 81.9853H80.9365V66.5175H114.967V81.9853H114.97ZM84.0312 78.8906H111.875V69.6094H84.0312V78.8906Z" fill="#232323"/>
<path d="M113.424 86.6259H82.4854V99.0019H113.424V86.6259Z" fill="white"/>
<path d="M114.97 100.548H80.9365V85.08H114.967V100.548H114.97ZM84.0312 97.4531H111.875V88.1719H84.0312V97.4531Z" fill="#232323"/>
<path d="M82.4854 54.1416H50.001V57.2363H82.4854V54.1416Z" fill="#232323"/>
<path d="M82.4854 72.7041H50.001V75.7988H82.4854V72.7041Z" fill="#232323"/>
<path d="M82.4854 91.2666H50.001V94.3613H82.4854V91.2666Z" fill="#232323"/>
</svg>
