<svg width="149" height="149" viewBox="0 0 149 149" fill="none" xmlns="http://www.w3.org/2000/svg">
<path d="M92.8125 68.0722C85.9676 68.0722 80.4279 73.6119 80.4279 80.4568V99.0193C80.4279 105.864 85.9676 111.404 92.8125 111.404C99.6575 111.404 105.197 105.864 105.197 99.0193V80.4568C105.197 73.6119 99.6575 68.0722 92.8125 68.0722Z" fill="#FF8C21"/>
<path d="M55.6876 111.375C48.0015 111.375 41.7657 105.139 41.7657 97.4531V37.125H44.8691V97.4531C44.8691 103.428 49.7128 108.272 55.6876 108.272C61.6624 108.272 66.506 103.428 66.506 97.4531V51.0469C66.506 43.3608 72.7419 37.125 80.4279 37.125C88.1139 37.125 94.3498 43.3608 94.3498 51.0469V68.0722H91.2464V51.0469C91.2464 45.0721 86.4027 40.2284 80.4279 40.2284C74.4531 40.2284 69.6094 45.0721 69.6094 51.0469V97.4531C69.6094 105.139 63.3736 111.375 55.6876 111.375Z" fill="#232323"/>
<path d="M92.8126 85.0685C90.2602 85.0685 88.1719 82.9802 88.1719 80.4279C88.1719 77.8755 90.2602 75.7872 92.8126 75.7872C95.3649 75.7872 97.4532 77.8755 97.4532 80.4279C97.4532 83.0092 95.3649 85.0685 92.8126 85.0685ZM92.8126 78.8907C91.9714 78.8907 91.2754 79.5867 91.2754 80.4279C91.2754 81.269 91.9714 81.9651 92.8126 81.9651C93.6537 81.9651 94.3498 81.269 94.3498 80.4279C94.3498 79.5867 93.6537 78.8907 92.8126 78.8907Z" fill="#232323"/>
</svg>
