<svg width="106" height="125" viewBox="0 0 106 125" fill="none" xmlns="http://www.w3.org/2000/svg">
<path d="M85.3748 52.2244C73.9897 52.2244 64.7754 61.4386 64.7754 72.8238V103.699C64.7754 115.084 73.9897 124.298 85.3748 124.298C96.76 124.298 105.974 115.084 105.974 103.699V72.8238C105.974 61.4386 96.76 52.2244 85.3748 52.2244Z" fill="#FF8C21"/>
<path d="M23.625 124.25C10.8408 124.25 0.46875 113.878 0.46875 101.094V0.75H5.63066V101.094C5.63066 111.032 13.6871 119.088 23.625 119.088C33.5629 119.088 41.6193 111.032 41.6193 101.094V23.9063C41.6193 11.1221 51.9914 0.75 64.7756 0.75C77.5598 0.75 87.9318 11.1221 87.9318 23.9063V52.2244H82.7699V23.9063C82.7699 13.9684 74.7135 5.91191 64.7756 5.91191C54.8377 5.91191 46.7812 13.9684 46.7812 23.9063V101.094C46.7812 113.878 36.4092 124.25 23.625 124.25Z" fill="black"/>
<path d="M85.375 80.4944C81.1297 80.4944 77.6562 77.0209 77.6562 72.7756C77.6562 68.5303 81.1297 65.0569 85.375 65.0569C89.6203 65.0569 93.0938 68.5303 93.0938 72.7756C93.0938 77.0692 89.6203 80.4944 85.375 80.4944ZM85.375 70.2188C83.976 70.2188 82.8182 71.3766 82.8182 72.7756C82.8182 74.1747 83.976 75.3325 85.375 75.3325C86.774 75.3325 87.9318 74.1747 87.9318 72.7756C87.9318 71.3766 86.774 70.2188 85.375 70.2188Z" fill="black"/>
</svg>
