<svg width="149" height="149" viewBox="0 0 149 149" fill="none" xmlns="http://www.w3.org/2000/svg">
<path d="M61.1745 85.6449L48.8014 101.114L51.2249 103.053L63.598 87.5833L61.1745 85.6449Z" fill="#232323"/>
<path d="M63.7532 85.9243L60.9775 87.3121L73.3514 112.06L76.1271 110.672L63.7532 85.9243Z" fill="#232323"/>
<path d="M38.3085 72.8605L36.9207 75.6362L61.6685 88.0101L63.0563 85.2344L38.3085 72.8605Z" fill="#232323"/>
<path d="M57.6847 61.492L54.674 62.2446L60.8635 87.0049L63.8741 86.2523L57.6847 61.492Z" fill="#232323"/>
<path d="M73.6476 73.1608L61.2809 85.5275L63.4753 87.722L75.8421 75.3552L73.6476 73.1608Z" fill="#232323"/>
<path d="M62.5741 85.0736L62.1893 88.1531L86.9406 91.2461L87.3254 88.1666L62.5741 85.0736Z" fill="#232323"/>
<path d="M85.7664 88.9503L73.3895 110.606L76.0839 112.146L88.4608 90.4902L85.7664 88.9503Z" fill="#232323"/>
<path d="M88.2329 88.6115L86.0385 90.8059L98.4052 103.173L100.6 100.978L88.2329 88.6115Z" fill="#232323"/>
<path d="M111.035 72.9367L86.2925 88.3981L87.937 91.0298L112.68 75.5684L111.035 72.9367Z" fill="#232323"/>
<path d="M93.812 66.5783L92.8307 69.5225L111.404 75.7129L112.385 72.7687L93.812 66.5783Z" fill="#232323"/>
<path d="M91.8311 67.6407L85.6337 89.3069L88.6173 90.1603L94.8147 68.4942L91.8311 67.6407Z" fill="#232323"/>
<path d="M75.9633 73.2728L73.5398 75.2115L85.9149 90.6809L88.3384 88.7421L75.9633 73.2728Z" fill="#232323"/>
<path d="M79.4593 55.1811L73.2668 73.7544L76.2111 74.736L82.4035 56.1627L79.4593 55.1811Z" fill="#232323"/>
<path d="M82.0386 54.6011L79.8441 56.7955L92.2109 69.1623L94.4053 66.9678L82.0386 54.6011Z" fill="#232323"/>
<path d="M92.8427 66.5905L74.2694 72.7809L75.2507 75.7252L93.824 69.5347L92.8427 66.5905Z" fill="#232323"/>
<path d="M57.0565 60.5739L55.3351 63.1562L73.8942 75.5283L75.6157 72.9459L57.0565 60.5739Z" fill="#232323"/>
<path d="M51.4521 45.8432L48.5706 46.9958L54.7537 62.4537L57.6352 61.3011L51.4521 45.8432Z" fill="#232323"/>
<path d="M55.3083 60.5873L36.7513 72.9593L38.4728 75.5413L57.0297 63.1693L55.3083 60.5873Z" fill="#232323"/>
<path d="M76.2211 36.6433L73.2769 37.6246L79.4673 56.1979L82.4115 55.2166L76.2211 36.6433Z" fill="#232323"/>
<path d="M80.5776 54.1756L55.8147 60.3625L56.567 63.3734L81.3298 57.1865L80.5776 54.1756Z" fill="#232323"/>
<path d="M73.5173 36.1765L54.949 60.9343L57.4317 62.7963L76 38.0386L73.5173 36.1765Z" fill="#232323"/>
<path d="M98.834 45.0204L80.2602 54.3073L81.648 57.083L100.222 47.7961L98.834 45.0204Z" fill="#232323"/>
<path d="M98.0297 45.954L91.8346 67.6224L94.8185 68.4755L101.014 46.8071L98.0297 45.954Z" fill="#232323"/>
<path d="M100.915 45.7831L98.0795 47.0434L110.459 74.8989L113.295 73.6386L100.915 45.7831Z" fill="#232323"/>
<path d="M75.2843 35.6721L74.1947 38.5778L98.9341 47.8548L100.024 44.949L75.2843 35.6721Z" fill="#232323"/>
<path d="M74.2121 35.6875L49.47 44.9619L50.5593 47.8679L75.3014 38.5936L74.2121 35.6875Z" fill="#232323"/>
<path d="M48.5961 45.7779L36.2108 73.6303L39.0464 74.8912L51.4317 47.0388L48.5961 45.7779Z" fill="#232323"/>
<path d="M39.0507 73.6229L36.2148 74.8832L48.594 102.739L51.4299 101.478L39.0507 73.6229Z" fill="#232323"/>
<path d="M50.539 100.632L49.4494 103.537L74.1888 112.814L75.2784 109.909L50.539 100.632Z" fill="#232323"/>
<path d="M98.9541 100.66L74.212 109.934L75.3013 112.84L100.043 103.566L98.9541 100.66Z" fill="#232323"/>
<path d="M110.471 73.6237L98.0884 101.479L100.924 102.74L113.307 74.8843L110.471 73.6237Z" fill="#232323"/>
<path d="M56.1875 64.9688C57.9015 64.9688 59.2909 63.5794 59.2909 61.8654C59.2909 60.1514 57.9015 58.762 56.1875 58.762C54.4735 58.762 53.0841 60.1514 53.0841 61.8654C53.0841 63.5794 54.4735 64.9688 56.1875 64.9688Z" fill="#11D1AC"/>
<path d="M62.3653 89.7381C64.0793 89.7381 65.4687 88.3486 65.4687 86.6347C65.4687 84.9207 64.0793 83.5312 62.3653 83.5312C60.6513 83.5312 59.2619 84.9207 59.2619 86.6347C59.2619 88.3486 60.6513 89.7381 62.3653 89.7381Z" fill="#11D1AC"/>
<path d="M87.1347 92.8125C88.8486 92.8125 90.2381 91.4231 90.2381 89.7091C90.2381 87.9952 88.8486 86.6057 87.1347 86.6057C85.4207 86.6057 84.0312 87.9952 84.0312 89.7091C84.0312 91.4231 85.4207 92.8125 87.1347 92.8125Z" fill="#11D1AC"/>
<path d="M74.75 77.3534C76.464 77.3534 77.8534 75.964 77.8534 74.25C77.8534 72.5361 76.464 71.1466 74.75 71.1466C73.036 71.1466 71.6466 72.5361 71.6466 74.25C71.6466 75.964 73.036 77.3534 74.75 77.3534Z" fill="#11D1AC"/>
<path d="M80.9278 58.7909C82.6418 58.7909 84.0312 57.4015 84.0312 55.6875C84.0312 53.9736 82.6418 52.5841 80.9278 52.5841C79.2138 52.5841 77.8244 53.9736 77.8244 55.6875C77.8244 57.4015 79.2138 58.7909 80.9278 58.7909Z" fill="#11D1AC"/>
<path d="M74.75 40.2284C76.464 40.2284 77.8534 38.839 77.8534 37.125C77.8534 35.4111 76.464 34.0216 74.75 34.0216C73.036 34.0216 71.6466 35.4111 71.6466 37.125C71.6466 38.839 73.036 40.2284 74.75 40.2284Z" fill="#11D1AC"/>
<path d="M50.0097 49.5096C51.7236 49.5096 53.1131 48.1202 53.1131 46.4062C53.1131 44.6922 51.7236 43.3028 50.0097 43.3028C48.2957 43.3028 46.9062 44.6922 46.9062 46.4062C46.9062 48.1202 48.2957 49.5096 50.0097 49.5096Z" fill="#11D1AC"/>
<path d="M99.4903 49.5096C101.204 49.5096 102.594 48.1202 102.594 46.4062C102.594 44.6922 101.204 43.3028 99.4903 43.3028C97.7763 43.3028 96.3869 44.6922 96.3869 46.4062C96.3869 48.1202 97.7763 49.5096 99.4903 49.5096Z" fill="#11D1AC"/>
<path d="M93.3125 71.1756C95.0264 71.1756 96.4159 69.7861 96.4159 68.0722C96.4159 66.3582 95.0264 64.9688 93.3125 64.9688C91.5985 64.9688 90.209 66.3582 90.209 68.0722C90.209 69.7861 91.5985 71.1756 93.3125 71.1756Z" fill="#11D1AC"/>
<path d="M99.4903 105.197C101.204 105.197 102.594 103.808 102.594 102.094C102.594 100.38 101.204 98.9904 99.4903 98.9904C97.7763 98.9904 96.3869 100.38 96.3869 102.094C96.3869 103.808 97.7763 105.197 99.4903 105.197Z" fill="#11D1AC"/>
<path d="M50.0097 105.197C51.7236 105.197 53.1131 103.808 53.1131 102.094C53.1131 100.38 51.7236 98.9904 50.0097 98.9904C48.2957 98.9904 46.9062 100.38 46.9062 102.094C46.9062 103.808 48.2957 105.197 50.0097 105.197Z" fill="#11D1AC"/>
<path d="M111.875 77.3534C113.589 77.3534 114.978 75.964 114.978 74.25C114.978 72.5361 113.589 71.1466 111.875 71.1466C110.161 71.1466 108.772 72.5361 108.772 74.25C108.772 75.964 110.161 77.3534 111.875 77.3534Z" fill="#11D1AC"/>
<path d="M74.75 114.478C76.464 114.478 77.8534 113.089 77.8534 111.375C77.8534 109.661 76.464 108.272 74.75 108.272C73.036 108.272 71.6466 109.661 71.6466 111.375C71.6466 113.089 73.036 114.478 74.75 114.478Z" fill="#11D1AC"/>
<path d="M37.625 77.3534C39.339 77.3534 40.7284 75.964 40.7284 74.25C40.7284 72.5361 39.339 71.1466 37.625 71.1466C35.911 71.1466 34.5216 72.5361 34.5216 74.25C34.5216 75.964 35.911 77.3534 37.625 77.3534Z" fill="#11D1AC"/>
</svg>
