<?xml version="1.0" encoding="UTF-8" standalone="no"?>
<svg
   xmlns:dc="http://purl.org/dc/elements/1.1/"
   xmlns:cc="http://creativecommons.org/ns#"
   xmlns:rdf="http://www.w3.org/1999/02/22-rdf-syntax-ns#"
   xmlns:svg="http://www.w3.org/2000/svg"
   xmlns="http://www.w3.org/2000/svg"
   xmlns:sodipodi="http://sodipodi.sourceforge.net/DTD/sodipodi-0.dtd"
   xmlns:inkscape="http://www.inkscape.org/namespaces/inkscape"
   width="126"
   height="126"
   viewBox="0 0 126 126"
   fill="none"
   version="1.1"
   id="svg885"
   sodipodi:docname="oracle-logo.svg"
   inkscape:version="1.0.2 (e86c870879, 2021-01-15, custom)">
  <metadata
     id="metadata891">
    <rdf:RDF>
      <cc:Work
         rdf:about="">
        <dc:format>image/svg+xml</dc:format>
        <dc:type
           rdf:resource="http://purl.org/dc/dcmitype/StillImage" />
        <dc:title></dc:title>
      </cc:Work>
    </rdf:RDF>
  </metadata>
  <defs
     id="defs889" />
  <sodipodi:namedview
     pagecolor="#ffffff"
     bordercolor="#666666"
     borderopacity="1"
     objecttolerance="10"
     gridtolerance="10"
     guidetolerance="10"
     inkscape:pageopacity="0"
     inkscape:pageshadow="2"
     inkscape:window-width="1920"
     inkscape:window-height="1017"
     id="namedview887"
     showgrid="false"
     inkscape:zoom="6.7104605"
     inkscape:cx="63"
     inkscape:cy="63"
     inkscape:window-x="1912"
     inkscape:window-y="-8"
     inkscape:window-maximized="1"
     inkscape:current-layer="svg885" />
  <path
     d="m 55.7534,65.697988 h 6.672788 L 58.90151,60.005968 52.421384,70.286615 H 49.47466 l 7.881264,-12.334161 a 1.8783654,1.8783654 0 0 1 3.064924,-0.02186 L 68.324,70.2866 H 65.377282 L 63.989298,67.987899 H 57.237704 L 55.766535,65.69797 m 30.618679,2.289935 V 57.273806 h -2.504507 v 11.76932 a 1.2084589,1.2084589 0 0 0 0.372184,0.875697 1.2653788,1.2653788 0 0 0 0.910732,0.380924 h 11.383948 l 1.484335,-2.298698 H 86.37207 M 44.977974,66.074514 a 4.4003676,4.4003676 0 0 0 0,-8.800704 H 34.03179 V 70.286615 H 36.5319 V 59.576878 h 8.292828 a 2.106046,2.106046 0 0 1 0,4.212071 h -7.053724 l 7.469677,6.497666 h 3.629758 l -5.017727,-4.212101 h 1.125262 m -26.323391,4.212101 h 7.561636 a 6.5064099,6.5064099 0 0 0 0,-13.00843 h -7.561636 a 6.5064099,6.5064099 0 1 0 0,13.00843 m 7.390865,-2.289934 h -7.224475 a 4.2120924,4.2120924 0 0 1 0,-8.419803 h 7.224475 a 4.2120924,4.2120924 0 1 1 0,8.419803 m 47.502065,2.289934 h 7.719245 l 1.462389,-2.289934 h -9.010864 a 4.2120924,4.2120924 0 1 1 0,-8.419803 h 7.333956 l 1.479902,-2.298693 h -8.984628 a 6.5064099,6.5064099 0 1 0 0,13.00843 m 30.592327,-2.289934 a 4.2120924,4.2120924 0 0 1 -4.05437,-3.064934 h 10.69229 l 1.47106,-2.294321 h -12.16335 a 4.207715,4.207715 0 0 1 4.05437,-3.064915 h 7.33833 l 1.46687,-2.298701 h -8.97584 a 6.5064099,6.5064099 0 0 0 0,13.008431 h 7.71931 l 1.46668,-2.289924 h -9.01983"
     style="fill:#707070;fill-opacity:1;stroke-width:0.437837"
     id="path20" />
</svg>
