<svg width="149" height="149" viewBox="0 0 149 149" fill="none" xmlns="http://www.w3.org/2000/svg">
<path d="M74.25 111.375C94.7536 111.375 111.375 94.7536 111.375 74.2501C111.375 53.7465 94.7536 37.1251 74.25 37.1251C53.7464 37.1251 37.125 53.7465 37.125 74.2501C37.125 94.7536 53.7464 111.375 74.25 111.375Z" fill="white"/>
<path d="M96.5482 100.548H78.8906V82.8903L96.5482 100.548ZM81.9853 97.4531H89.0797L81.9853 90.3588V97.4531Z" fill="#232323"/>
<path d="M74.25 91.2666H55.6875V109.829H74.25V91.2666Z" fill="white"/>
<path d="M75.7959 111.375H54.1387V89.7178H75.7959V111.375ZM57.2334 108.28H72.7012V92.8125H57.2334V108.28Z" fill="#232323"/>
<path d="M86.626 117.562C90.0427 117.562 92.8125 114.792 92.8125 111.375C92.8125 107.958 90.0427 105.188 86.626 105.188C83.2092 105.188 80.4394 107.958 80.4394 111.375C80.4394 114.792 83.2092 117.562 86.626 117.562Z" fill="white"/>
<path d="M86.626 119.11C82.3624 119.11 78.8906 115.641 78.8906 111.375C78.8906 107.109 82.3595 103.64 86.626 103.64C90.8924 103.64 94.3613 107.109 94.3613 111.375C94.3613 115.641 90.8895 119.11 86.626 119.11ZM86.626 106.734C84.0678 106.734 81.9853 108.817 81.9853 111.375C81.9853 113.933 84.0678 116.016 86.626 116.016C89.1841 116.016 91.2666 113.933 91.2666 111.375C91.2666 108.817 89.1841 106.734 86.626 106.734Z" fill="#232323"/>
<path d="M86.6231 30.9385H61.874V61.8769H86.6231V30.9385Z" fill="white"/>
<path d="M74.25 83.2267L60.3281 62.3439V29.3897H88.1719V62.341L74.25 83.2267ZM63.4228 61.4071L74.25 77.6493L85.0772 61.4071V32.4844H63.4199L63.4228 61.4071Z" fill="#232323"/>
<path d="M86.6231 60.3282H61.874V63.4229H86.6231V60.3282Z" fill="#232323"/>
<path d="M78.1191 72.7041H70.1256V75.7988H78.1191V72.7041Z" fill="#232323"/>
<path d="M69.6094 30.9385H66.5147V61.8769H69.6094V30.9385Z" fill="#232323"/>
<path d="M75.7988 30.9385H72.7041V61.8769H75.7988V30.9385Z" fill="#232323"/>
<path d="M81.9853 30.9385H78.8906V61.8769H81.9853V30.9385Z" fill="#232323"/>
</svg>
