<svg width="149" height="149" viewBox="0 0 149 149" fill="none" xmlns="http://www.w3.org/2000/svg">
<path d="M74.7501 111.875C95.2536 111.875 111.875 95.2536 111.875 74.75C111.875 54.2464 95.2536 37.625 74.7501 37.625C54.2465 37.625 37.6251 54.2464 37.6251 74.75C37.6251 95.2536 54.2465 111.875 74.7501 111.875Z" fill="#AEDAD9"/>
<path d="M74.634 99.4903C88.2977 99.4903 99.3744 88.4137 99.3744 74.75C99.3744 61.0863 88.2977 50.0096 74.634 50.0096C60.9703 50.0096 49.8937 61.0863 49.8937 74.75C49.8937 88.4137 60.9703 99.4903 74.634 99.4903Z" fill="white"/>
<path d="M87.1057 31.4471H62.3654V62.3943H87.1057V31.4471Z" fill="white"/>
<path d="M74.7501 83.7122L60.8282 62.8294V29.8809H88.6719V62.8294L74.7501 83.7122ZM63.9316 61.9012L74.7501 78.1434L85.5685 61.9012V32.9843H63.9026L63.9316 61.9012Z" fill="#232323"/>
<path d="M87.1057 60.8281H62.3654V63.9315H87.1057V60.8281Z" fill="#232323"/>
<path d="M78.6366 73.2128H70.6315V76.3162H78.6366V73.2128Z" fill="#232323"/>
<path d="M70.1094 31.4471H67.006V62.3943H70.1094V31.4471Z" fill="#232323"/>
<path d="M76.3162 31.4471H73.2128V62.3943H76.3162V31.4471Z" fill="#232323"/>
<path d="M82.4941 31.4471H79.3907V62.3943H82.4941V31.4471Z" fill="#232323"/>
<path d="M76.1712 99.4903H73.0678V111.875H76.1712V99.4903Z" fill="#232323"/>
<path d="M93.2868 91.0751L91.0924 93.2695L99.9111 102.088L102.106 99.8938L93.2868 91.0751Z" fill="#232323"/>
<path d="M99.8515 47.3228L91.0943 56.08L93.2887 58.2744L102.046 49.5172L99.8515 47.3228Z" fill="#232323"/>
</svg>
