<svg width="149" height="149" viewBox="0 0 149 149" fill="none" xmlns="http://www.w3.org/2000/svg">
<path d="M74.25 37.625C60.5892 37.625 49.5097 48.7045 49.5097 62.3653C49.5097 87.1057 74.25 89.687 74.25 111.875C74.25 89.716 98.9903 87.1347 98.9903 62.3653C98.9903 48.7045 87.9108 37.625 74.25 37.625Z" fill="white"/>
<path d="M74.25 71.6466C79.3759 71.6466 83.5313 67.4913 83.5313 62.3654C83.5313 57.2395 79.3759 53.0841 74.25 53.0841C69.1241 53.0841 64.9688 57.2395 64.9688 62.3654C64.9688 67.4913 69.1241 71.6466 74.25 71.6466Z" fill="white"/>
<path d="M74.25 71.6466C79.3759 71.6466 83.5313 67.4913 83.5313 62.3654C83.5313 57.2395 79.3759 53.0841 74.25 53.0841C69.1241 53.0841 64.9688 57.2395 64.9688 62.3654C64.9688 67.4913 69.1241 71.6466 74.25 71.6466Z" fill="#AEDAD9"/>
<path d="M111.375 108.772H37.125V111.875H111.375V108.772Z" fill="#232323"/>
<path d="M74.25 73.2128C68.2752 73.2128 63.4315 68.3691 63.4315 62.3943C63.4315 56.4195 68.2752 51.5469 74.25 51.5469C80.2248 51.5469 85.0685 56.3905 85.0685 62.3653C85.0685 68.3401 80.2248 73.2128 74.25 73.2128ZM74.25 54.6503C69.9864 54.6503 66.506 58.1308 66.506 62.3943C66.506 66.6579 69.9864 70.1384 74.25 70.1384C78.5136 70.1384 81.9941 66.6579 81.9941 62.3943C81.9941 58.1018 78.5136 54.6503 74.25 54.6503Z" fill="#232323"/>
</svg>
