<svg width="109" height="110" viewBox="0 0 109 110" fill="none" xmlns="http://www.w3.org/2000/svg">
<path d="M90.0061 109.196L62.6602 77.9845L66.5736 74.6025L90.2476 101.658L100.925 90.981L73.8691 67.307L77.2511 63.3936L108.462 90.7395L90.0061 109.196Z" fill="#232323"/>
<path d="M77.396 19.814C61.2591 3.677 33.6716 -9.31954 11.7852 12.5185C-10.1012 34.4049 2.94368 61.9924 19.0807 78.1294C29.3233 88.372 40.7738 91.9473 50.8232 90.1113L89.3297 51.6048C91.1656 41.4588 87.5904 30.0083 77.396 19.814Z" fill="#FF8C21"/>
<path d="M68.4186 79.432L49.7793 87.6956L51.8746 92.4216L70.5138 84.1581L68.4186 79.432Z" fill="black"/>
<path d="M86.9765 50.4908L78.7048 69.126L83.4299 71.2233L91.7016 52.5881L86.9765 50.4908Z" fill="black"/>
<path d="M84.6636 81.7462L81.0082 85.4016L95.5958 99.9892L99.2512 96.3338L84.6636 81.7462Z" fill="#232323"/>
<path d="M21.5445 90.546C27.228 90.546 31.8354 85.9386 31.8354 80.2551C31.8354 74.5715 27.228 69.9641 21.5445 69.9641C15.861 69.9641 11.2535 74.5715 11.2535 80.2551C11.2535 85.9386 15.861 90.546 21.5445 90.546Z" fill="white"/>
<path d="M21.5446 93.1551C14.4424 93.1551 8.64465 87.3574 8.64465 80.2552C8.64465 73.1529 14.4424 67.3552 21.5446 67.3552C28.6468 67.3552 34.4445 73.1529 34.4445 80.2552C34.4445 87.3574 28.6468 93.1551 21.5446 93.1551ZM21.5446 72.5249C17.2929 72.5249 13.8143 76.0035 13.8143 80.2552C13.8143 84.5068 17.2929 87.9854 21.5446 87.9854C25.7962 87.9854 29.2749 84.5068 29.2749 80.2552C29.2749 76.0035 25.7962 72.5249 21.5446 72.5249Z" fill="#232323"/>
</svg>
