<svg width="149" height="149" viewBox="0 0 149 149" fill="none" xmlns="http://www.w3.org/2000/svg">
<path d="M93.9003 106.967L77.484 88.2305L79.8334 86.2002L94.0453 102.442L100.455 96.0325L84.2129 81.8206L86.2432 79.4713L104.98 95.8875L93.9003 106.967Z" fill="#232323"/>
<path d="M86.3303 53.3098C76.643 43.6225 60.0817 35.8205 46.943 48.9302C33.8042 62.069 41.6352 78.6302 51.3225 88.3175C57.4714 94.4664 64.3453 96.6127 70.3781 95.5105L93.4942 72.3944C94.5964 66.3036 92.4501 59.4296 86.3303 53.3098Z" fill="#FF8C21"/>
<path d="M80.941 89.0996L69.7515 94.0604L71.0093 96.8975L82.1988 91.9368L80.941 89.0996Z" fill="#232323"/>
<path d="M92.0816 71.7257L87.1159 82.9127L89.9525 84.1718L94.9181 72.9847L92.0816 71.7257Z" fill="#232323"/>
<path d="M90.6932 90.4888L88.4988 92.6832L97.256 101.44L99.4504 99.246L90.6932 90.4888Z" fill="#232323"/>
<path d="M52.8017 95.7714C56.2137 95.7714 58.9796 93.0055 58.9796 89.5936C58.9796 86.1817 56.2137 83.4158 52.8017 83.4158C49.3898 83.4158 46.6239 86.1817 46.6239 89.5936C46.6239 93.0055 49.3898 95.7714 52.8017 95.7714Z" fill="white"/>
<path d="M52.8017 97.3377C48.5381 97.3377 45.0577 93.8572 45.0577 89.5937C45.0577 85.3301 48.5381 81.8496 52.8017 81.8496C57.0653 81.8496 60.5458 85.3301 60.5458 89.5937C60.5458 93.8572 57.0653 97.3377 52.8017 97.3377ZM52.8017 84.953C50.2494 84.953 48.1611 87.0413 48.1611 89.5937C48.1611 92.146 50.2494 94.2343 52.8017 94.2343C55.3541 94.2343 57.4423 92.146 57.4423 89.5937C57.4423 87.0413 55.3541 84.953 52.8017 84.953Z" fill="#232323"/>
</svg>
