<?xml version="1.0" encoding="UTF-8" standalone="no"?>
<svg
   xmlns:dc="http://purl.org/dc/elements/1.1/"
   xmlns:cc="http://creativecommons.org/ns#"
   xmlns:rdf="http://www.w3.org/1999/02/22-rdf-syntax-ns#"
   xmlns:svg="http://www.w3.org/2000/svg"
   xmlns="http://www.w3.org/2000/svg"
   xmlns:sodipodi="http://sodipodi.sourceforge.net/DTD/sodipodi-0.dtd"
   xmlns:inkscape="http://www.inkscape.org/namespaces/inkscape"
   width="126"
   height="126"
   viewBox="0 0 126 126"
   fill="none"
   version="1.1"
   id="svg885"
   sodipodi:docname="PostgreSQL-logo.svg"
   inkscape:version="1.0.2 (e86c870879, 2021-01-15, custom)">
  <metadata
     id="metadata891">
    <rdf:RDF>
      <cc:Work
         rdf:about="">
        <dc:format>image/svg+xml</dc:format>
        <dc:type
           rdf:resource="http://purl.org/dc/dcmitype/StillImage" />
        <dc:title></dc:title>
      </cc:Work>
    </rdf:RDF>
  </metadata>
  <defs
     id="defs889" />
  <sodipodi:namedview
     pagecolor="#ffffff"
     bordercolor="#666666"
     borderopacity="1"
     objecttolerance="10"
     gridtolerance="10"
     guidetolerance="10"
     inkscape:pageopacity="0"
     inkscape:pageshadow="2"
     inkscape:window-width="1920"
     inkscape:window-height="1017"
     id="namedview887"
     showgrid="false"
     inkscape:zoom="6.7104605"
     inkscape:cx="63"
     inkscape:cy="63"
     inkscape:window-x="1912"
     inkscape:window-y="-8"
     inkscape:window-maximized="1"
     inkscape:current-layer="svg885" />
  <g
     id="g979"
     transform="translate(31.339104,31.312999)">
    <path
       d="M 55.0421,37.3677 C 48.2272,38.7768 47.753,36.46 47.753,36.46 54.9472,25.7838 57.955,12.2354 55.3672,8.91606 48.2814,-0.120727 36.0201,4.14702 35.8169,4.26896 L 35.7491,4.2825 C 34.4078,3.99799 32.8904,3.83541 31.1969,3.80831 c -3.0891,-0.05419 -5.4194,0.81291 -7.1942,2.1542 0,0 -21.86717,-9.00969 -20.85104,11.32649 0.21677,4.3219 6.20517,32.7465 13.34514,24.1568 2.6149,-3.1432 5.1349,-5.7852 5.1349,-5.7852 1.2464,0.8265 2.7503,1.26 4.3219,1.0974 l 0.122,-0.1083 c -0.0407,0.3929 -0.0271,0.7722 0.0542,1.2193 -1.8426,2.0594 -1.3007,2.4116 -4.9723,3.1703 -3.7258,0.7723 -1.531,2.1271 -0.1084,2.4929 1.7342,0.4336 5.731,1.0433 8.4407,-2.7367 l -0.1084,0.4335 c 0.718,0.5826 1.2329,3.7529 1.138,6.6387 -0.0813,2.8858 -0.1354,4.8639 0.42,6.4084 0.5555,1.5445 1.1381,5.0129 5.9613,3.9833 4.0375,-0.8671 6.1375,-3.1026 6.422,-6.8555 0.2032,-2.6555 0.6774,-2.2626 0.7045,-4.6471 l 0.3794,-1.1246 c 0.4335,-3.6038 0.0677,-4.769 2.5606,-4.2271 l 0.6097,0.0542 c 1.829,0.0813 4.2271,-0.298 5.6361,-0.9484 3.0213,-1.409 4.8097,-3.7529 1.8291,-3.1432 z"
       stroke="#707070"
       stroke-width="1.68882"
       stroke-linecap="round"
       stroke-linejoin="round"
       id="path941" />
    <path
       d="m 29.7734,39.439 c -0.1896,6.7064 0.0407,13.4671 0.7046,15.1064 0.6503,1.6394 2.0593,4.8368 6.8961,3.7936 4.0374,-0.8671 5.5142,-2.5471 6.151,-6.2458 0.4742,-2.7233 1.3684,-10.2833 1.4903,-11.8278"
       stroke="#707070"
       stroke-width="1.68882"
       stroke-linecap="round"
       stroke-linejoin="round"
       id="path943" />
    <path
       d="m 23.9747,5.81183 c 0,0 -21.8807,-8.94195 -20.86457,11.39417 0.21678,4.322 6.20517,32.7465 13.34517,24.1568 2.6149,-3.1432 4.9723,-5.5954 4.9723,-5.5954"
       stroke="#707070"
       stroke-width="1.68882"
       stroke-linecap="round"
       stroke-linejoin="round"
       id="path945" />
    <path
       d="M 35.7889,4.17236 C 35.0302,4.41624 47.9554,-0.556031 55.3122,8.83302 57.9135,12.1524 54.9057,25.7008 47.698,36.3769"
       stroke="#707070"
       stroke-width="1.68882"
       stroke-linecap="round"
       stroke-linejoin="round"
       id="path947" />
    <path
       d="m 47.7115,36.3905 c 0,0 0.4742,2.3032 7.2891,0.9077 2.9806,-0.6232 1.1922,1.7342 -1.8426,3.1433 -2.4794,1.1516 -8.0613,1.4496 -8.1426,-0.1491 -0.2439,-4.1322 2.9264,-2.8722 2.6961,-3.9019 z m 0,0 C 47.5083,35.4556 46.0857,34.5479 45.1509,32.2853 44.338,30.3072 33.9328,15.1059 48.0367,17.355 48.5515,17.2466 44.3651,3.94204 31.1554,3.72527 17.9592,3.50849 18.3928,19.9563 18.3928,19.9563"
       stroke="#707070"
       stroke-width="1.68882"
       stroke-linecap="round"
       stroke-linejoin="bevel"
       id="path949" />
    <path
       d="m 26.0747,37.7859 c -1.8426,2.0593 -1.3006,2.4116 -4.9723,3.1703 -3.7258,0.7723 -1.5309,2.1271 -0.1083,2.4929 1.7341,0.4336 5.7309,1.0432 8.4406,-2.7368 0.8265,-1.1516 0,-2.9942 -1.1381,-3.4548 -0.5554,-0.2303 -1.2871,-0.5149 -2.2219,0.5284 z"
       stroke="#707070"
       stroke-width="1.68882"
       stroke-linecap="round"
       stroke-linejoin="round"
       id="path951" />
    <path
       d="m 25.9528,37.7587 c -0.1897,-1.2058 0.3929,-2.6419 1.0161,-4.3219 0.9348,-2.52 3.1026,-5.0536 1.3684,-13.0471 -1.2871,-5.9613 -9.9445,-1.2465 -9.9445,-0.4336 0,0.8129 0.3929,4.1052 -0.1491,7.9259 -0.7045,4.9993 3.1839,9.2264 7.6549,8.7929"
       stroke="#707070"
       stroke-width="1.68882"
       stroke-linecap="round"
       stroke-linejoin="round"
       id="path953" />
    <path
       d="m 23.8934,19.8208 c -0.0407,0.271 0.5013,1.0162 1.2193,1.111 0.7046,0.0948 1.3142,-0.4742 1.3549,-0.7587 0.0406,-0.271 -0.5013,-0.5826 -1.2194,-0.6774 -0.7045,-0.0949 -1.3142,0.0542 -1.3548,0.3251 z"
       fill="#707070"
       stroke="#707070"
       stroke-width="0.562936"
       id="path955" />
    <path
       d="m 45.4895,19.2517 c 0.0407,0.271 -0.5012,1.0162 -1.2193,1.111 -0.7045,0.0948 -1.3142,-0.4742 -1.3548,-0.7587 -0.0407,-0.271 0.5012,-0.5826 1.2193,-0.6774 0.7181,-0.0949 1.3142,0.0542 1.3548,0.3251 z"
       fill="#707070"
       stroke="#707070"
       stroke-width="0.281468"
       id="path957" />
    <path
       d="m 48.0367,17.3413 c 0.1219,2.1678 -0.4606,3.6445 -0.5419,5.9478 -0.1084,3.3464 1.5987,7.1942 -0.9755,11.0284"
       stroke="#707070"
       stroke-width="1.68882"
       stroke-linecap="round"
       stroke-linejoin="round"
       id="path959" />
  </g>
</svg>
