<svg width="121" height="121" viewBox="0 0 121 121" fill="none" xmlns="http://www.w3.org/2000/svg">
<g clip-path="url(#clip0)">
<path d="M49.1941 61.8751C49.1941 57.9362 48.0709 55.9137 45.8248 55.8031C44.9308 55.761 44.0577 55.9032 43.2088 56.2329C42.5313 56.4757 42.0751 56.7156 41.8352 56.9581V66.3605C43.2722 67.262 44.5483 67.6817 45.6611 67.6156C48.0155 67.4596 49.1941 65.5481 49.1941 61.8751ZM51.9654 62.0386C51.9654 64.0401 51.496 65.7011 50.5522 67.0221C49.5002 68.5175 48.0421 69.2871 46.1779 69.3294C44.7725 69.3741 43.3253 68.934 41.8354 68.0103V76.5562L39.4254 75.6966V56.7284C39.8208 56.2434 40.3299 55.827 40.9468 55.4736C42.3812 54.6379 44.1241 54.2081 46.1751 54.187L46.2093 54.2212C48.0842 54.1975 49.5289 54.9671 50.5441 56.5283C51.4909 57.9599 51.9654 59.7949 51.9654 62.0386Z" fill="#707070"/>
<path d="M66.6936 67.6474C66.6936 70.3312 66.4251 72.19 65.887 73.2241C65.3464 74.2572 64.3182 75.0825 62.7991 75.6968C61.5677 76.1818 60.2366 76.4458 58.8076 76.4902L58.4096 74.9721C59.8625 74.7743 60.8848 74.5767 61.4783 74.3784C62.6466 73.9834 63.4482 73.3768 63.8881 72.5642C64.2422 71.9029 64.4161 70.6396 64.4161 68.7705V68.1424C62.7678 68.8914 61.0413 69.2632 59.2348 69.2632C58.0483 69.2632 57.0016 68.8914 56.0997 68.1424C55.0876 67.3277 54.5815 66.2941 54.5815 65.0421V55.012L56.9913 54.1868V64.2823C56.9913 65.3606 57.3393 66.191 58.0352 66.7737C58.7316 67.3565 59.6333 67.6364 60.738 67.6151C61.8427 67.5908 63.0266 67.1642 64.2845 66.328V54.5504H66.6943V67.6474H66.6936Z" fill="#707070"/>
<path d="M76.1012 69.1975C75.8136 69.2214 75.55 69.2314 75.3073 69.2314C73.9444 69.2314 72.8816 68.9076 72.1221 68.2563C71.3658 67.6051 70.9863 66.7057 70.9863 65.5589V56.0667H69.3356V54.5506H70.9863V50.5245L73.3933 49.6675V54.5506H76.1012V56.0667H73.3933V65.4925C73.3933 66.3972 73.6358 67.0375 74.1207 67.4126C74.5372 67.7208 75.199 67.8971 76.1012 67.9425V69.1975Z" fill="#707070"/>
<path d="M90.6924 68.9996H88.2827V59.6972C88.2827 58.7509 88.0608 57.9362 87.6209 57.2559C87.112 56.4858 86.4051 56.1009 85.4985 56.1009C84.3936 56.1009 83.012 56.6837 81.3531 57.8489V68.9996H78.9434V46.7647L81.3531 46.0054V56.1327C82.8932 55.0122 84.5758 54.4507 86.4023 54.4507C87.6789 54.4507 88.7125 54.8805 89.5036 55.7373C90.2975 56.5941 90.6924 57.6621 90.6924 58.9382V68.9996Z" fill="#707070"/>
<path d="M103.501 61.4956C103.501 59.9822 103.214 58.7325 102.642 57.7438C101.962 56.539 100.904 55.9032 99.4748 55.8375C96.833 55.9907 95.5148 57.8834 95.5148 61.5113C95.5148 63.1751 95.7894 64.5651 96.3429 65.6803C97.0493 67.1016 98.1091 67.8026 99.5227 67.779C102.175 67.7577 103.501 65.6641 103.501 61.4956ZM106.141 61.511C106.141 63.6659 105.59 65.4586 104.49 66.8899C103.28 68.4934 101.609 69.2974 99.4748 69.2974C97.3606 69.2974 95.7127 68.4934 94.5238 66.8899C93.4451 65.4586 92.907 63.6659 92.907 61.511C92.907 59.4864 93.4897 57.7831 94.6554 56.3961C95.8869 54.9248 97.5055 54.1868 99.5068 54.1868C101.508 54.1868 103.137 54.9248 104.393 56.3961C105.558 57.7833 106.141 59.4866 106.141 61.511Z" fill="#707070"/>
<path d="M119.957 68.9997H117.547V59.1702C117.547 58.0918 117.222 57.2508 116.574 56.644C115.925 56.0402 115.06 55.7477 113.982 55.7713C112.838 55.7923 111.749 56.167 110.715 56.8919V68.9995H108.305V56.5937C109.692 55.584 110.969 54.9248 112.133 54.6166C113.233 54.3289 114.203 54.1868 115.039 54.1868C115.611 54.1868 116.149 54.242 116.655 54.3528C117.602 54.5717 118.372 54.9774 118.965 55.5735C119.627 56.2324 119.957 57.0235 119.957 57.9491V68.9997H119.957Z" fill="#707070"/>
<path d="M15.6234 46.8535C14.3835 46.8594 13.1994 46.9651 12.1573 47.1493C9.08836 47.6916 8.5311 48.8265 8.5311 50.9196V53.6839H15.7843V54.6053H8.5311H5.80914C3.70126 54.6053 1.85552 55.8722 1.27839 58.2825C0.6124 61.0451 0.582702 62.7695 1.27839 65.654C1.79402 67.8011 3.02498 69.3312 5.1331 69.3312H7.62682V66.0171C7.62682 63.6235 9.69799 61.5114 12.1576 61.5114H19.4021C21.4188 61.5114 23.0286 59.8511 23.0286 57.8258V50.9196C23.0286 48.9544 21.3704 47.4774 19.4021 47.1493C18.1562 46.9419 16.8632 46.8477 15.6234 46.8535ZM11.7011 49.0767C12.4503 49.0767 13.0621 49.6985 13.0621 50.4629C13.0621 51.2248 12.4501 51.841 11.7011 51.841C10.9491 51.841 10.3401 51.2248 10.3401 50.4629C10.3401 49.6985 10.9491 49.0767 11.7011 49.0767Z" fill="#707070"/>
<path d="M23.9329 54.6052V57.8257C23.9329 60.323 21.8161 62.4243 19.4021 62.4243H12.1576C10.1732 62.4243 8.53113 64.123 8.53113 66.1102V73.0168C8.53113 74.982 10.2403 76.1386 12.1576 76.7022C14.4535 77.3773 16.6549 77.4996 19.4021 76.7022C21.228 76.1737 23.0286 75.1095 23.0286 73.0168V70.2523H15.7841V69.3312H23.0284H26.6546C28.7627 69.3312 29.5484 67.861 30.2813 65.6539C31.0385 63.3817 31.0065 61.1966 30.2813 58.2824C29.7603 56.1841 28.7655 54.6052 26.6546 54.6052H23.9329ZM19.8586 72.0952C20.6104 72.0952 21.2196 72.7109 21.2196 73.4728C21.2196 74.2375 20.6104 74.8595 19.8586 74.8595C19.1094 74.8595 18.4976 74.2375 18.4976 73.4728C18.4976 72.7109 19.1096 72.0952 19.8586 72.0952Z" fill="#707070"/>
</g>
<defs>
<clipPath id="clip0">
<rect width="119.729" height="119.729" fill="white" transform="translate(0.767578 0.93042)"/>
</clipPath>
</defs>
</svg>
