<svg width="123" height="52" viewBox="0 0 123 52" fill="none" xmlns="http://www.w3.org/2000/svg">
<g clip-path="url(#clip0)">
<path d="M0.0909424 25.6879C0.0909424 29.9878 4.33773 34.0753 10.9733 36.3049C9.64622 42.9936 10.761 48.4082 14.3708 50.4785C18.1398 52.655 23.7137 51.1686 28.9691 46.4972C34.1183 50.9563 39.3737 52.7081 42.9835 50.5847C46.7525 48.4082 47.8673 42.6751 46.4871 35.774C53.4412 33.4914 57.3164 30.0409 57.3164 25.6348C57.3164 21.388 53.0696 17.7783 46.5402 15.4956C48.0266 8.32917 46.7525 3.02068 42.9835 0.844204C39.3206 -1.27919 34.0653 0.578782 28.8098 5.14408C23.3421 0.313358 18.1398 -1.17303 14.3177 1.00345C10.6548 3.12685 9.59313 8.59459 10.9733 15.4425C4.49699 17.7783 0.0909424 21.4942 0.0909424 25.6879Z" fill="white"/>
<path d="M45.1599 17.8321C44.629 17.6729 44.0982 17.4605 43.5142 17.3013C43.6204 16.9297 43.6735 16.5581 43.7796 16.1865C45.0006 10.1879 44.2043 5.3041 41.4439 3.71156C38.7897 2.1721 34.4367 3.76464 30.0838 7.58675C29.6591 7.95834 29.2344 8.32994 28.8097 8.75462C28.5443 8.4892 28.2789 8.22377 27.9604 7.95835C23.3951 3.87081 18.7767 2.1721 16.0163 3.76465C13.362 5.30411 12.5658 9.8694 13.6805 15.5495C13.7867 16.1334 13.8929 16.6643 14.0521 17.2482C13.4151 17.4075 12.7781 17.6198 12.1942 17.8321C6.83259 19.6901 3.38208 22.6628 3.38208 25.6887C3.38208 28.8207 7.09802 32.0058 12.6719 33.9168C13.1497 34.0761 13.5744 34.2354 14.0521 34.3415C13.8929 34.9255 13.7867 35.5625 13.6275 36.1464C12.5658 41.7734 13.4151 46.1794 16.0163 47.7189C18.7236 49.3114 23.342 47.6658 27.8011 43.7906C28.1727 43.4721 28.4912 43.1536 28.8628 42.8351C29.2875 43.2598 29.7652 43.6845 30.243 44.1091C34.5429 47.8251 38.8428 49.3115 41.497 47.8251C44.2043 46.2325 45.1068 41.4549 43.9389 35.6686C43.8327 35.244 43.7266 34.7662 43.6204 34.2884L44.5759 33.9699C50.4153 32.0589 54.1843 28.9269 54.1843 25.7418C54.1843 22.7159 50.6276 19.7432 45.1599 17.8321Z" fill="#707070"/>
<path d="M43.8858 31.9527C43.6204 32.0589 43.3019 32.112 43.0365 32.2182C42.3464 29.9886 41.4439 27.8652 40.4884 25.7949C41.4439 23.7246 42.2933 21.6012 42.9834 19.4247C43.5142 19.584 43.992 19.7432 44.4698 19.9025C49.1943 21.495 52.0609 23.9369 52.0609 25.7418C52.0078 27.7059 48.9289 30.254 43.8858 31.9527ZM41.8155 36.0934C42.2933 38.3229 42.3995 40.5525 42.081 42.7821C41.7624 44.4277 41.1785 45.4894 40.4353 45.9141C38.8428 46.8165 35.3923 45.6486 31.7294 42.4635C31.3047 42.0919 30.88 41.7203 30.4554 41.2957C31.9948 39.597 33.4281 37.7921 34.7022 35.881C37.0379 35.6687 39.3205 35.3502 41.6032 34.8193C41.6032 35.2971 41.7094 35.6687 41.8155 36.0934ZM20.6878 45.8079C19.1483 46.3387 17.8743 46.3918 17.1311 45.9671C15.5385 45.0647 14.8484 41.4549 15.7509 36.6773C15.857 36.0934 15.9632 35.5625 16.1225 34.9786C18.4051 35.4563 20.6878 35.7748 22.9704 35.9872C24.2975 37.8982 25.7839 39.7031 27.3234 41.4018C27.0049 41.7204 26.6863 41.9858 26.3678 42.3043C24.7222 43.7376 22.7581 44.9585 20.6878 45.8079ZM13.362 31.9527C11.1856 31.2626 9.22143 30.2009 7.41654 28.8207C6.14251 27.759 5.50549 26.6443 5.50549 25.7949C5.50549 23.9369 8.2659 21.6012 12.8843 19.9556C13.4682 19.7432 14.0522 19.584 14.6361 19.4247C15.3262 21.6012 16.1225 23.7777 17.1311 25.848C16.1755 27.9714 15.3262 30.1479 14.6361 32.3774C14.1583 32.2182 13.7336 32.0589 13.362 31.9527ZM15.804 15.1779C14.8484 10.2941 15.4854 6.63127 17.078 5.67574C18.7767 4.66713 22.5457 6.10041 26.5271 9.60401C26.7925 9.81635 27.0579 10.0818 27.2703 10.2941C25.7308 11.9928 24.2444 13.7977 22.9173 15.6557C20.6347 15.868 18.352 16.1865 16.1225 16.7174C16.0163 16.2396 15.9101 15.7088 15.804 15.1779ZM37.728 20.5926C37.2502 19.7432 36.7194 18.8939 36.1885 18.0445C37.8342 18.2568 39.3736 18.5223 40.8069 18.8408C40.3292 20.3272 39.7983 21.8135 39.1613 23.1937C38.7366 22.3444 38.2588 21.495 37.728 20.5926ZM28.8097 11.8867C29.8714 13.0545 30.88 14.2224 31.7825 15.4964C29.7653 15.3903 27.8011 15.3903 25.7839 15.4964C26.7394 14.2755 27.748 13.0545 28.8097 11.8867ZM19.7853 20.6457C19.3076 21.495 18.8298 22.3975 18.352 23.2999C17.7681 21.8666 17.1842 20.3802 16.7595 18.8939C18.2989 18.5754 19.8384 18.3099 21.3779 18.0976C20.7857 18.907 20.2534 19.7587 19.7853 20.6457ZM21.3779 33.5984C19.7853 33.4391 18.2459 33.1737 16.7064 32.8552C17.1842 31.3157 17.715 29.8293 18.352 28.343C18.8298 29.2454 19.3076 30.0948 19.7853 30.9972C20.3162 31.8997 20.847 32.749 21.3779 33.5984ZM28.8628 39.7562C27.8011 38.5883 26.7394 37.3674 25.7839 36.0934C26.7394 36.1464 27.748 36.1464 28.7567 36.1464C29.8184 36.1464 30.827 36.1464 31.8356 36.0934C30.88 37.3674 29.9245 38.5883 28.8628 39.7562ZM39.2144 28.2899C39.8514 29.7763 40.4353 31.2626 40.9131 32.749C39.3205 33.1206 37.7811 33.386 36.1885 33.5453C36.7194 32.6959 37.2502 31.8466 37.728 30.9441C38.2588 30.0948 38.7366 29.1923 39.2144 28.2899ZM35.87 29.8824C35.0738 31.2095 34.2775 32.5367 33.4281 33.8107C31.9417 33.9169 30.3492 33.97 28.7567 33.97C27.1641 33.97 25.6246 33.9169 24.1383 33.8107C23.2358 32.5367 22.4396 31.2095 21.6433 29.8824C20.847 28.5553 20.1569 27.1751 19.4668 25.7949C20.1569 24.4147 20.847 23.0345 21.6433 21.7074C22.4396 20.3802 23.2358 19.0531 24.0852 17.7791C27.1641 17.5667 30.243 17.5667 33.375 17.7791C34.2244 19.0531 35.0737 20.3802 35.8169 21.7074C36.6132 23.0345 37.3033 24.4147 37.9934 25.7949C37.3564 27.1751 36.6132 28.5553 35.87 29.8824ZM40.3292 5.62265C42.0279 6.63126 42.718 10.5595 41.6032 15.7619C41.5501 16.0804 41.4439 16.452 41.3908 16.7705C39.1613 16.2396 36.8786 15.9211 34.596 15.7088C33.2689 13.8508 31.8356 12.0459 30.2961 10.3472C30.6677 9.97561 31.0924 9.60401 31.464 9.2855C35.233 5.99424 38.7366 4.72021 40.3292 5.62265Z" fill="white"/>
<path d="M28.7568 21.2825C31.2518 21.2825 33.3221 23.2997 33.3221 25.8478C33.3221 28.3428 31.3049 30.4131 28.7568 30.4131C26.2618 30.4131 24.1915 28.3959 24.1915 25.8478C24.2446 23.2997 26.2618 21.2825 28.7568 21.2825ZM69.5791 25.9009H64.8545V32.8019H62.7311V15.5493H69.1013C72.4457 15.5493 74.8345 17.1419 74.8345 20.4331V21.0171C74.8345 23.3528 73.6135 24.8392 71.7556 25.4762L75.8431 32.8019H73.4543L69.5791 25.9009ZM68.9951 23.9898C71.1716 23.9898 72.7111 22.9812 72.7111 21.0171V20.4862C72.7111 18.469 71.1716 17.4604 68.9951 17.4604H64.8545V23.9898H68.9951ZM79.6121 27.865C79.6121 29.8291 80.8331 31.3686 82.9565 31.3686C84.7083 31.3686 85.77 30.4662 85.9292 29.139H87.9464C87.7341 31.4217 85.77 33.0673 83.0095 33.0673C79.7183 33.0673 77.648 30.9439 77.648 27.3872V26.591C77.648 23.0874 79.6652 20.9109 82.9565 20.9109C86.1415 20.9109 87.9995 22.9812 87.9995 26.3256V27.6527H79.6121V27.865ZM79.6121 25.8478V25.9539H85.9292V25.6885C85.9292 23.9898 85.0268 22.5565 82.9034 22.5565C81.2047 22.4504 79.7183 23.7775 79.6121 25.4762V25.8478ZM99.8374 25.6885V32.855H97.8202V31.634C96.8647 32.5896 95.5376 33.1204 94.1574 33.0673C92.034 33.0673 90.4414 31.8464 90.4414 29.6699C90.4414 27.1218 92.4586 26.1663 95.0598 26.1663C95.9622 26.1663 96.8647 26.2194 97.7671 26.3256V25.4231C97.7671 23.7244 97.0239 22.6096 95.3252 22.6096C93.945 22.5565 92.7772 23.5651 92.7241 24.9453V25.1577H90.7068C90.7068 23.0343 92.3525 20.964 95.2721 20.964C98.3511 20.8578 99.8374 22.6627 99.8374 25.6885ZM92.4586 29.5637C92.4586 30.7316 93.308 31.3686 94.7413 31.3686C95.9622 31.3155 97.077 30.7847 97.8733 29.8822V27.9712C97.0239 27.865 96.1215 27.8119 95.2721 27.8119C93.5203 27.7588 92.4586 28.3428 92.4586 29.5637ZM113.321 25.4231H111.463C111.41 23.8306 110.083 22.5565 108.49 22.5565H108.384C106.208 22.5565 104.987 24.096 104.987 26.4848V27.4403C104.987 29.8292 106.208 31.3686 108.384 31.3686C109.924 31.4748 111.304 30.3069 111.41 28.7675V28.7144H113.321C113.056 31.4217 111.038 33.0673 108.384 33.0673C105.093 33.0673 102.969 31.0501 102.969 27.3872V26.591C102.969 22.9281 105.093 20.9109 108.384 20.9109C111.145 20.8578 113.162 22.6096 113.321 25.4231ZM122.292 32.7488C121.549 33.0142 120.806 33.1204 120.01 33.0673C117.992 33.0673 116.665 31.8995 116.665 29.4045V22.7689H114.542V21.0702H116.665V16.9826H118.683V21.0702H122.133V22.7689H118.683L118.629 29.0329C118.629 30.6785 119.373 31.2093 120.594 31.2093C121.124 31.2093 121.708 31.1032 122.186 30.8909L122.292 32.7488Z" fill="#707070"/>
</g>
<defs>
<clipPath id="clip0">
<rect width="122.254" height="51.4923" fill="white" transform="translate(0.0909424 0.048584)"/>
</clipPath>
</defs>
</svg>
