<svg width="123" height="59" viewBox="0 0 123 59" fill="none" xmlns="http://www.w3.org/2000/svg">
<g clip-path="url(#clip0)">
<path d="M45.1399 20.4224V12.6579C45.1399 12.2917 45.2864 12.0719 45.5794 11.8522L58.9841 4.16098C59.3503 3.94123 59.6433 3.94123 60.0096 4.16098C61.3281 4.89348 62.7198 5.62597 64.0383 6.43172C64.4046 6.65147 64.6976 6.65147 65.0638 6.43172C66.8218 5.40622 68.5798 4.45398 70.2645 3.42848C70.6308 3.20873 70.8505 3.20873 71.2168 3.42848C73.8538 4.96673 76.4175 6.43172 79.0545 7.96996C79.4208 8.18971 79.5673 8.40946 79.5673 8.77571V17.9319C79.5673 18.3714 79.4208 18.5179 79.0545 18.7377C77.443 19.6899 75.7583 20.6422 74.1468 21.5212C73.8538 21.6677 73.7073 21.8874 73.7073 22.2536V28.3334C73.7073 28.6996 73.634 28.8461 73.2678 29.0659C68.7263 31.6296 64.2581 34.2666 59.7166 36.9036C59.4236 37.0501 59.2038 37.0501 58.9108 36.9036C54.5891 34.1933 50.0476 31.6296 45.5794 28.9926C45.2132 28.7729 45.1399 28.5531 45.1399 28.1869V20.4224ZM46.6049 13.9032V27.4544C46.6049 27.8206 46.8247 27.9671 47.0444 28.1136L55.8344 33.1678C56.7866 33.6806 57.6656 34.2666 58.6911 34.7793C58.6911 34.6328 58.7643 34.6328 58.7643 34.5596V21.2282C58.7643 21.0084 58.6178 20.7887 58.3981 20.6422C57.4459 20.0562 56.4936 19.5434 55.5414 18.9574C52.6114 17.3459 49.6814 15.6612 46.6049 13.9032ZM64.7708 16.5402L57.9586 12.5847C59.1306 11.9254 60.2293 11.2662 61.3281 10.6802C61.8408 10.4605 62.0606 10.1675 61.9873 9.58146C61.8408 8.70246 61.9873 7.96996 62.9396 7.60371L63.0128 7.53047L59.9363 5.77247C59.6433 5.62597 59.4236 5.62597 59.1306 5.77247C55.3949 7.96996 51.6591 10.0942 47.9234 12.2917C47.7769 12.3649 47.6304 12.4382 47.4839 12.5847C51.4394 14.8554 55.3949 17.1262 59.2771 19.3969C59.4236 19.4702 59.6433 19.4702 59.7166 19.3969C61.3281 18.5179 63.0128 17.4924 64.7708 16.5402ZM72.3155 22.6199C70.0448 23.9384 67.8473 25.1836 65.5033 26.5021V17.8587C65.2836 18.0052 65.1371 18.0052 64.9906 18.0784C63.5256 18.9574 62.0606 19.7632 60.5956 20.6422C60.2293 20.8619 60.1561 21.0084 60.1561 21.3747V34.2666C60.1561 34.4131 60.1561 34.5596 60.2293 34.7793C64.1848 32.5086 68.1403 30.2379 72.0225 27.9671C72.169 27.8939 72.2423 27.7474 72.2423 27.6009C72.3155 25.9894 72.3155 24.3779 72.3155 22.6199ZM64.4778 8.70246C66.6021 9.87445 68.5798 11.0464 70.5575 12.2184C70.704 12.2917 70.9238 12.2917 70.997 12.2184C72.9748 11.0464 74.9525 9.9477 77.0035 8.70246C76.7838 8.55596 76.6373 8.48271 76.4908 8.40946C75.1723 7.67696 73.927 6.94447 72.6085 6.21197C71.9493 5.84572 71.3633 5.25973 70.704 5.25973C70.0448 5.25973 69.3855 5.84572 68.7263 6.21197C67.4078 7.01772 66.0161 7.82346 64.4778 8.70246ZM71.6563 21.0084H71.8028C73.7805 19.9097 75.7583 18.7377 77.6628 17.6389C77.8093 17.5657 77.8825 17.2727 77.8825 17.0529V10.2407H77.736C75.7583 11.3394 73.7805 12.5114 71.876 13.6102C71.7295 13.6834 71.6563 13.9032 71.6563 14.0497C71.583 16.3937 71.6563 18.6644 71.6563 21.0084ZM69.8983 21.0817V14.0497C69.8983 13.9032 69.6785 13.6834 69.532 13.6102C68.5798 13.0242 67.6276 12.5114 66.6753 11.9254C65.6498 11.3394 64.6976 10.7534 63.5988 10.1675V13.9032C63.5988 14.0497 63.8186 14.1962 63.8918 14.2694L66.5288 15.8077C66.8218 15.9542 66.8951 16.1739 66.8951 16.4669V18.8842C66.8951 19.1039 67.0416 19.3237 67.1881 19.3969C68.1403 19.9829 68.946 20.4957 69.8983 21.0817ZM69.2391 22.6199L67.0416 21.3014V23.9384C67.7741 23.4256 68.5066 23.0594 69.2391 22.6199ZM60.9618 12.5847C61.3281 12.8044 61.6211 12.9509 61.9141 13.0974V12.0719C61.6211 12.2184 61.3281 12.3649 60.9618 12.5847ZM120.148 41.6648L114.068 47.9643C116.119 50.6745 118.17 53.3115 120.294 56.095C119.488 56.095 118.756 56.0217 118.023 56.095C116.851 56.2415 116.119 55.802 115.533 54.8497C114.507 53.3848 113.409 51.9198 112.31 50.528C112.237 50.3815 112.09 50.235 112.017 50.1618C111.431 50.6745 110.918 51.1873 110.405 51.7733C110.259 51.9198 110.186 52.2128 110.186 52.3593V56.0217H107.109V41.6648H110.112V47.9643C110.332 47.7445 110.479 47.6713 110.625 47.5248C112.383 45.6935 114.141 43.789 115.899 41.9578C116.119 41.6648 116.412 41.5916 116.778 41.5916C117.877 41.7381 118.902 41.6648 120.148 41.6648ZM53.6369 53.8243C54.2229 53.0918 54.8821 52.3593 55.4681 51.7C56.2006 52.1395 56.8599 52.6523 57.5191 53.0185C58.4714 53.5312 59.4968 53.6778 60.5223 53.458C60.9618 53.3848 61.4746 53.0918 61.7676 52.7988C62.2803 52.286 61.9873 51.3338 61.2548 51.0408C60.3758 50.6745 59.4236 50.4548 58.5446 50.1618C57.9586 49.942 57.2994 49.7955 56.7134 49.5025C55.1751 48.8433 54.2961 47.6713 54.2961 45.9865C54.2961 44.3018 54.9554 42.9101 56.4936 42.1776C58.7643 41.0788 61.0351 41.3718 63.2326 42.4706C63.7453 42.7635 64.2581 43.1298 64.7708 43.496C64.1848 44.3018 63.6721 45.1075 63.0861 45.84C62.5001 45.4738 61.9873 45.1075 61.4013 44.8878C60.4491 44.4483 59.4968 44.2285 58.4713 44.4483C57.8121 44.5948 57.3726 45.0343 57.3726 45.547C57.2994 46.2063 57.6656 46.5725 58.2516 46.7923C58.9841 47.0853 59.7898 47.2318 60.5223 47.5248C61.2548 47.7445 61.9873 47.9643 62.7198 48.2573C64.1116 48.8433 64.9173 49.8688 64.9906 51.4803C65.0638 53.2383 64.4778 54.63 62.9396 55.5822C61.8408 56.2415 60.5956 56.388 59.3503 56.3147C57.2261 56.2415 55.3949 55.4357 53.8566 54.044L53.6369 53.8243ZM86.0865 50.1618C85.7935 50.9675 85.5005 51.7 85.2807 52.4325C85.2075 52.7255 85.061 52.872 84.6947 52.7988H81.6915C81.3252 52.7988 81.1787 52.872 81.0322 53.2383C80.7393 54.044 80.2998 54.8497 80.0068 55.7287C79.8603 56.0217 79.7138 56.1682 79.3475 56.1682H76.564C76.6373 55.9485 76.7105 55.802 76.7838 55.6555C78.7615 51.1873 80.7392 46.6458 82.6437 42.1776C82.7902 41.8113 83.01 41.5916 83.4495 41.6648C84.0355 41.7381 84.6215 41.6648 85.2075 41.6648C85.354 41.6648 85.647 41.8113 85.7202 41.9578C87.7712 46.5725 89.8222 51.2605 91.7999 55.8752C91.7999 55.9485 91.7999 55.9485 91.8732 56.095H88.87C88.7235 56.095 88.577 55.8752 88.5037 55.7287C87.7712 54.1172 87.112 52.5058 86.4527 50.8943C86.3062 50.6745 86.233 50.4548 86.0865 50.1618ZM86.0132 49.942C85.4272 48.477 84.8412 47.1585 84.182 45.6935C83.5227 47.1585 82.9367 48.5503 82.3507 49.942H86.0132ZM105.278 43.9355C104.619 44.668 103.959 45.4005 103.3 46.2063C101.982 44.8878 100.443 44.0088 98.5389 44.4483C97.5867 44.668 96.7809 45.1808 96.1949 45.9133C94.8032 47.7445 94.9497 50.6013 96.4879 52.1395C97.5134 53.165 98.6854 53.5312 100.077 53.3848C101.469 53.2383 102.421 52.4325 103.373 51.5535C104.033 52.2128 104.692 52.872 105.424 53.5313C103.154 56.681 97.8797 57.267 94.8032 54.7032C91.4337 51.993 91.1407 46.8655 94.0707 43.6425C96.7809 40.7126 102.348 40.6393 105.278 43.9355ZM30.1237 56.095H27.9995C27.853 56.095 27.6332 55.8752 27.56 55.7287C26.8275 54.1172 26.095 52.5058 25.2893 50.7478C25.0695 51.2605 24.923 51.6268 24.7765 51.993C24.63 52.4325 24.4103 52.5058 23.9708 52.5058H19.5758C19.1363 52.5058 18.9165 52.579 18.77 53.0185C18.4038 53.9707 17.9643 54.8497 17.5248 55.802C17.4515 55.9485 17.1585 56.1682 17.012 56.1682C16.426 56.2415 15.7668 56.1682 15.1075 56.1682C15.1808 56.0217 15.1808 55.8752 15.254 55.7287C17.305 51.1873 19.356 46.6458 21.407 42.0311C21.5535 41.7381 21.7 41.5916 22.0663 41.5916C23.5313 41.5916 23.5313 41.5916 24.1173 42.9101C26.0217 47.0853 27.9262 51.2605 29.7575 55.4357C29.904 55.6555 29.9772 55.8752 30.1237 56.095ZM22.579 44.5948C21.7 46.5725 20.821 48.477 20.0153 50.3815H25.1428C24.2638 48.4038 23.458 46.5725 22.579 44.5948ZM13.9356 43.496C13.4961 44.082 13.0566 44.5948 12.6903 45.1808C12.0311 44.8145 11.5183 44.375 10.8591 44.082C9.76032 43.5693 8.58833 43.4228 7.41633 43.789C6.68384 44.0088 6.09784 44.5215 6.02459 45.3273C5.95134 46.2063 6.31759 46.7923 7.19659 47.1585C8.00233 47.4515 8.80808 47.6713 9.61382 47.891C10.3463 48.1108 11.1521 48.3305 11.8846 48.6235C13.4228 49.2828 14.3018 50.4548 14.2286 52.1395C14.1553 53.8975 13.3496 55.216 11.6648 55.8752C9.10108 56.9007 6.68384 56.388 4.4131 54.923C3.9736 54.63 3.5341 54.2637 3.0946 53.8975C3.60735 53.3115 4.04685 52.7988 4.4131 52.286C5.21884 52.7988 5.95134 53.3848 6.68384 53.751C7.78258 54.337 8.95458 54.4835 10.1266 54.1905C10.5661 54.1173 11.0056 53.8975 11.3718 53.6045C12.3241 52.7988 12.1776 51.3338 11.0788 50.821C10.3463 50.4548 9.46733 50.235 8.66158 50.0153C7.70933 49.7223 6.75709 49.5025 5.87809 49.063C3.0946 47.8178 3.2411 44.0088 5.36534 42.5438C7.05009 41.3718 8.88133 41.3718 10.7858 41.8113C11.9578 42.0311 12.9833 42.6903 13.9356 43.496ZM73.4875 56.095H70.3378V44.5948H66.0161V41.7381H77.8093V44.5948H73.5608C73.4875 48.477 73.4875 52.2128 73.4875 56.095ZM47.9966 43.789V56.095H45.7992V43.789H41.1844V41.7381H52.6114V43.789H47.9966ZM32.0282 41.7381H34.1525V54.044H41.9169V56.095H32.0282V41.7381Z" fill="#707070"/>
</g>
<defs>
<clipPath id="clip0">
<rect width="121.792" height="57.7867" fill="white" transform="translate(0.750488 0.901367)"/>
</clipPath>
</defs>
</svg>
