<svg width="149" height="149" viewBox="0 0 149 149" fill="none" xmlns="http://www.w3.org/2000/svg">
<path d="M74.25 111.875C95.3939 103.116 103.631 83.7702 103.631 50.0097C89.9411 50.0097 78.3686 46.4132 74.25 37.625C70.1315 46.3842 58.5299 50.0097 44.869 50.0097C44.869 83.7702 53.1062 103.116 74.25 111.875Z" fill="#AEDAD9"/>
<path d="M74.25 86.7576C81.0899 86.7576 86.6347 81.2128 86.6347 74.3729C86.6347 67.5331 81.0899 61.9883 74.25 61.9883C67.4101 61.9883 61.8653 67.5331 61.8653 74.3729C61.8653 81.2128 67.4101 86.7576 74.25 86.7576Z" fill="white"/>
<path d="M72.7128 79.6517L68.5072 75.4461L70.7115 73.2708L72.7128 75.2721L77.7885 70.1674L79.9928 72.3717L72.7128 79.6517Z" fill="#AEDAD9"/>
<path d="M74.25 47.6024C79.5867 52.272 87.4758 55.1144 97.3661 55.9265C96.496 82.8131 89.4771 97.6921 74.25 105.088C59.023 97.6921 52.004 82.8131 51.1339 55.9265C61.0242 55.1144 68.9133 52.272 74.25 47.6024ZM74.25 43.2228C69.1453 49.1106 60.0671 52.533 47.9725 53.0261C48.4655 83.7702 56.4126 100.535 74.25 108.511C92.0874 100.564 100.034 83.7992 100.528 53.0261C88.4329 52.533 79.3547 49.1396 74.25 43.2228Z" fill="#232323"/>
</svg>
