<svg width="212" height="212" viewBox="0 0 212 212" fill="none" xmlns="http://www.w3.org/2000/svg">
<path d="M158.875 57.2949H53.125V70.5137H158.875V57.2949Z" fill="#232323"/>
<path d="M158.875 70.5137H53.125V154.246H158.875V70.5137Z" fill="#E6EBE0"/>
<path d="M61.9649 61.6737H57.5449V66.0937H61.9649V61.6737Z" fill="#E6EBE0"/>
<path d="M154.455 61.6737H66.3438V66.0937H154.455V61.6737Z" fill="#E6EBE0"/>
<path d="M114.84 74.8925H97.2012V79.3125H114.84V74.8925Z" fill="#232323"/>
<path d="M136.816 110.17H75.1425V114.59H136.816V110.17Z" fill="#232323"/>
<path d="M136.816 83.7324H75.1425V105.75H136.816V83.7324Z" fill="#AEDAD9"/>
<path d="M92.7812 118.969H75.1425V127.767H92.7812V118.969Z" fill="#AEDAD9"/>
<path d="M114.84 118.969H97.2012V127.767H114.84V118.969Z" fill="#AEDAD9"/>
<path d="M136.858 118.969H119.219V127.767H136.858V118.969Z" fill="#AEDAD9"/>
<path d="M143.921 101.454L140.782 98.3557L143.632 95.5054L140.782 92.6551L143.921 89.5156L149.87 95.5054L143.921 101.454Z" fill="#232323"/>
<path d="M68.0787 99.9256L62.1302 93.9771L68.0787 88.0287L71.2181 91.1268L68.3678 93.9771L71.2181 96.8274L68.0787 99.9256Z" fill="#232323"/>
<path d="M92.7812 132.188H75.1425V136.608H92.7812V132.188Z" fill="#232323"/>
<path d="M92.7812 140.986H75.1425V145.406H92.7812V140.986Z" fill="#232323"/>
<path d="M114.84 132.188H97.2012V136.608H114.84V132.188Z" fill="#232323"/>
<path d="M114.84 140.986H97.2012V145.406H114.84V140.986Z" fill="#232323"/>
<path d="M136.858 132.188H119.219V136.608H136.858V132.188Z" fill="#232323"/>
<path d="M136.858 140.986H119.219V145.406H136.858V140.986Z" fill="#232323"/>
</svg>
