<svg width="149" height="149" viewBox="0 0 149 149" fill="none" xmlns="http://www.w3.org/2000/svg">
<path d="M111.375 40.2284H37.125V49.5096H111.375V40.2284Z" fill="#232323"/>
<path d="M111.375 49.5096H37.125V108.301H111.375V49.5096Z" fill="white"/>
<path d="M43.3318 43.3028H40.2284V46.4062H43.3318V43.3028Z" fill="white"/>
<path d="M108.272 43.3028H46.4063V46.4062H108.272V43.3028Z" fill="white"/>
<path d="M80.4568 52.5841H68.0722V55.6875H80.4568V52.5841Z" fill="#232323"/>
<path d="M95.887 77.3534H52.5841V80.4568H95.887V77.3534Z" fill="#232323"/>
<path d="M95.887 58.7909H52.5841V74.25H95.887V58.7909Z" fill="#AEDAD9"/>
<path d="M64.9688 83.5312H52.5841V89.7091H64.9688V83.5312Z" fill="#AEDAD9"/>
<path d="M80.4568 83.5312H68.0722V89.7091H80.4568V83.5312Z" fill="#AEDAD9"/>
<path d="M95.916 83.5312H83.5313V89.7091H95.916V83.5312Z" fill="#AEDAD9"/>
<path d="M100.876 71.2336L98.6713 69.0583L100.673 67.057L98.6713 65.0557L100.876 62.8514L105.052 67.057L100.876 71.2336Z" fill="#232323"/>
<path d="M47.6245 70.1604L43.4479 65.9839L47.6245 61.8073L49.8288 63.9826L47.8275 65.9839L49.8288 67.9851L47.6245 70.1604Z" fill="#232323"/>
<path d="M64.9688 92.8125H52.5841V95.9159H64.9688V92.8125Z" fill="#232323"/>
<path d="M64.9688 98.9904H52.5841V102.094H64.9688V98.9904Z" fill="#232323"/>
<path d="M80.4568 92.8125H68.0722V95.9159H80.4568V92.8125Z" fill="#232323"/>
<path d="M80.4568 98.9904H68.0722V102.094H80.4568V98.9904Z" fill="#232323"/>
<path d="M95.916 92.8125H83.5313V95.9159H95.916V92.8125Z" fill="#232323"/>
<path d="M95.916 98.9904H83.5313V102.094H95.916V98.9904Z" fill="#232323"/>
</svg>
