<svg width="134" height="134" viewBox="0 0 134 134" fill="none" xmlns="http://www.w3.org/2000/svg">
<path d="M58.625 100.5H47.4496V44.6754L53.0504 33.5L58.625 44.6754V100.5Z" fill="#9BC1BC"/>
<path d="M30.6996 33.5H41.875V89.3246L36.3004 100.5L30.6996 89.3246V33.5Z" fill="#9BC1BC"/>
<path d="M29.3125 61.4254H26.5121V36.3004H30.6996V39.0746H29.3125V61.4254Z" fill="#232323"/>
<path d="M58.625 44.6754H47.4496V47.4758H58.625V44.6754Z" fill="#232323"/>
<path d="M58.625 92.125H47.4496V94.9254H58.625V92.125Z" fill="#232323"/>
<path d="M54.4375 46.0625H51.6371V93.5121H54.4375V46.0625Z" fill="#232323"/>
<path d="M58.625 46.0625H55.8246V93.5121H58.625V46.0625Z" fill="#232323"/>
<path d="M50.25 46.0625H47.4496V93.5121H50.25V46.0625Z" fill="#232323"/>
<path d="M41.875 86.5504H30.6996V89.3508H41.875V86.5504Z" fill="#232323"/>
<path d="M41.875 58.625H30.6996V61.4254H41.875V58.625Z" fill="#232323"/>
<path d="M103.3 33.5H86.5504V100.5H103.3V33.5Z" fill="#9BC1BC"/>
<path d="M103.274 94.9254H97.6996V97.7258H103.274V94.9254Z" fill="#232323"/>
<path d="M103.274 89.3246H97.6996V92.125H103.274V89.3246Z" fill="#232323"/>
<path d="M103.274 83.75H97.6996V86.5504H103.274V83.75Z" fill="#232323"/>
<path d="M103.274 78.1754H97.6996V80.9758H103.274V78.1754Z" fill="#232323"/>
<path d="M103.274 72.5746H97.6996V75.375H103.274V72.5746Z" fill="#232323"/>
<path d="M103.274 67H97.6996V69.8004H103.274V67Z" fill="#232323"/>
<path d="M103.274 61.4254H97.6996V64.2258H103.274V61.4254Z" fill="#232323"/>
<path d="M103.274 55.8246H97.6996V58.625H103.274V55.8246Z" fill="#232323"/>
<path d="M103.274 50.25H97.6996V53.0504H103.274V50.25Z" fill="#232323"/>
<path d="M103.274 44.6754H97.6996V47.4758H103.274V44.6754Z" fill="#232323"/>
<path d="M103.274 39.0746H97.6996V41.875H103.274V39.0746Z" fill="#232323"/>
<path d="M103.274 33.5H97.6996V36.3004H103.274V33.5Z" fill="#232323"/>
<path d="M72.5746 86.5504C75.6629 86.5504 78.1492 89.0629 78.1492 92.125C78.1492 95.2133 75.6367 97.6996 72.5746 97.6996C69.4863 97.6996 67 95.1871 67 92.125C67 89.0367 69.5125 86.5504 72.5746 86.5504ZM72.5746 83.75C67.9422 83.75 64.1996 87.4926 64.1996 92.125C64.1996 96.7574 67.9422 100.5 72.5746 100.5C77.207 100.5 80.9496 96.7574 80.9496 92.125C80.9496 87.4926 77.207 83.75 72.5746 83.75Z" fill="#232323"/>
<path d="M78.1754 47.4496V58.625H67V47.4496H78.1754ZM80.9496 44.6754H64.1996V61.4254H80.9496V44.6754Z" fill="#232323"/>
<path d="M72.5746 31.3801L76.4219 39.1008H68.7012L72.5746 31.3801ZM72.5746 25.125L64.1996 41.875H80.9496L72.5746 25.125Z" fill="#232323"/>
<path d="M67 78.1754H64.1996V80.9758H67V78.1754Z" fill="#232323"/>
<path d="M67 64.1996H64.1996V67H67V64.1996Z" fill="#232323"/>
<path d="M80.9758 64.1996H78.1754V67H80.9758V64.1996Z" fill="#232323"/>
<path d="M80.9758 78.1754H78.1754V80.9758H80.9758V78.1754Z" fill="#232323"/>
<path d="M73.9879 78.1754H71.1875V80.9758H73.9879V78.1754Z" fill="#232323"/>
<path d="M80.9758 71.1875H78.1754V73.9879H80.9758V71.1875Z" fill="#232323"/>
<path d="M73.9879 64.1996H71.1875V67H73.9879V64.1996Z" fill="#232323"/>
<path d="M67 71.1875H64.1996V73.9879H67V71.1875Z" fill="#232323"/>
</svg>
