<svg width="152" height="42" viewBox="0 0 152 42" fill="none" xmlns="http://www.w3.org/2000/svg">
<path d="M50.6474 29.8061C49.2184 29.8353 47.8478 29.4562 46.6522 28.6688C45.544 27.9397 44.7274 26.8315 44.3192 25.5775L46.7396 24.6735C47.0896 25.4609 47.6145 26.1316 48.3144 26.5982C49.0143 27.0648 49.86 27.3273 50.7349 27.2981C51.5514 27.3273 52.368 27.094 53.0387 26.5982C53.622 26.1025 53.9428 25.3734 53.8844 24.6152C53.8844 24.2652 53.797 23.9153 53.6511 23.6237C53.5053 23.332 53.3304 23.0987 53.1262 22.8654C52.8638 22.603 52.543 22.3988 52.193 22.253C51.7847 22.0489 51.4348 21.9031 51.1723 21.7864C50.9099 21.6698 50.5016 21.524 49.9767 21.349C49.3059 21.1157 48.8102 20.9407 48.4894 20.7949C48.052 20.5908 47.6145 20.3866 47.1771 20.1533C46.7105 19.92 46.3022 19.5992 45.9523 19.2201C45.6606 18.8702 45.3982 18.4619 45.2232 17.9953C44.5233 16.2747 44.9899 14.3208 46.3897 13.096C47.3812 12.2211 48.7227 11.7837 50.4433 11.7837C51.8722 11.7837 53.0387 12.1045 53.9719 12.7169C54.876 13.3001 55.5175 14.2042 55.8383 15.2249L53.447 16.0123C53.2137 15.4582 52.8054 15.0207 52.2805 14.7291C51.6681 14.3792 50.9682 14.2333 50.2683 14.2625C49.5684 14.2333 48.8977 14.4083 48.3144 14.8166C47.8478 15.1957 47.5854 15.7498 47.6145 16.3622C47.6145 16.8288 47.8186 17.2662 48.1686 17.5579C48.4894 17.8786 48.8977 18.1411 49.3059 18.3161C49.7142 18.4911 50.2975 18.6952 51.114 18.9868C51.6098 19.1618 51.9889 19.3076 52.2222 19.3951C52.4555 19.4826 52.8054 19.6284 53.272 19.8617C53.6511 20.0367 54.0011 20.2116 54.351 20.4449C54.6427 20.6782 54.9343 20.9115 55.2259 21.1448C55.5175 21.4073 55.78 21.6989 55.9841 22.0489C56.1883 22.3988 56.3341 22.7779 56.4216 23.1571C56.5382 23.6237 56.6257 24.0903 56.5966 24.5569C56.5966 26.19 56.0425 27.4439 54.9343 28.3771C53.8261 29.3103 52.368 29.8061 50.6474 29.8061ZM66.5701 29.5145L60.621 12.1045H63.3914L67.3575 24.2361C67.5616 24.8776 67.7658 25.5484 67.9116 26.2191C68.0574 25.5484 68.2324 24.8776 68.4657 24.2361L72.3735 12.1045H75.1439L69.1947 29.4853L66.5701 29.5145ZM80.364 29.5145V12.1045H91.1541V14.5541H82.9594V19.3368H88.2378V21.7864H82.9594V27.0648H91.7082V29.4853L80.364 29.5145ZM98.2697 29.5145V12.1045H100.865V27.0065H109.351V29.4853L98.2697 29.5145ZM119.092 14.6125V29.5145H116.496V14.6125H111.568V12.1336H124.02V14.6125H119.092ZM129.386 29.5145V12.1045H140.176V14.5541H131.982V19.3368H137.26V21.7864H131.982V27.0648H140.73V29.4853L129.386 29.5145Z" fill="#707070"/>
<path d="M32.5083 8.80907C29.4754 4.46386 23.4971 3.18071 19.1519 5.95115L11.5697 10.7921C9.49914 12.1044 8.07018 14.2041 7.63275 16.6246C7.2828 18.6368 7.57442 20.7074 8.53678 22.5154C7.89521 23.507 7.42861 24.6151 7.22447 25.7816C6.78703 28.2313 7.37028 30.7684 8.82841 32.8098C11.8613 37.155 17.8396 38.4381 22.1848 35.6677L29.7962 30.8267C31.8668 29.5144 33.2957 27.4147 33.7332 24.9942C34.0831 22.982 33.7623 20.9115 32.8291 19.1034C33.4707 18.1119 33.9373 17.0037 34.1414 15.8372C34.5497 13.3876 33.9665 10.8796 32.5083 8.80907Z" fill="#707070"/>
<path d="M18.4229 33.2472C15.9733 33.8887 13.3778 32.9264 11.9489 30.8558C11.074 29.631 10.724 28.1146 10.9865 26.6273C11.0157 26.394 11.1031 26.1607 11.1615 25.9274L11.3073 25.4899L11.6864 25.7816C12.5904 26.4231 13.5819 26.9481 14.661 27.2689L14.9526 27.3563L14.9234 27.648C14.8943 28.0562 15.0109 28.4354 15.2442 28.7561C15.6816 29.3686 16.469 29.6602 17.1981 29.4852C17.3731 29.4269 17.5189 29.3686 17.6647 29.2811L25.2469 24.4401C25.6261 24.2068 25.8885 23.8277 25.9468 23.3903C26.0343 22.9528 25.9177 22.4862 25.6552 22.1071C25.2178 21.4947 24.4304 21.2031 23.7013 21.378C23.5264 21.4364 23.3805 21.4947 23.2347 21.5822L20.3185 23.4194C19.8519 23.711 19.327 23.9443 18.7729 24.0901C16.3232 24.7317 13.7278 23.7694 12.2988 21.6988C11.4239 20.474 11.074 18.9576 11.3656 17.4703C11.6281 16.0121 12.4738 14.729 13.7278 13.9416L21.3683 9.07147C21.8349 8.77985 22.3599 8.54655 22.9139 8.40074C25.3636 7.75916 27.9591 8.72152 29.388 10.7921C30.2629 12.0169 30.6128 13.5333 30.3504 15.0206C30.2921 15.2539 30.2337 15.4872 30.1754 15.7205L30.0296 16.158L29.6505 15.8663C28.7464 15.1956 27.7549 14.6998 26.6759 14.379L26.3843 14.2916L26.4134 13.9999C26.4426 13.5917 26.326 13.1834 26.0927 12.8626C25.6552 12.2502 24.8678 11.9586 24.1388 12.1627C23.9638 12.221 23.818 12.2793 23.6722 12.3668L16.0608 17.237C15.6816 17.4703 15.4192 17.8494 15.3317 18.2868C15.2442 18.7243 15.3609 19.1909 15.6233 19.57C16.0608 20.1824 16.819 20.474 17.5772 20.299C17.7522 20.2407 17.898 20.1824 18.0438 20.0949L20.9601 18.2577C21.4267 17.966 21.9516 17.7327 22.5057 17.5869C24.9553 16.9453 27.5508 17.9077 28.9797 19.9782C29.8546 21.2031 30.2046 22.7195 29.9421 24.2068C29.6796 25.6649 28.8339 26.9481 27.5799 27.7355L19.9685 32.5764C19.5019 32.8681 18.977 33.1014 18.4229 33.2472Z" fill="white"/>
</svg>
