<svg width="149" height="149" viewBox="0 0 149 149" fill="none" xmlns="http://www.w3.org/2000/svg">
<path d="M71.1466 55.6875H46.4063V111.375H71.1466V55.6875Z" fill="#AEDAD9"/>
<path d="M68.0722 40.2284H49.5097L47.9435 55.6875H69.6094L68.0722 40.2284Z" fill="#AEDAD9"/>
<path d="M71.1466 55.6875H46.4063V58.7909H71.1466V55.6875Z" fill="#232323"/>
<path d="M71.1466 102.094H46.4063V105.197H71.1466V102.094Z" fill="#232323"/>
<path d="M64.9688 37.125H52.5841V40.2284H64.9688V37.125Z" fill="#232323"/>
<path d="M98.9904 74.511H74.25V111.636H98.9904V74.511Z" fill="#AEDAD9"/>
<path d="M108.272 103.892H98.9904V100.789H105.197V85.3295H98.9904V82.2261H108.272V103.892Z" fill="#232323"/>
<path d="M80.1088 71.4656C77.0924 68.4492 77.0924 63.5475 80.1088 60.5311L82.2841 62.7064C80.4859 64.5047 80.4859 67.4631 82.2841 69.2613L80.1088 71.4656Z" fill="#232323"/>
<path d="M86.8087 65.2878L84.6334 63.1125C86.4317 61.3143 86.4317 58.3559 84.6334 56.5576L86.8087 54.3823C89.8251 57.3697 89.8251 62.2714 86.8087 65.2878Z" fill="#232323"/>
<path d="M92.7545 71.7266C89.7381 68.7102 89.7381 63.8086 92.7545 60.7922L94.9298 62.9675C93.1316 64.7657 93.1316 67.7241 94.9298 69.5223L92.7545 71.7266Z" fill="#232323"/>
</svg>
