<?xml version="1.0" encoding="UTF-8" standalone="no"?>
<svg
   xmlns:dc="http://purl.org/dc/elements/1.1/"
   xmlns:cc="http://creativecommons.org/ns#"
   xmlns:rdf="http://www.w3.org/1999/02/22-rdf-syntax-ns#"
   xmlns:svg="http://www.w3.org/2000/svg"
   xmlns="http://www.w3.org/2000/svg"
   xmlns:sodipodi="http://sodipodi.sourceforge.net/DTD/sodipodi-0.dtd"
   xmlns:inkscape="http://www.inkscape.org/namespaces/inkscape"
   inkscape:version="1.0 (4035a4fb49, 2020-05-01)"
   sodipodi:docname="TechargeLogo.svg"
   id="svg25"
   version="1.1"
   fill="none"
   viewBox="0 0 267.48419 36.4575"
   height="36.4575"
   width="267.48419">
  <metadata
     id="metadata29">
    <rdf:RDF>
      <cc:Work
         rdf:about="">
        <dc:format>image/svg+xml</dc:format>
        <dc:type
           rdf:resource="http://purl.org/dc/dcmitype/StillImage" />
        <dc:title></dc:title>
      </cc:Work>
    </rdf:RDF>
  </metadata>
  <sodipodi:namedview
     fit-margin-bottom="0"
     fit-margin-right="0"
     fit-margin-left="0"
     fit-margin-top="0"
     inkscape:current-layer="svg25"
     inkscape:window-maximized="1"
     inkscape:window-y="-8"
     inkscape:window-x="-8"
     inkscape:cy="22.2445"
     inkscape:cx="133.7422"
     inkscape:zoom="3.2178444"
     showgrid="false"
     id="namedview27"
     inkscape:window-height="1017"
     inkscape:window-width="1920"
     inkscape:pageshadow="2"
     inkscape:pageopacity="0"
     guidetolerance="10"
     gridtolerance="10"
     objecttolerance="10"
     borderopacity="1"
     bordercolor="#666666"
     pagecolor="#ffffff" />
  <g
     transform="translate(-27.7578,-94.7555)"
     id="g18"
     clip-path="url(#clip0)">
    <path
       id="path2"
       fill="white"
       d="m 188.709,127.217 -9.922,-19.965 1.829,-3.726 13.652,27.417 h -31.667 l -1.83,-3.585 z m 5.982,3.375 1.829,-3.586 -15.833,-31.9857 -13.723,27.4867 h 3.73 l 9.993,-20.035 z M 179.983,95.1609 h -3.73 l -15.763,31.4941 27.234,-0.07 -1.83,-3.656 -19.845,-0.07 z" />
    <path
       id="path4"
       fill="white"
       d="m 40.1857,130.929 h 4.5738 V 103.61 H 40.1857 Z M 27.7578,95.0076 v 4.0648 h 29.3981 v -4.0648 z" />
    <path
       id="path6"
       fill="white"
       d="M 66.8396,99.0409 H 86.2385 V 94.9761 H 62.2659 v 11.1229 h 4.5737 z m -4.5422,27.8551 v 4.065 h 24.4143 v -4.065 z m 4.5422,-12.415 H 83.7151 V 110.7 H 62.2974 v 11.627 h 4.5737 z" />
    <path
       id="path8"
       fill="white"
       d="m 95.3229,107.927 c 0.5047,-1.67 1.3248,-3.183 2.3657,-4.506 1.0094,-1.324 2.3344,-2.426 3.8484,-3.246 1.514,-0.819 3.28,-1.2601 5.331,-1.2601 0.914,0 1.829,0.0945 2.775,0.3151 0.915,0.189 1.83,0.5672 2.745,1.008 0.851,0.504 1.735,1.103 2.492,1.859 0.757,0.82 1.419,1.765 1.987,2.899 l 3.596,-2.331 c -1.104,-2.332 -2.839,-4.1913 -5.11,-5.6723 -2.334,-1.4179 -5.079,-2.1742 -8.265,-2.1742 -2.744,0 -5.11,0.5672 -7.2545,1.5755 -2.1764,1.0714 -3.9428,2.4263 -5.4253,4.159 -1.4826,1.733 -2.5866,3.656 -3.3436,5.767 -0.5678,1.512 -0.8517,3.025 -1.0094,4.506 h 4.6053 c 0.1577,-0.977 0.347,-1.954 0.6624,-2.899 z m 21.9851,12.888 c -0.504,1.102 -1.167,2.079 -1.987,2.899 -0.82,0.819 -1.672,1.481 -2.523,1.985 -0.978,0.504 -1.861,0.914 -2.902,1.103 -1.01,0.252 -1.987,0.346 -2.902,0.346 -1.83,0 -3.438,-0.346 -4.952,-1.166 -1.515,-0.756 -2.8393,-1.827 -3.9433,-3.151 -1.1671,-1.323 -2.0188,-2.773 -2.6496,-4.506 -0.4101,-1.071 -0.6624,-2.111 -0.8201,-3.277 h -4.6053 c 0.1892,1.513 0.5678,2.994 1.104,4.443 0.8201,2.237 1.9872,4.191 3.5013,5.924 1.514,1.733 3.2804,3.151 5.3623,4.191 2.0187,1.103 4.3217,1.607 6.7817,1.607 1.356,0 2.776,-0.158 4.258,-0.567 1.42,-0.347 2.776,-0.851 4.101,-1.607 1.325,-0.662 2.492,-1.576 3.501,-2.584 1.01,-1.008 1.83,-2.237 2.429,-3.592 z" />
    <path
       id="path10"
       fill="white"
       d="m 126.803,130.929 h 4.573 V 95.0076 h -4.573 z m 24.382,-35.9214 v 15.5344 h -15.771 v 4.065 h 15.771 v 16.354 h 4.574 V 95.0391 h -4.574 z" />
    <path
       id="path12"
       fill="white"
       d="m 220.075,117.191 c 1.104,-0.252 2.177,-0.756 3.091,-1.481 0.915,-0.662 1.735,-1.481 2.366,-2.426 0.662,-0.914 1.167,-1.986 1.514,-3.151 0.347,-1.166 0.568,-2.364 0.568,-3.656 0,-1.418 -0.316,-2.773 -0.82,-4.159 -0.568,-1.355 -1.325,-2.5839 -2.271,-3.6867 -0.947,-1.1029 -2.114,-1.9852 -3.438,-2.6469 -1.325,-0.6617 -2.776,-1.0083 -4.353,-1.0083 h -15.393 v 35.9219 h 4.573 v -12.919 h 4.574 l -2.523,-4.065 h -2.019 V 98.9779 h 10.598 c 0.852,0 1.672,0.189 2.492,0.5987 0.82,0.4096 1.483,0.9134 2.082,1.6074 0.599,0.693 1.073,1.481 1.42,2.363 0.346,0.914 0.567,1.859 0.567,2.836 0,1.008 -0.157,1.922 -0.441,2.836 -0.347,0.977 -0.757,1.733 -1.262,2.426 -0.568,0.693 -1.23,1.26 -1.987,1.607 -0.757,0.41 -1.609,0.599 -2.524,0.599 h -4.006 l 2.555,4.191 8.202,12.919 h 5.173 z" />
    <path
       id="path14"
       fill="white"
       d="m 244.426,125.982 c -1.577,-0.693 -2.902,-1.733 -3.943,-3.025 -1.104,-1.323 -2.018,-2.773 -2.649,-4.506 -0.663,-1.733 -0.978,-3.497 -0.978,-5.451 0,-1.765 0.252,-3.529 0.852,-5.262 0.567,-1.733 1.356,-3.183 2.428,-4.506 1.01,-1.324 2.272,-2.332 3.786,-3.151 1.482,-0.8195 3.091,-1.2291 4.952,-1.2291 2.239,0 4.195,0.5041 6.025,1.5121 1.766,1.009 3.185,2.584 4.321,4.664 l 3.533,-2.426 c -1.23,-2.269 -2.934,-4.1913 -5.173,-5.6723 -2.24,-1.418 -5.11,-2.1742 -8.548,-2.1742 -2.429,0 -4.669,0.5042 -6.688,1.481 -2.081,1.0083 -3.848,2.3318 -5.33,4.0015 -1.514,1.67 -2.681,3.592 -3.502,5.767 -0.851,2.174 -1.261,4.443 -1.261,6.869 0,2.363 0.41,4.601 1.261,6.775 0.852,2.237 2.019,4.159 3.533,5.861 1.483,1.733 3.186,3.088 5.268,4.096 2.019,1.071 4.258,1.576 6.687,1.576 2.523,0 4.858,-0.599 7.034,-1.923 v -4.254 c -2.113,1.418 -4.353,2.08 -6.687,2.08 -1.798,0 -3.407,-0.346 -4.921,-1.103 z m 7.791,-12.95 v 3.434 h 7.76 v 14.463 h 3.848 V 113 h -11.608 z" />
    <path
       id="path16"
       fill="white"
       d="m 275.37,99.0409 h 19.399 v -4.0648 h -23.973 v 11.1229 h 4.574 z m -4.574,27.8551 v 4.065 h 24.446 v -4.065 z m 4.574,-12.415 h 16.876 V 110.7 h -21.418 v 11.627 h 4.542 z" />
  </g>
  <defs
     id="defs23">
    <clipPath
       id="clip0">
      <rect
         y="0"
         x="0"
         id="rect20"
         transform="translate(0,-8)"
         fill="#ffffff"
         height="242"
         width="323" />
    </clipPath>
  </defs>
</svg>
