<svg width="400" height="273" viewBox="0 0 400 273" fill="none" xmlns="http://www.w3.org/2000/svg">
<g clip-path="url(#clip0)">
<path d="M233.695 140.625L221.408 115.875L223.674 111.256L240.58 145.244H201.364L199.098 140.799L233.695 140.625ZM241.103 144.808L243.369 140.363L223.761 100.711L206.767 134.786H211.386L223.761 109.949L241.103 144.808ZM222.889 100.885H218.27L198.749 139.928L232.475 139.84L230.21 135.309L205.634 135.222L222.889 100.885Z" fill="#FF8C21"/>
<path d="M49.7656 145.227H55.4297V111.359H49.7656V145.227ZM34.375 100.695V105.734H70.7812V100.695H34.375Z" fill="#FF8C21"/>
<path d="M82.7734 105.695H106.797V100.656H77.1093V114.445H82.7734V105.695ZM77.1484 140.227V145.266H107.383V140.227H77.1484ZM82.7734 124.836H103.672V120.148H77.1484V134.563H82.8124L82.7734 124.836Z" fill="#FF8C21"/>
<path d="M118.047 116.711C118.672 114.641 119.688 112.766 120.977 111.125C122.227 109.484 123.867 108.117 125.742 107.102C127.617 106.086 129.805 105.539 132.344 105.539C133.477 105.539 134.609 105.656 135.781 105.93C136.914 106.164 138.047 106.633 139.18 107.18C140.234 107.805 141.328 108.547 142.266 109.484C143.203 110.5 144.023 111.672 144.727 113.078L149.18 110.188C147.813 107.297 145.664 104.992 142.852 103.156C139.961 101.398 136.563 100.461 132.617 100.461C129.219 100.461 126.289 101.164 123.633 102.414C120.938 103.742 118.75 105.422 116.914 107.57C115.078 109.719 113.711 112.102 112.773 114.719C112.07 116.594 111.719 118.469 111.523 120.305H117.227C117.422 119.094 117.656 117.883 118.047 116.711ZM145.273 132.688C144.648 134.055 143.828 135.266 142.813 136.281C141.797 137.297 140.742 138.117 139.688 138.742C138.477 139.367 137.383 139.875 136.094 140.109C134.844 140.422 133.633 140.539 132.5 140.539C130.234 140.539 128.242 140.109 126.367 139.094C124.492 138.156 122.852 136.828 121.484 135.188C120.039 133.547 118.984 131.75 118.203 129.602C117.695 128.273 117.383 126.984 117.188 125.539H111.484C111.719 127.414 112.188 129.25 112.852 131.047C113.867 133.82 115.313 136.242 117.188 138.391C119.063 140.539 121.25 142.297 123.828 143.586C126.328 144.953 129.18 145.578 132.227 145.578C133.906 145.578 135.664 145.383 137.5 144.875C139.258 144.445 140.938 143.82 142.578 142.883C144.219 142.063 145.664 140.93 146.914 139.68C148.164 138.43 149.18 136.906 149.922 135.227L145.273 132.688Z" fill="#FF8C21"/>
<path d="M157.031 145.227H162.695V100.695H157.031V145.227ZM187.227 100.695V119.953H167.695V124.992H187.227V145.266H192.891V100.734H187.227V100.695Z" fill="#FF8C21"/>
<path d="M272.539 128.195C273.906 127.883 275.234 127.258 276.367 126.359C277.5 125.539 278.516 124.523 279.297 123.352C280.117 122.219 280.742 120.891 281.172 119.445C281.602 118 281.875 116.516 281.875 114.914C281.875 113.156 281.484 111.477 280.859 109.758C280.156 108.078 279.219 106.555 278.047 105.188C276.875 103.82 275.43 102.727 273.789 101.906C272.148 101.086 270.352 100.656 268.398 100.656H249.336V145.187H255V129.172H260.664L257.539 124.133H255.039V105.617H268.164C269.219 105.617 270.234 105.852 271.25 106.359C272.266 106.867 273.086 107.492 273.828 108.352C274.57 109.211 275.156 110.188 275.586 111.281C276.016 112.414 276.289 113.586 276.289 114.797C276.289 116.047 276.094 117.18 275.742 118.313C275.313 119.523 274.805 120.461 274.18 121.32C273.477 122.18 272.656 122.883 271.719 123.312C270.781 123.82 269.727 124.055 268.594 124.055H263.633L266.797 129.25L276.953 145.266H283.359L272.539 128.195Z" fill="#FF8C21"/>
<path d="M302.695 139.094C300.742 138.234 299.102 136.945 297.812 135.344C296.445 133.703 295.312 131.906 294.531 129.758C293.711 127.609 293.32 125.422 293.32 123C293.32 120.813 293.633 118.625 294.375 116.477C295.078 114.328 296.055 112.531 297.383 110.891C298.633 109.25 300.195 108 302.07 106.984C303.906 105.969 305.898 105.461 308.203 105.461C310.977 105.461 313.398 106.086 315.664 107.336C317.852 108.586 319.609 110.539 321.016 113.117L325.391 110.109C323.867 107.297 321.758 104.914 318.984 103.078C316.211 101.32 312.656 100.383 308.398 100.383C305.391 100.383 302.617 101.008 300.117 102.219C297.539 103.469 295.352 105.109 293.516 107.18C291.641 109.25 290.195 111.633 289.18 114.328C288.125 117.023 287.617 119.836 287.617 122.844C287.617 125.773 288.125 128.547 289.18 131.242C290.234 134.016 291.68 136.398 293.555 138.508C295.391 140.656 297.5 142.336 300.078 143.586C302.578 144.914 305.352 145.539 308.359 145.539C311.484 145.539 314.375 144.797 317.07 143.156V137.883C314.453 139.641 311.68 140.461 308.789 140.461C306.562 140.461 304.57 140.031 302.695 139.094ZM312.344 123.039V127.297H321.953V145.227H326.719V123H312.344V123.039Z" fill="#FF8C21"/>
<path d="M341.016 105.695H365.039V100.656H335.352V114.445H341.016V105.695ZM335.352 140.227V145.266H365.625V140.227H335.352ZM341.016 124.836H361.914V120.148H335.391V134.563H341.016V124.836Z" fill="#FF8C21"/>
</g>
<defs>
<clipPath id="clip0">
<rect width="400" height="300" fill="white" transform="translate(0 -27)"/>
</clipPath>
</defs>
</svg>
