<svg width="152" height="37" viewBox="0 0 152 37" fill="none" xmlns="http://www.w3.org/2000/svg">
<g clip-path="url(#clip0)">
<path d="M47.3739 5.36566V3.41311H45.5604V5.36566H44.6779V0.680753H45.5907V2.64539H47.4042V0.680753H48.317V5.36566H47.3739ZM51.6055 5.36566H50.8801L50.8136 5.13595C50.5065 5.33334 50.1509 5.44211 49.7859 5.45029C49.1451 5.45029 48.8671 5.02714 48.8671 4.44682C48.8671 3.75768 49.1754 3.49775 49.8947 3.49775H50.741V3.12295C50.741 2.74816 50.6322 2.61517 50.07 2.61517C49.7431 2.61823 49.4172 2.65265 49.0968 2.71793L48.9759 2.07716C49.3705 1.97326 49.7768 1.92044 50.1849 1.91999C51.2911 1.91999 51.6176 2.29478 51.6176 3.129L51.6055 5.36566ZM50.741 4.09016H50.0882C49.798 4.09016 49.7194 4.16875 49.7194 4.42264C49.7194 4.67653 49.798 4.76116 50.0761 4.76116C50.3087 4.75758 50.5369 4.69741 50.741 4.58585V4.09016ZM53.4674 5.45029C53.0572 5.44376 52.6501 5.37862 52.2583 5.25685L52.3792 4.61003C52.7201 4.70335 53.0716 4.75211 53.425 4.75511C53.818 4.75511 53.8724 4.67048 53.8724 4.41659C53.8724 4.1627 53.8301 4.10225 53.2679 3.9753C52.4095 3.77582 52.3067 3.56424 52.3067 2.91138C52.3067 2.25851 52.6029 1.91394 53.6124 1.91394C53.9684 1.91518 54.3232 1.95573 54.6703 2.03484L54.5857 2.70584C54.2662 2.6493 53.9429 2.61697 53.6185 2.60912C53.2376 2.60912 53.1711 2.69375 53.1711 2.89929C53.1711 3.10482 53.1711 3.18945 53.6668 3.31035C54.6522 3.5582 54.7429 3.68514 54.7429 4.38032C54.7429 5.0755 54.5313 5.45029 53.4674 5.45029ZM57.5054 5.3838V3.03228C57.5054 2.85092 57.4269 2.76025 57.2213 2.76025C56.9004 2.79089 56.5884 2.88326 56.3025 3.03228V5.36566H55.4199V0.614258L56.3025 0.747249V2.24038C56.7042 2.04298 57.1428 1.93179 57.5901 1.91394C58.1946 1.91394 58.388 2.30687 58.388 2.91138V5.36566L57.5054 5.3838ZM59.1255 1.52706V0.680753H60.0081V1.50892L59.1255 1.52706ZM59.1255 5.3838V1.98648H60.0081V5.36566L59.1255 5.3838ZM60.7093 2.03484C60.7093 1.18854 61.2231 0.692843 62.4201 0.692843C62.8597 0.692375 63.2979 0.743092 63.7258 0.84397L63.623 1.5996C63.234 1.52777 62.8398 1.48734 62.4442 1.4787C61.8397 1.4787 61.6161 1.68423 61.6161 2.17992V3.93903C61.6161 4.42868 61.8156 4.64026 62.4442 4.64026C62.8398 4.63162 63.234 4.59118 63.623 4.51936L63.7258 5.27499C63.2979 5.37587 62.8597 5.42658 62.4201 5.42612C61.2111 5.42612 60.7093 4.93647 60.7093 4.08411V2.03484ZM65.6783 5.45029C64.4693 5.45029 64.149 4.80952 64.149 4.12038V3.2499C64.149 2.55472 64.4754 1.91999 65.6783 1.91999C66.8813 1.91999 67.2077 2.56076 67.2077 3.2499V4.10225C67.2138 4.79743 66.8874 5.45029 65.6783 5.45029ZM65.6783 2.65144C65.2068 2.65144 65.0255 2.85092 65.0255 3.25594V4.1627C65.0255 4.54354 65.2068 4.7672 65.6783 4.7672C66.1499 4.7672 66.3312 4.56772 66.3312 4.1627V3.21967C66.3312 2.83883 66.1499 2.63935 65.6783 2.63935V2.65144ZM69.6923 2.70584C69.3701 2.84546 69.0589 3.00914 68.7613 3.19549V5.37171H67.8787V1.98648H68.6223L68.6827 2.36128C68.9709 2.17521 69.2817 2.0269 69.6076 1.91999L69.6923 2.70584ZM73.2165 4.24129C73.2432 4.40182 73.232 4.56636 73.1838 4.72181C73.1357 4.87726 73.052 5.01934 72.9393 5.13673C72.8266 5.25412 72.688 5.3436 72.5347 5.39803C72.3813 5.45247 72.2174 5.47036 72.0559 5.45029C71.7412 5.4473 71.4275 5.41492 71.1189 5.35357V6.71976L70.2363 6.85275V2.01671H70.9375L71.0222 2.30083C71.3464 2.06835 71.7355 1.94359 72.1345 1.94417C72.8417 1.94417 73.2165 2.34919 73.2165 3.11691V4.24129ZM71.1128 4.62212C71.3692 4.67745 71.6304 4.70782 71.8927 4.7128C72.213 4.7128 72.3339 4.56772 72.3339 4.25942V3.05041C72.3339 2.77234 72.2251 2.62121 71.8987 2.62121C71.6093 2.6318 71.3322 2.74053 71.1128 2.92951V4.62212Z" fill="#707070"/>
<path d="M50.0519 12.4262H44.6779V9.21631H59.0711V12.4262H53.691V28.4637H50.064L50.0519 12.4262Z" fill="#707070"/>
<path d="M62.3899 25.8643C63.8496 25.8569 65.3001 25.6328 66.6939 25.1993L67.244 27.8592C65.5846 28.4571 63.8333 28.7599 62.0695 28.7538C57.6506 28.7538 56.1151 26.7046 56.1151 23.3133V19.5956C56.1151 16.6214 57.445 14.1067 61.9546 14.1067C66.4642 14.1067 67.4738 16.7363 67.4738 19.7709V22.7934H59.6152V23.5188C59.6454 25.1993 60.2499 25.8643 62.3899 25.8643ZM59.6454 19.9583H64.1248V19.245C64.1248 17.9151 63.7198 16.9902 61.9849 16.9902C60.2499 16.9902 59.6454 17.9151 59.6454 19.245V19.9583Z" fill="#707070"/>
<path d="M76.8979 17.341C75.5996 17.9265 74.3485 18.6116 73.156 19.3902V28.4578H69.6317V14.391H72.6059L72.8356 15.9506C73.9822 15.1743 75.2261 14.5523 76.5352 14.1008L76.8979 17.341Z" fill="#707070"/>
<path d="M85.506 17.341C84.2118 17.927 82.9649 18.6122 81.7762 19.3902V28.4578H78.252V14.391H81.2261L81.4558 15.9506C82.6025 15.1743 83.8464 14.5523 85.1554 14.1008L85.506 17.341Z" fill="#707070"/>
<path d="M97.3 28.4639H94.4105L94.1506 27.5087C92.9038 28.32 91.4487 28.7525 89.9613 28.754C87.3922 28.754 86.292 26.9889 86.292 24.5648C86.292 21.7055 87.5373 20.6053 90.3966 20.6053H93.7758V19.1303C93.7758 17.5707 93.3405 17.0206 91.0857 17.0206C89.7748 17.0353 88.4686 17.1811 87.1867 17.4558L86.7514 14.7658C88.3267 14.3299 89.953 14.1063 91.5875 14.1008C96.0064 14.1008 97.3121 15.6605 97.3121 19.1847L97.3 28.4639ZM93.7758 23.1442H91.1764C90.0218 23.1442 89.7014 23.4646 89.7014 24.5285C89.7014 25.5925 90.0218 25.9431 91.1159 25.9431C92.0495 25.9289 92.9643 25.6794 93.7758 25.2177V23.1442Z" fill="#707070"/>
<path d="M108.133 11.1811C107.467 11.038 106.789 10.9611 106.108 10.9514C104.723 10.9514 104.518 11.5559 104.518 12.6259V14.391H108.102L107.903 17.1959H104.524V28.4639H101V17.1959H98.7448V14.391H101V12.4264C101 9.50661 102.36 8.06185 105.479 8.06185C106.5 8.05798 107.517 8.19426 108.501 8.46687L108.133 11.1811Z" fill="#707070"/>
<path d="M115.012 28.754C110.176 28.754 108.888 26.0942 108.888 23.2047V19.6502C108.888 16.7607 110.188 14.1008 115.012 14.1008C119.836 14.1008 121.136 16.7607 121.136 19.6502V23.2047C121.142 26.0942 119.836 28.754 115.012 28.754ZM115.012 17.1052C113.132 17.1052 112.413 17.9455 112.413 19.5232V23.3074C112.413 24.8973 113.138 25.7255 115.012 25.7255C116.886 25.7255 117.611 24.8852 117.611 23.3074V19.5353C117.611 17.9455 116.892 17.1052 115.012 17.1052Z" fill="#707070"/>
<path d="M130.209 17.341C128.915 17.927 127.668 18.6122 126.479 19.3902V28.4578H122.955V14.391H125.929L126.159 15.9506C127.306 15.1742 128.549 14.5523 129.859 14.1008L130.209 17.341Z" fill="#707070"/>
<path d="M139.893 28.4639V18.6407C139.893 17.8911 139.573 17.5163 138.769 17.5163C137.477 17.6698 136.229 18.0809 135.1 18.7253V28.4639H131.575V14.391H134.265L134.61 15.6C136.367 14.7116 138.29 14.2009 140.256 14.1009C140.8 14.0497 141.347 14.1665 141.822 14.4356C142.298 14.7048 142.68 15.1133 142.916 15.6061C144.674 14.7046 146.606 14.1913 148.58 14.1009C150.919 14.1009 151.76 15.7451 151.76 18.2599V28.4639H148.235V18.6407C148.235 17.8911 147.915 17.5163 147.111 17.5163C145.817 17.6588 144.567 18.0707 143.442 18.7253V28.4639H139.893Z" fill="#707070"/>
<path fill-rule="evenodd" clip-rule="evenodd" d="M11.6176 7.09448L21.5314 12.8252V24.2685L11.6176 18.5438V7.09448Z" fill="#707070"/>
<path fill-rule="evenodd" clip-rule="evenodd" d="M22.6194 12.8252V24.2685L32.5333 18.5498V7.09448L22.6194 12.8252Z" fill="#707070"/>
<path fill-rule="evenodd" clip-rule="evenodd" d="M0.615479 0.706055V12.1554L10.5294 17.88V6.43071L0.615479 0.706055Z" fill="#707070"/>
<path fill-rule="evenodd" clip-rule="evenodd" d="M11.6176 31.2506L21.5314 36.9752V25.6045V25.5259L11.6176 19.8013V31.2506Z" fill="#707070"/>
</g>
<defs>
<clipPath id="clip0">
<rect width="151.126" height="36.361" fill="white" transform="translate(0.615479 0.614258)"/>
</clipPath>
</defs>
</svg>
