<svg width="149" height="149" viewBox="0 0 149 149" fill="none" xmlns="http://www.w3.org/2000/svg">
<path d="M78.6366 48.4435H75.5331V63.9026H78.6366V48.4435Z" fill="#232323"/>
<path d="M104.914 85.5685C104.914 100.941 92.4423 113.412 77.0703 113.412C61.6982 113.412 49.2265 100.941 49.2265 85.5685C49.2265 70.1964 61.6982 57.7247 77.0703 57.7247C92.4423 57.7247 104.914 70.1964 104.914 85.5685Z" fill="white"/>
<path d="M77.0703 63.9315C89.0199 63.9315 98.7362 73.6479 98.7362 85.5975C98.7362 97.5471 89.0199 107.234 77.0703 107.234C65.1207 107.234 55.4044 97.5181 55.4044 85.5685C55.4044 73.6478 65.1207 63.9315 77.0703 63.9315ZM77.0703 60.8281C63.4094 60.8281 52.33 71.9076 52.33 85.5685C52.33 99.2293 63.4094 110.309 77.0703 110.309C90.7311 110.309 101.811 99.2293 101.811 85.5685C101.811 71.9076 90.7311 60.8281 77.0703 60.8281Z" fill="#232323"/>
<path d="M61.6112 84.0313H58.5078V87.1347H61.6112V84.0313Z" fill="#232323"/>
<path d="M95.6327 84.0313H92.5293V87.1347H95.6327V84.0313Z" fill="#232323"/>
<path d="M78.6368 67.006H75.5334V70.1095H78.6368V67.006Z" fill="#232323"/>
<path d="M78.6365 101.057H75.5331V104.16H78.6365V101.057Z" fill="#232323"/>
<path d="M86.9018 73.5443L75.9706 84.4754L78.1651 86.6698L89.0962 75.7387L86.9018 73.5443Z" fill="#232323"/>
<path d="M77.0703 56.1875C72.3717 56.1875 68.5721 52.359 68.5721 47.6894C68.5721 42.9907 72.4007 39.1912 77.0703 39.1912C81.7689 39.1912 85.5684 43.0197 85.5684 47.6894C85.5684 52.359 81.7689 56.1875 77.0703 56.1875ZM77.0703 42.2656C74.0829 42.2656 71.6466 44.702 71.6466 47.6894C71.6466 50.6768 74.0829 53.1131 77.0703 53.1131C80.0577 53.1131 82.494 50.6768 82.494 47.6894C82.494 44.702 80.0577 42.2656 77.0703 42.2656Z" fill="#232323"/>
<path d="M80.1446 46.9062H73.9668V50.0097H80.1446V46.9062Z" fill="white"/>
</svg>
