<svg width="149" height="149" viewBox="0 0 149 149" fill="none" xmlns="http://www.w3.org/2000/svg">
<path d="M90.2091 84.4083H65.4688V109.149H90.2091V84.4083Z" fill="#AEDAD9"/>
<path d="M90.2091 34.9276H65.4688V59.6679H90.2091V34.9276Z" fill="#AEDAD9"/>
<path d="M77.8534 96.7929C91.5171 96.7929 102.594 85.7163 102.594 72.0526C102.594 58.3889 91.5171 47.3123 77.8534 47.3123C64.1897 47.3123 53.1131 58.3889 53.1131 72.0526C53.1131 85.7163 64.1897 96.7929 77.8534 96.7929Z" fill="white"/>
<path d="M77.8534 98.3301C63.3515 98.3301 51.5469 86.5255 51.5469 72.0236C51.5469 57.5216 63.3515 45.717 77.8534 45.717C92.3554 45.717 104.16 57.5216 104.16 72.0236C104.131 86.5545 92.3554 98.3301 77.8534 98.3301ZM77.8534 48.8495C65.0627 48.8495 54.6503 59.2619 54.6503 72.0526C54.6503 84.8433 65.0627 95.2557 77.8534 95.2557C90.6441 95.2557 101.057 84.8433 101.057 72.0526C101.057 59.2619 90.6441 48.8495 77.8534 48.8495Z" fill="#232323"/>
<path d="M79.3906 51.9239H76.2872V72.4296H79.3906V51.9239Z" fill="#232323"/>
<path d="M78.7357 71.133L76.9814 73.6931L87.5325 80.9237L89.2868 78.3636L78.7357 71.133Z" fill="#232323"/>
<path d="M77.8534 75.5331C79.5674 75.5331 80.9568 74.1437 80.9568 72.4297C80.9568 70.7157 79.5674 69.3263 77.8534 69.3263C76.1395 69.3263 74.75 70.7157 74.75 72.4297C74.75 74.1437 76.1395 75.5331 77.8534 75.5331Z" fill="white"/>
<path d="M77.8534 77.0703C75.3011 77.0703 73.2128 74.982 73.2128 72.4297C73.2128 69.8773 75.3011 67.7891 77.8534 67.7891C80.4057 67.7891 82.494 69.8773 82.494 72.4297C82.494 74.982 80.4057 77.0703 77.8534 77.0703ZM77.8534 70.8925C77.0123 70.8925 76.3162 71.5886 76.3162 72.4297C76.3162 73.2708 77.0123 73.9669 77.8534 73.9669C78.6945 73.9669 79.3906 73.2708 79.3906 72.4297C79.3906 71.5886 78.6945 70.8925 77.8534 70.8925Z" fill="#232323"/>
<path d="M77.8534 92.1523C79.5674 92.1523 80.9568 90.7629 80.9568 89.0489C80.9568 87.3349 79.5674 85.9455 77.8534 85.9455C76.1395 85.9455 74.75 87.3349 74.75 89.0489C74.75 90.7629 76.1395 92.1523 77.8534 92.1523Z" fill="#AEDAD9"/>
</svg>
