<svg width="149" height="149" viewBox="0 0 149 149" fill="none" xmlns="http://www.w3.org/2000/svg">
<path d="M60.4151 95.1397L94.6108 60.9441C97.7142 61.7562 101.137 60.9731 103.573 58.5368C106.444 55.6944 107.024 51.4308 105.371 47.9794L101.369 51.9819L96.9891 47.6023L100.992 43.5998C97.5402 41.9466 93.3056 42.5556 90.4342 45.398C87.9979 47.8343 87.2148 51.2568 88.0269 54.3602L53.8603 88.5848C50.7568 87.7727 47.3344 88.5558 44.8981 90.9922C42.0557 93.8345 41.4466 98.0981 43.0998 101.55L47.1024 97.547L51.4819 101.927L47.4794 105.929C50.9309 107.582 55.1654 106.973 58.0368 104.131C60.4442 101.666 61.2563 98.2431 60.4151 95.1397Z" fill="#AEDAD9"/>
<path d="M61.6623 35.9138L35.4138 62.1624L44.173 70.9215L70.4215 44.673L61.6623 35.9138Z" fill="#AEDAD9"/>
<path d="M54.1503 60.9442L96.8151 103.609L103.109 97.3151L60.4442 54.6503" fill="white"/>
<path d="M96.8151 105.784L53.0482 62.0463L55.2525 59.842L96.8151 101.405L100.905 97.315L59.342 55.7525L61.5463 53.5482L105.284 97.315L96.8151 105.784Z" fill="#232323"/>
</svg>
