<svg width="39" height="75" viewBox="0 0 39 75" fill="none" xmlns="http://www.w3.org/2000/svg">
<path d="M38.2536 6.5083H0.952148V74.904H38.2536V6.5083Z" fill="#FF8C21"/>
<path d="M27.3837 6.50846H24.2655V3.41944H14.9402V6.50846H11.822V0.30127H27.3837V6.50846Z" fill="white"/>
<path d="M38.2534 62.4604H1.33081V65.5786H38.2534V62.4604Z" fill="white"/>
<path d="M19.6027 46.9281C26.4751 46.9281 32.0462 41.3569 32.0462 34.4845C32.0462 27.6122 26.4751 22.041 19.6027 22.041C12.7303 22.041 7.15918 27.6122 7.15918 34.4845C7.15918 41.3569 12.7303 46.9281 19.6027 46.9281Z" fill="#11D124"/>
<path d="M20.994 40.8423L18.2256 39.4435L20.2072 35.4802H14L18.2256 27L20.994 28.3988L19.0124 32.3621H25.2487L20.994 40.8423Z" fill="#F4F1BB"/>
</svg>
