<svg width="108" height="70" viewBox="0 0 108 70" fill="none" xmlns="http://www.w3.org/2000/svg">
<path d="M96.9803 31.3475C97.0398 31.9666 97.5257 32.4754 98.147 32.5047V32.5047C98.8254 32.5368 99.3944 31.9886 99.3294 31.3125C98.571 23.4263 91.8127 16.5001 82.6378 14.303C82.1057 14.1756 81.5832 14.5257 81.4762 15.0623V15.0623C81.3691 15.5989 81.7185 16.1186 82.25 16.2486C90.3494 18.2297 96.31 24.3668 96.9803 31.3475Z" fill="#232323"/>
<path d="M102.837 23.4229C102.89 23.934 103.305 24.3445 103.819 24.3484V24.3484C104.361 24.3526 104.802 23.9043 104.747 23.3647C104.061 16.5525 98.4914 10.7678 91.0146 9.16214C90.551 9.06257 90.1069 9.37926 90.0277 9.84681V9.84681C89.9485 10.3144 90.2645 10.7555 90.7276 10.8577C97.3094 12.3094 102.211 17.4136 102.837 23.4229Z" fill="#232323"/>
<path d="M9.95196 31.3475C9.89251 31.9666 9.40655 32.4754 8.78526 32.5047V32.5047C8.10685 32.5368 7.53785 31.9886 7.60287 31.3125C8.36128 23.4263 15.1195 16.5001 24.2945 14.303C24.8266 14.1756 25.3491 14.5257 25.4561 15.0623V15.0623C25.5631 15.5989 25.2137 16.1186 24.6822 16.2486C16.5829 18.2297 10.6223 24.3668 9.95196 31.3475Z" fill="#232323"/>
<path d="M4.09522 23.4229C4.042 23.934 3.62707 24.3445 3.11328 24.3484V24.3484C2.571 24.3526 2.13064 23.9043 2.18501 23.3647C2.87139 16.5525 8.44093 10.7678 15.9177 9.16214C16.3813 9.06257 16.8254 9.37926 16.9046 9.84681V9.84681C16.9838 10.3144 16.6678 10.7555 16.2047 10.8577C9.62286 12.3094 4.72095 17.4136 4.09522 23.4229Z" fill="#232323"/>
</svg>
