<svg width="149" height="149" viewBox="0 0 149 149" fill="none" xmlns="http://www.w3.org/2000/svg">
<path d="M93.3125 105.697H56.1875V108.801H93.3125V105.697Z" fill="#232323"/>
<path d="M111.875 40.7284H37.625V99.5193H111.875V40.7284Z" fill="white"/>
<path d="M105.668 46.9062H43.8028V87.1347H105.668V46.9062Z" fill="#9BC1BC"/>
<path d="M107.234 88.6718H42.2656V45.369H107.234V88.6718ZM45.369 85.5684H104.16V48.4434H45.369V85.5684Z" fill="#232323"/>
<path d="M67.035 99.4903H63.9315V107.234H67.035V99.4903Z" fill="#232323"/>
<path d="M85.5975 99.4903H82.494V107.234H85.5975V99.4903Z" fill="#232323"/>
<path d="M96.3869 51.5468H53.0841V82.494H96.3869V51.5468Z" fill="white"/>
<path d="M96.3869 51.5468H53.0841V54.6502H96.3869V51.5468Z" fill="#232323"/>
<path d="M87.1057 63.9314H62.3654V73.2126H87.1057V63.9314Z" fill="#232323"/>
<path d="M68.5432 76.2871H62.3654V79.3905H68.5432V76.2871Z" fill="#232323"/>
<path d="M77.8244 76.2871H71.6466V79.3905H77.8244V76.2871Z" fill="#232323"/>
<path d="M80.9568 57.7245H68.5722V60.828H80.9568V57.7245Z" fill="#232323"/>
<path d="M87.1057 76.2871H80.9278V79.3905H87.1057V76.2871Z" fill="#232323"/>
<path d="M74.75 94.8496C75.599 94.8496 76.2872 94.1614 76.2872 93.3124C76.2872 92.4634 75.599 91.7752 74.75 91.7752C73.901 91.7752 73.2128 92.4634 73.2128 93.3124C73.2128 94.1614 73.901 94.8496 74.75 94.8496Z" fill="#232323"/>
</svg>
