<svg width="149" height="149" viewBox="0 0 149 149" fill="none" xmlns="http://www.w3.org/2000/svg">
<path d="M93.3125 88.1719H56.1875V91.2753H93.3125V88.1719Z" fill="#232323"/>
<path d="M111.875 24.7404H37.625V80.4279H111.875V24.7404Z" fill="#F4F1BB"/>
<path d="M105.668 30.9471H43.8029V68.0721H105.668V30.9471Z" fill="#F4F1BB"/>
<path d="M107.234 69.6094H42.2657V29.381H107.234V69.6094ZM45.3691 66.506H104.16V32.4844H45.3691V66.506Z" fill="#F4F1BB"/>
<path d="M67.035 80.4279H63.9315V89.7091H67.035V80.4279Z" fill="#232323"/>
<path d="M85.5975 80.4279H82.4941V89.7091H85.5975V80.4279Z" fill="#232323"/>
<path d="M80.9569 72.7128H68.5722V75.8162H80.9569V72.7128Z" fill="#232323"/>
<path d="M104.131 95.916H39.1623V123.76H104.131V95.916Z" fill="#F4F1BB"/>
<path d="M105.697 125.297H37.6251V94.3497H105.697V125.297ZM40.7285 122.193H102.594V97.4532H40.7285V122.193Z" fill="#232323"/>
<path d="M51.5469 102.094H45.3691V108.272H51.5469V102.094Z" fill="#F4F1BB"/>
<path d="M60.8282 102.094H54.6503V108.272H60.8282V102.094Z" fill="#F4F1BB"/>
<path d="M70.1094 102.094H63.9316V108.272H70.1094V102.094Z" fill="#F4F1BB"/>
<path d="M79.3907 102.094H73.2128V108.272H79.3907V102.094Z" fill="#F4F1BB"/>
<path d="M88.6719 102.094H82.4941V108.272H88.6719V102.094Z" fill="#F4F1BB"/>
<path d="M97.9532 102.094H91.7754V108.272H97.9532V102.094Z" fill="#F4F1BB"/>
<path d="M51.5469 111.375H45.3691V117.553H51.5469V111.375Z" fill="#F4F1BB"/>
<path d="M60.8282 111.375H54.6503V117.553H60.8282V111.375Z" fill="#F4F1BB"/>
<path d="M70.1094 111.375H63.9316V117.553H70.1094V111.375Z" fill="#F4F1BB"/>
<path d="M79.3907 111.375H73.2128V117.553H79.3907V111.375Z" fill="#F4F1BB"/>
<path d="M88.6719 111.375H82.4941V117.553H88.6719V111.375Z" fill="#F4F1BB"/>
<path d="M97.9532 111.375H91.7754V117.553H97.9532V111.375Z" fill="#F4F1BB"/>
<path d="M116.516 102.094C113.093 102.094 110.338 104.878 110.338 108.272V117.553C110.338 120.975 113.122 123.731 116.516 123.731C119.909 123.731 122.694 120.946 122.694 117.553V108.272C122.694 104.878 119.938 102.094 116.516 102.094Z" fill="white"/>
<path d="M116.516 125.297C112.252 125.297 108.772 121.816 108.772 117.553V108.272C108.772 104.008 112.252 100.528 116.516 100.528C120.779 100.528 124.26 104.008 124.26 108.272V117.553C124.26 121.816 120.779 125.297 116.516 125.297ZM116.516 103.631C113.963 103.631 111.875 105.719 111.875 108.272V117.553C111.875 120.105 113.963 122.194 116.516 122.194C119.068 122.194 121.156 120.105 121.156 117.553V108.272C121.156 105.719 119.068 103.631 116.516 103.631Z" fill="#232323"/>
<path d="M122.722 106.734H110.338V109.838H122.722V106.734Z" fill="#232323"/>
</svg>
