<?xml version="1.0" encoding="UTF-8" standalone="no"?>
<svg
   xmlns:dc="http://purl.org/dc/elements/1.1/"
   xmlns:cc="http://creativecommons.org/ns#"
   xmlns:rdf="http://www.w3.org/1999/02/22-rdf-syntax-ns#"
   xmlns:svg="http://www.w3.org/2000/svg"
   xmlns="http://www.w3.org/2000/svg"
   xmlns:sodipodi="http://sodipodi.sourceforge.net/DTD/sodipodi-0.dtd"
   xmlns:inkscape="http://www.inkscape.org/namespaces/inkscape"
   width="93.773903"
   height="32.7621"
   viewBox="0 0 93.773903 32.7621"
   fill="none"
   version="1.1"
   id="svg22"
   sodipodi:docname="django-logo.svg"
   inkscape:version="1.0.2 (e86c870879, 2021-01-15, custom)">
  <metadata
     id="metadata28">
    <rdf:RDF>
      <cc:Work
         rdf:about="">
        <dc:format>image/svg+xml</dc:format>
        <dc:type
           rdf:resource="http://purl.org/dc/dcmitype/StillImage" />
        <dc:title></dc:title>
      </cc:Work>
    </rdf:RDF>
  </metadata>
  <defs
     id="defs26" />
  <sodipodi:namedview
     pagecolor="#ffffff"
     bordercolor="#666666"
     borderopacity="1"
     objecttolerance="10"
     gridtolerance="10"
     guidetolerance="10"
     inkscape:pageopacity="0"
     inkscape:pageshadow="2"
     inkscape:window-width="1920"
     inkscape:window-height="1017"
     id="namedview24"
     showgrid="false"
     fit-margin-top="0"
     fit-margin-left="0"
     fit-margin-right="0"
     fit-margin-bottom="0"
     inkscape:zoom="6.6982488"
     inkscape:cx="47.0919"
     inkscape:cy="16.9504"
     inkscape:window-x="-8"
     inkscape:window-y="-8"
     inkscape:window-maximized="1"
     inkscape:current-layer="svg22" />
  <path
     d="m 11.0559,0 h 5.1284 V 23.7376 C 13.5535,24.2371 11.622,24.4369 9.5242,24.4369 3.2634,24.4367 0,21.6065 0,16.1782 0,10.95 3.4634,7.5535 8.8247,7.5535 c 0.8325,0 1.4651,0.0664 2.2312,0.2662 z m 0,11.9487 c -0.5994,-0.1996 -1.0988,-0.2662 -1.7315,-0.2662 -2.5975,0 -4.0961,1.5986 -4.0961,4.3956 0,2.7309 1.432,4.2294 4.0628,4.2294 0.5658,0 1.0322,-0.0333 1.7648,-0.133 z"
     fill="#707070"
     id="path10" />
  <path
     d="m 24.3424,7.9197 v 11.8881 c 0,4.0962 -0.2997,6.0608 -1.1987,7.7592 -0.8327,1.632 -1.9318,2.6641 -4.1961,3.7964 l -4.7621,-2.2645 c 2.2645,-1.0655 3.3634,-1.9977 4.0626,-3.4301 0.7328,-1.4652 0.9661,-3.1636 0.9661,-7.6258 V 7.9197 Z M 19.2142,0.0273 h 5.1282 v 5.2616 h -5.1282 z"
     fill="#707070"
     id="path12" />
  <path
     d="m 27.4403,9.0852 c 2.2647,-1.0654 4.4291,-1.5315 6.7935,-1.5315 2.6308,0 4.3623,0.699 5.1283,2.0645 0.4327,0.7658 0.5659,1.7648 0.5659,3.8963 v 10.4228 c -2.298,0.333 -5.195,0.5663 -7.3261,0.5663 -4.2957,0 -6.2274,-1.4991 -6.2274,-4.8289 0,-3.5966 2.5642,-5.2616 8.8582,-5.7946 V 12.748 c 0,-0.9324 -0.4662,-1.2651 -1.765,-1.2651 -1.898,0 -4.0293,0.5328 -6.0277,1.5652 V 9.0852 Z m 8.0255,8.1587 c -3.3969,0.333 -4.4957,0.866 -4.4957,2.1979 0,0.999 0.6329,1.4652 2.0314,1.4652 0.7661,0 1.4651,-0.0664 2.4643,-0.2329 z"
     fill="#707070"
     id="path14" />
  <path
     d="m 42.4258,8.7189 c 3.0301,-0.7992 5.5277,-1.1652 8.0586,-1.1652 2.6308,0 4.529,0.5991 5.6616,1.7648 1.0655,1.0986 1.3983,2.2974 1.3983,4.862 V 24.237 h -5.1284 v -9.8567 c 0,-1.9646 -0.6659,-2.6976 -2.4974,-2.6976 -0.6992,0 -1.3319,0.0666 -2.3646,0.3663 v 12.188 h -5.1281 z"
     fill="#707070"
     id="path16" />
  <path
     d="m 59.5377,27.0344 c 1.7985,0.9323 3.5966,1.365 5.4946,1.365 3.3632,0 4.7952,-1.365 4.7952,-4.6287 0,-0.0333 0,-0.0666 0,-0.0999 -0.9989,0.4993 -1.9981,0.6993 -3.3298,0.6993 -4.4957,0 -7.36,-2.9638 -7.36,-7.6591 0,-5.828 4.2295,-9.1244 11.7219,-9.1244 2.1981,0 4.2295,0.2329 6.6938,0.7324 l -1.756,3.6991 C 74.4319,11.7517 75.688,11.9824 74.6562,11.8825 v 0.533 l 0.0664,2.1642 0.0331,2.7975 c 0.0333,0.6991 0.0333,1.3985 0.0668,2.0978 0,0.6327 0,0.9326 0,1.3988 0,4.3958 -0.3663,6.4603 -1.4651,8.1585 -1.5986,2.4978 -4.3625,3.7298 -8.292,3.7298 -1.9981,0 -3.7294,-0.2997 -5.5279,-0.9991 V 27.0344 Z M 69.7278,11.7158 c -0.0666,0 -0.1329,0 -0.1662,0 h -0.3665 c -0.9988,-0.0333 -2.1642,0.2329 -2.9638,0.7324 -1.2318,0.6995 -1.8649,1.965 -1.8649,3.7631 0,2.5644 1.2657,4.0296 3.53,4.0296 0.6993,0 1.2656,-0.1334 1.9313,-0.333 v -0.3665 -1.3983 c 0,-0.5994 -0.033,-1.2658 -0.033,-1.9648 l -0.0331,-2.3642 -0.0335,-1.6985 v -0.3998 z"
     fill="#707070"
     id="path18" />
  <path
     d="m 85.5149,7.4868 c 5.128,0 8.259,3.2303 8.259,8.4584 0,5.3617 -3.264,8.725 -8.459,8.725 -5.1284,0 -8.292,-3.2303 -8.292,-8.4251 2e-4,-5.3952 3.2639,-8.7583 8.492,-8.7583 z m -0.1,13.0538 c 1.965,0 3.13,-1.6318 3.13,-4.4624 0,-2.7971 -1.132,-4.4622 -3.096,-4.4622 -2.032,0 -3.1979,1.632 -3.1979,4.4622 2e-4,2.8308 1.1659,4.4624 3.1639,4.4624 z"
     fill="#707070"
     id="path20" />
</svg>
