<?xml version="1.0" encoding="UTF-8" standalone="no"?>
<svg
   xmlns:dc="http://purl.org/dc/elements/1.1/"
   xmlns:cc="http://creativecommons.org/ns#"
   xmlns:rdf="http://www.w3.org/1999/02/22-rdf-syntax-ns#"
   xmlns:svg="http://www.w3.org/2000/svg"
   xmlns="http://www.w3.org/2000/svg"
   xmlns:sodipodi="http://sodipodi.sourceforge.net/DTD/sodipodi-0.dtd"
   xmlns:inkscape="http://www.inkscape.org/namespaces/inkscape"
   width="172"
   height="139"
   viewBox="0 0 172 139"
   fill="none"
   version="1.1"
   id="svg26"
   sodipodi:docname="emsx-logo.svg"
   inkscape:version="1.0.2 (e86c870879, 2021-01-15, custom)">
  <metadata
     id="metadata32">
    <rdf:RDF>
      <cc:Work
         rdf:about="">
        <dc:format>image/svg+xml</dc:format>
        <dc:type
           rdf:resource="http://purl.org/dc/dcmitype/StillImage" />
        <dc:title></dc:title>
      </cc:Work>
    </rdf:RDF>
  </metadata>
  <defs
     id="defs30" />
  <sodipodi:namedview
     pagecolor="#ffffff"
     bordercolor="#666666"
     borderopacity="1"
     objecttolerance="10"
     gridtolerance="10"
     guidetolerance="10"
     inkscape:pageopacity="0"
     inkscape:pageshadow="2"
     inkscape:window-width="1920"
     inkscape:window-height="1017"
     id="namedview28"
     showgrid="false"
     inkscape:zoom="2.93942"
     inkscape:cx="130.02961"
     inkscape:cy="40.989563"
     inkscape:window-x="1912"
     inkscape:window-y="-8"
     inkscape:window-maximized="1"
     inkscape:current-layer="svg26"
     inkscape:document-rotation="0" />
  <path
     fill-rule="evenodd"
     clip-rule="evenodd"
     d="m 145.2333,52.837583 6.72145,6.4309 -9.82202,9.39737 9.8789,9.452029 -6.72145,6.43091 -9.8789,-9.452158 -9.43057,9.023399 -6.72145,-6.430866 9.43101,-9.023314 -9.37369,-8.968654 6.72101,-6.430889 9.37369,8.968761 z"
     fill="#71DBFF"
     id="path22"
     style="fill:#373d42;fill-opacity:1;stroke-width:0.435087" />
  <path
     d="M 38.669583,84.198765 V 78.152903 H 26.648105 V 71.356841 H 37.277127 V 65.531663 H 26.648105 V 59.265202 H 38.669583 V 53.219357 H 18.711174 v 30.979408 z m 15.089967,0 V 65.575801 l 7.322904,18.622964 h 6.3958 l 7.276872,-18.578827 v 18.578827 h 7.925155 V 53.219357 H 73.364358 L 64.326587,74.66664 55.196307,53.219357 h -9.36218 v 30.979408 z m 48.01691,0.243903 c 2.44118,0 4.55755,-0.42633 6.34955,-1.279033 1.792,-0.852661 3.15966,-1.999411 4.10166,-3.440166 0.94243,-1.440712 1.41387,-3.043189 1.41387,-4.807387 0,-1.852387 -0.47899,-3.366633 -1.43698,-4.542779 -0.95754,-1.176103 -2.09327,-2.072901 -3.40627,-2.690349 -1.31346,-0.61749 -3.02059,-1.264334 -5.1214,-1.940618 -2.10126,-0.646844 -3.64622,-1.249637 -4.634865,-1.808292 -0.98865,-0.558656 -1.48319,-1.337826 -1.48319,-2.337552 0,-0.911496 0.2937,-1.609805 0.88067,-2.09497 0.58697,-0.485123 1.35967,-0.727705 2.317215,-0.727705 1.11261,0 2.02394,0.286677 2.73443,0.86003 0.71093,0.573354 1.09707,1.359895 1.15883,2.359621 h 8.57433 c -0.15463,-2.910906 -1.32857,-5.182304 -3.52224,-6.814172 -2.19413,-1.631869 -5.08275,-2.447805 -8.6672,-2.447805 -3.522245,0 -6.380209,0.815936 -8.574335,2.447805 -2.19368,1.631868 -3.290744,3.888568 -3.290744,6.770035 0,1.940618 0.478993,3.513698 1.436979,4.719199 0.957986,1.205542 2.10126,2.117038 3.429822,2.734486 1.32856,0.617448 3.043253,1.234938 5.144513,1.852386 1.452085,0.411632 2.572255,0.779171 3.360065,1.102614 0.7878,0.323444 1.45253,0.735076 1.99284,1.234939 0.54075,0.499863 0.81135,1.132009 0.81135,1.896481 0,0.911495 -0.33992,1.624544 -1.01975,2.139107 -0.67983,0.514518 -1.60671,0.771799 -2.78064,0.771799 -1.14328,0 -2.070165,-0.301375 -2.781105,-0.904125 -0.71049,-0.602751 -1.12772,-1.477522 -1.25124,-2.624229 H 89.07737 c 0.06176,2.028806 0.656727,3.763609 1.784449,5.204321 1.127722,1.440754 2.634017,2.528669 4.518885,3.263746 1.884871,0.735075 4.016791,1.102613 6.395756,1.102613 z"
     fill="#383C50"
     id="path24"
     style="fill:#373d42;fill-opacity:1;stroke-width:0.435087" />
</svg>
