<svg width="126" height="126" viewBox="0 0 126 126" fill="none" xmlns="http://www.w3.org/2000/svg">
<path d="M40.2505 53.9693V65.8574C40.2505 69.9536 39.9508 71.9182 39.0518 73.6166C38.2191 75.2486 37.12 76.2807 34.8557 77.413L30.0936 75.1485C32.3581 74.083 33.457 73.1508 34.1562 71.7184C34.889 70.2532 35.1223 68.5548 35.1223 64.0926V53.9693H40.2505ZM35.1223 46.0769H40.2505V51.3385H35.1223V46.0769Z" fill="#707070"/>
<path d="M43.3484 55.1348C45.6131 54.0694 47.7775 53.6033 50.1419 53.6033C52.7727 53.6033 54.5042 54.3023 55.2702 55.6678C55.7029 56.4336 55.8361 57.4326 55.8361 59.5641V69.9869C53.5381 70.3199 50.6411 70.5532 48.51 70.5532C44.2143 70.5532 42.2826 69.0541 42.2826 65.7243C42.2826 62.1277 44.8468 60.4627 51.1408 59.9297V58.7976C51.1408 57.8652 50.6746 57.5325 49.3758 57.5325C47.4778 57.5325 45.3465 58.0653 43.3481 59.0977V55.1348H43.3484ZM51.3739 63.2935C47.977 63.6265 46.8782 64.1595 46.8782 65.4914C46.8782 66.4904 47.5111 66.9566 48.9096 66.9566C49.6757 66.9566 50.3747 66.8902 51.3739 66.7237V63.2935Z" fill="#707070"/>
<path d="M58.3339 54.7685C61.364 53.9693 63.8616 53.6033 66.3925 53.6033C69.0233 53.6033 70.9215 54.2024 72.0541 55.3681C73.1196 56.4667 73.4524 57.6655 73.4524 60.2301V70.2866H68.324V60.4299C68.324 58.4653 67.6581 57.7323 65.8266 57.7323C65.1274 57.7323 64.4947 57.7989 63.462 58.0986V70.2866H58.3339V54.7685Z" fill="#707070"/>
<path d="M75.4458 73.084C77.2443 74.0163 79.0424 74.449 80.9404 74.449C84.3036 74.449 85.7356 73.084 85.7356 69.8203C85.7356 69.787 85.7356 69.7537 85.7356 69.7204C84.7367 70.2197 83.7375 70.4197 82.4058 70.4197C77.9101 70.4197 75.0458 67.4559 75.0458 62.7606C75.0458 56.9326 79.2753 53.6362 86.7677 53.6362C88.9658 53.6362 90.9972 53.8691 93.4615 54.3686L91.7055 58.0677C90.34 57.8013 91.5961 58.032 90.5643 57.9321V58.4651L90.6307 60.6293L90.6638 63.4268C90.6971 64.1259 90.6971 64.8253 90.7306 65.5246C90.7306 66.1573 90.7306 66.4572 90.7306 66.9234C90.7306 71.3192 90.3643 73.3837 89.2655 75.0819C87.6669 77.5797 84.903 78.8117 80.9735 78.8117C78.9754 78.8117 77.2441 78.512 75.4456 77.8126V73.084H75.4458ZM85.6359 57.7654C85.5693 57.7654 85.503 57.7654 85.4697 57.7654H85.1032C84.1044 57.7321 82.939 57.9983 82.1394 58.4978C80.9076 59.1973 80.2745 60.4628 80.2745 62.2609C80.2745 64.8253 81.5402 66.2905 83.8045 66.2905C84.5038 66.2905 85.0701 66.1571 85.7358 65.9575V65.591V64.1927C85.7358 63.5933 85.7028 62.9269 85.7028 62.2279L85.6697 59.8637L85.6362 58.1652V57.7654H85.6359Z" fill="#707070"/>
</svg>
