<svg width="149" height="149" viewBox="0 0 149 149" fill="none" xmlns="http://www.w3.org/2000/svg">
<path d="M95.9159 72.2197V62.9385C95.9159 61.2273 94.5237 59.8351 92.8125 59.8351C91.1013 59.8351 89.7091 61.2273 89.7091 62.9385V66.0419H86.6057C86.6057 59.197 81.0659 53.6573 74.221 53.6573H68.0432H61.8653C59.603 53.6573 57.4857 53.0482 55.6875 52.004V83.0672H61.8653V95.4229C61.8653 98.8453 64.6207 101.601 68.0432 101.601H74.25V113.985H105.197V72.2197H95.9159Z" fill="white"/>
<path d="M106.734 53.6572H103.631C103.631 47.6824 98.7873 42.8388 92.8125 42.8388V39.7354C100.499 39.7354 106.734 45.9712 106.734 53.6572Z" fill="#232323"/>
<path d="M92.8124 39.7354H74.2499V42.8388H92.8124V39.7354Z" fill="#232323"/>
<path d="M71.1466 59.8351C69.4353 59.8351 68.0432 61.2273 68.0432 62.9385C68.0432 64.6497 69.4353 66.0419 71.1466 66.0419C72.8578 66.0419 74.25 64.6497 74.25 62.9385C74.25 61.2273 72.8578 59.8351 71.1466 59.8351Z" fill="#232323"/>
<path d="M106.734 73.7569H95.9158V70.6825H103.631V53.6572H106.734V73.7569Z" fill="#232323"/>
<path d="M92.8125 76.8604V73.7569C93.6536 73.7569 94.3497 73.0608 94.3497 72.2197V62.9385C94.3497 62.0974 93.6536 61.4013 92.8125 61.4013C91.9714 61.4013 91.2753 62.0974 91.2753 62.9385H88.1719C88.1719 60.3861 90.2602 58.2979 92.8125 58.2979C95.3648 58.2979 97.4531 60.3861 97.4531 62.9385V72.2197C97.4531 74.7721 95.3648 76.8604 92.8125 76.8604Z" fill="#232323"/>
<path d="M71.1465 96.9601C68.5942 96.9601 66.5059 94.8718 66.5059 92.3195C66.5059 89.7671 68.5942 87.6788 71.1465 87.6788C73.6989 87.6788 75.7872 89.7671 75.7872 92.3195C75.7872 94.9008 73.7279 96.9601 71.1465 96.9601ZM71.1465 90.7823C70.3054 90.7823 69.6093 91.4783 69.6093 92.3195C69.6093 93.1606 70.3054 93.8567 71.1465 93.8567C71.9877 93.8567 72.6838 93.1606 72.6838 92.3195C72.7128 91.4783 72.0167 90.7823 71.1465 90.7823Z" fill="#232323"/>
<path d="M55.6874 95.4229L46.9282 86.6637C44.6949 84.4304 41.5915 83.0382 38.169 83.0382C31.3241 83.0382 25.7844 88.578 25.7844 95.4229C25.7844 102.268 31.3241 107.808 38.169 107.808C41.5915 107.808 44.6949 106.415 46.9282 104.182L55.6874 95.4229Z" fill="white"/>
<path d="M34.0215 95.4228C34.0215 96.2639 33.3254 96.96 32.4843 96.96C31.6432 96.96 30.9471 96.2639 30.9471 95.4228C30.9471 94.5817 31.6432 93.8856 32.4843 93.8856C33.3254 93.8856 34.0215 94.5817 34.0215 95.4228Z" fill="#232323"/>
<path d="M38.662 96.96C39.5109 96.96 40.1992 96.2718 40.1992 95.4228C40.1992 94.5738 39.5109 93.8856 38.662 93.8856C37.813 93.8856 37.1248 94.5738 37.1248 95.4228C37.1248 96.2718 37.813 96.96 38.662 96.96Z" fill="#232323"/>
<path d="M44.8689 96.96C45.7179 96.96 46.4061 96.2718 46.4061 95.4228C46.4061 94.5738 45.7179 93.8856 44.8689 93.8856C44.02 93.8856 43.3317 94.5738 43.3317 95.4228C43.3317 96.2718 44.02 96.96 44.8689 96.96Z" fill="#232323"/>
<path d="M88.1718 66.0419H85.0684C85.0684 60.0671 80.2247 55.2234 74.2499 55.2234H68.0721V52.12H74.2499C81.936 52.12 88.1718 58.3559 88.1718 66.0419Z" fill="#232323"/>
<path d="M106.734 73.7569H95.9158V70.6825H103.631V53.6572H106.734V73.7569Z" fill="#232323"/>
<path d="M92.8125 76.8604V73.7569C93.6536 73.7569 94.3497 73.0608 94.3497 72.2197V62.9385C94.3497 62.0974 93.6536 61.4013 92.8125 61.4013C91.9714 61.4013 91.2753 62.0974 91.2753 62.9385V66.0419H88.1719V62.9385C88.1719 60.3861 90.2602 58.2979 92.8125 58.2979C95.3648 58.2979 97.4531 60.3861 97.4531 62.9385V72.2197C97.4531 74.7721 95.3648 76.8604 92.8125 76.8604Z" fill="#232323"/>
<path d="M89.7379 62.9385H86.6345V66.0419H89.7379V62.9385Z" fill="#232323"/>
<path d="M88.1718 66.0419H85.0684C85.0684 60.0671 80.2247 55.2234 74.2499 55.2234H68.0721V52.12H74.2499C81.936 52.12 88.1718 58.3559 88.1718 66.0419Z" fill="#232323"/>
<path d="M68.0431 52.12H61.8652V55.2234H68.0431V52.12Z" fill="#232323"/>
<path d="M61.8652 55.1944C54.1792 55.1944 47.9434 48.9586 47.9434 41.2726V39.7354H74.2499V42.8388H51.1628C51.9169 48.0885 56.4415 52.12 61.8942 52.12L61.8652 55.1944Z" fill="#232323"/>
</svg>
