<svg width="323" height="234" viewBox="0 0 323 234" fill="none" xmlns="http://www.w3.org/2000/svg">
<g clip-path="url(#clip0)">
<path d="M188.709 127.217L178.787 107.252L180.616 103.526L194.268 130.943H162.601L160.771 127.358L188.709 127.217ZM194.691 130.592L196.52 127.006L180.687 95.0203L166.964 122.507H170.694L180.687 102.472L194.691 130.592ZM179.983 95.1609H176.253L160.49 126.655L187.724 126.585L185.894 122.929L166.049 122.859L179.983 95.1609Z" fill="white"/>
<path d="M40.1857 130.929H44.7595V103.61H40.1857V130.929ZM27.7578 95.0076V99.0724H57.1559V95.0076H27.7578Z" fill="white"/>
<path d="M66.8396 99.0409H86.2385V94.9761H62.2659V106.099H66.8396V99.0409ZM62.2974 126.896V130.961H86.7117V126.896H62.2974ZM66.8396 114.481H83.7151V110.7H62.2974V122.327H66.8711L66.8396 114.481Z" fill="white"/>
<path d="M95.3229 107.927C95.8276 106.257 96.6477 104.744 97.6886 103.421C98.698 102.097 100.023 100.995 101.537 100.175C103.051 99.356 104.817 98.9149 106.868 98.9149C107.782 98.9149 108.697 99.0094 109.643 99.23C110.558 99.419 111.473 99.7972 112.388 100.238C113.239 100.742 114.123 101.341 114.88 102.097C115.637 102.917 116.299 103.862 116.867 104.996L120.463 102.665C119.359 100.333 117.624 98.4737 115.353 96.9927C113.019 95.5748 110.274 94.8185 107.088 94.8185C104.344 94.8185 101.978 95.3857 99.8335 96.394C97.6571 97.4654 95.8907 98.8203 94.4082 100.553C92.9256 102.286 91.8216 104.209 91.0646 106.32C90.4968 107.832 90.2129 109.345 90.0552 110.826H94.6605C94.8182 109.849 95.0075 108.872 95.3229 107.927ZM117.308 120.815C116.804 121.917 116.141 122.894 115.321 123.714C114.501 124.533 113.649 125.195 112.798 125.699C111.82 126.203 110.937 126.613 109.896 126.802C108.886 127.054 107.909 127.148 106.994 127.148C105.164 127.148 103.556 126.802 102.042 125.982C100.527 125.226 99.2027 124.155 98.0987 122.831C96.9316 121.508 96.0799 120.058 95.4491 118.325C95.039 117.254 94.7867 116.214 94.629 115.048H90.0237C90.2129 116.561 90.5915 118.042 91.1277 119.491C91.9478 121.728 93.1149 123.682 94.629 125.415C96.143 127.148 97.9094 128.566 99.9913 129.606C102.01 130.709 104.313 131.213 106.773 131.213C108.129 131.213 109.549 131.055 111.031 130.646C112.451 130.299 113.807 129.795 115.132 129.039C116.457 128.377 117.624 127.463 118.633 126.455C119.643 125.447 120.463 124.218 121.062 122.863L117.308 120.815Z" fill="white"/>
<path d="M126.803 130.929H131.376V95.0076H126.803V130.929ZM151.185 95.0076V110.542H135.414V114.607H151.185V130.961H155.759V95.0391H151.185V95.0076Z" fill="white"/>
<path d="M220.075 117.191C221.179 116.939 222.252 116.435 223.166 115.71C224.081 115.048 224.901 114.229 225.532 113.284C226.194 112.37 226.699 111.298 227.046 110.133C227.393 108.967 227.614 107.769 227.614 106.477C227.614 105.059 227.298 103.704 226.794 102.318C226.226 100.963 225.469 99.7341 224.523 98.6313C223.576 97.5284 222.409 96.6461 221.085 95.9844C219.76 95.3227 218.309 94.9761 216.732 94.9761H201.339V130.898H205.912V117.979H210.486L207.963 113.914H205.944V98.9779H216.542C217.394 98.9779 218.214 99.1669 219.034 99.5766C219.854 99.9862 220.517 100.49 221.116 101.184C221.715 101.877 222.189 102.665 222.536 103.547C222.882 104.461 223.103 105.406 223.103 106.383C223.103 107.391 222.946 108.305 222.662 109.219C222.315 110.196 221.905 110.952 221.4 111.645C220.832 112.338 220.17 112.905 219.413 113.252C218.656 113.662 217.804 113.851 216.889 113.851H212.883L215.438 118.042L223.64 130.961H228.813L220.075 117.191Z" fill="white"/>
<path d="M244.426 125.982C242.849 125.289 241.524 124.249 240.483 122.957C239.379 121.634 238.465 120.184 237.834 118.451C237.171 116.718 236.856 114.954 236.856 113C236.856 111.235 237.108 109.471 237.708 107.738C238.275 106.005 239.064 104.555 240.136 103.232C241.146 101.908 242.408 100.9 243.922 100.081C245.404 99.2615 247.013 98.8519 248.874 98.8519C251.113 98.8519 253.069 99.356 254.899 100.364C256.665 101.373 258.084 102.948 259.22 105.028L262.753 102.602C261.523 100.333 259.819 98.4107 257.58 96.9297C255.34 95.5117 252.47 94.7555 249.032 94.7555C246.603 94.7555 244.363 95.2597 242.344 96.2365C240.263 97.2448 238.496 98.5683 237.014 100.238C235.5 101.908 234.333 103.83 233.512 106.005C232.661 108.179 232.251 110.448 232.251 112.874C232.251 115.237 232.661 117.475 233.512 119.649C234.364 121.886 235.531 123.808 237.045 125.51C238.528 127.243 240.231 128.598 242.313 129.606C244.332 130.677 246.571 131.182 249 131.182C251.523 131.182 253.858 130.583 256.034 129.259V125.005C253.921 126.423 251.681 127.085 249.347 127.085C247.549 127.085 245.94 126.739 244.426 125.982ZM252.217 113.032V116.466H259.977V130.929H263.825V113H252.217V113.032Z" fill="white"/>
<path d="M275.37 99.0409H294.769V94.9761H270.796V106.099H275.37V99.0409ZM270.796 126.896V130.961H295.242V126.896H270.796ZM275.37 114.481H292.246V110.7H270.828V122.327H275.37V114.481Z" fill="white"/>
</g>
<defs>
<clipPath id="clip0">
<rect width="323" height="242" fill="white" transform="translate(0 -8)"/>
</clipPath>
</defs>
</svg>
