<svg width="129" height="119" viewBox="0 0 129 119" fill="none" xmlns="http://www.w3.org/2000/svg">
<path d="M69.3926 9.9119C69.3926 4.46105 64.9315 0 59.4807 0H9.91189C4.46105 0 0 4.46105 0 9.9119V109.045C0 114.496 4.46105 118.957 9.91189 118.957H59.4807C64.9315 118.957 69.3926 114.496 69.3926 109.045V9.9119Z" fill="#111111"/>
<path d="M44.6104 7.43506H24.782V12.3933H44.6104V7.43506Z" fill="#111111"/>
<path d="M61.9528 19.8281H7.43042V99.1372H61.9528V19.8281Z" fill="white"/>
<path d="M64.4343 101.614H4.95361V17.3467H64.4343V101.614ZM9.91188 96.6558H59.4806V22.3049H9.91188V96.6558Z" fill="#232323"/>
<path d="M38.4114 110.285C38.4114 112.339 36.7478 114.003 34.6939 114.003C32.6399 114.003 30.9763 112.339 30.9763 110.285C30.9763 108.231 32.6399 106.568 34.6939 106.568C36.7478 106.568 38.4114 108.231 38.4114 110.285Z" fill="#111111"/>
<path d="M76.8276 27.2637H24.782V32.2219H76.8276V27.2637Z" fill="#232323"/>
<path d="M76.8276 57.0039H24.782V61.9622H76.8276V57.0039Z" fill="#232323"/>
<path d="M76.8276 86.7441H24.782V91.7024H76.8276V86.7441Z" fill="#232323"/>
</svg>
