<svg width="129" height="119" viewBox="0 0 129 119" fill="none" xmlns="http://www.w3.org/2000/svg">
<path d="M69.3926 9.9119C69.3926 4.46105 64.9315 0 59.4807 0H9.91189C4.46105 0 0 4.46105 0 9.9119V109.045C0 114.496 4.46105 118.957 9.91189 118.957H59.4807C64.9315 118.957 69.3926 114.496 69.3926 109.045V9.9119Z" fill="#111111"/>
<path d="M44.6104 7.43506H24.782V12.3933H44.6104V7.43506Z" fill="#111111"/>
<path d="M61.9528 19.8281H7.43042V99.1372H61.9528V19.8281Z" fill="white"/>
<path d="M64.4343 101.614H4.95361V17.3467H64.4343V101.614ZM9.91188 96.6558H59.4806V22.3049H9.91188V96.6558Z" fill="#232323"/>
<path d="M38.4114 110.285C38.4114 112.339 36.7478 114.003 34.6939 114.003C32.6399 114.003 30.9763 112.339 30.9763 110.285C30.9763 108.231 32.6399 106.568 34.6939 106.568C36.7478 106.568 38.4114 108.231 38.4114 110.285Z" fill="#111111"/>
<path d="M128.873 17.3467H123.915V22.3049H128.873V17.3467Z" fill="#111111"/>
<path d="M118.956 22.3049H113.998V17.3467H118.956V22.3049ZM109.045 22.3049H104.086V17.3467H109.045V22.3049ZM99.1326 22.3049H94.1744V17.3467H99.1326V22.3049ZM89.2161 22.3049H84.2578V17.3467H89.2161V22.3049Z" fill="#232323"/>
<path d="M79.3042 17.3467H74.3459V22.3049H79.3042V17.3467Z" fill="#232323"/>
<path d="M79.3042 27.2632H74.3459V32.2215H79.3042V27.2632Z" fill="#232323"/>
<path d="M79.3042 37.1753H74.3459V42.1336H79.3042V37.1753Z" fill="#232323"/>
<path d="M118.956 42.1336H113.998V37.1753H118.956V42.1336ZM109.045 42.1336H104.086V37.1753H109.045V42.1336ZM99.1326 42.1336H94.1744V37.1753H99.1326V42.1336ZM89.2161 42.1336H84.2578V37.1753H89.2161V42.1336Z" fill="#232323"/>
<path d="M128.873 37.1753H123.915V42.1336H128.873V37.1753Z" fill="#232323"/>
<path d="M128.873 27.2632H123.915V32.2215H128.873V27.2632Z" fill="#232323"/>
<path d="M128.873 71.8739H74.3462V47.0918H128.869V71.8739H128.873ZM79.3045 66.9156H123.915V52.0454H79.3045V66.9156Z" fill="#232323"/>
<path d="M128.873 101.614H74.3462V76.832H128.869V101.614H128.873ZM79.3045 96.6558H123.915V81.7857H79.3045V96.6558Z" fill="#232323"/>
<path d="M76.8276 27.2637H24.782V32.2219H76.8276V27.2637Z" fill="#232323"/>
<path d="M76.8276 57.0039H24.782V61.9622H76.8276V57.0039Z" fill="#232323"/>
<path d="M76.8276 86.7441H24.782V91.7024H76.8276V86.7441Z" fill="#232323"/>
</svg>
