<svg width="60" height="61" viewBox="0 0 60 61" fill="none" xmlns="http://www.w3.org/2000/svg">
<path d="M55.0421 37.3677C48.2272 38.7768 47.753 36.46 47.753 36.46C54.9472 25.7838 57.955 12.2354 55.3672 8.91606C48.2814 -0.120727 36.0201 4.14702 35.8169 4.26896L35.7491 4.2825C34.4078 3.99799 32.8904 3.83541 31.1969 3.80831C28.1078 3.75412 25.7775 4.62122 24.0027 5.96251C24.0027 5.96251 2.13553 -3.04718 3.15166 17.289C3.36843 21.6109 9.35683 50.0355 16.4968 41.4458C19.1117 38.3026 21.6317 35.6606 21.6317 35.6606C22.8781 36.4871 24.382 36.9206 25.9536 36.758L26.0756 36.6497C26.0349 37.0426 26.0485 37.4219 26.1298 37.869C24.2872 39.9284 24.8291 40.2806 21.1575 41.0393C17.4317 41.8116 19.6265 43.1664 21.0491 43.5322C22.7833 43.9658 26.7801 44.5755 29.4898 40.7955L29.3814 41.229C30.0994 41.8116 30.6143 44.9819 30.5194 47.8677C30.4381 50.7535 30.384 52.7316 30.9394 54.2761C31.4949 55.8206 32.0775 59.289 36.9007 58.2594C40.9382 57.3923 43.0382 55.1568 43.3227 51.4039C43.5259 48.7484 44.0001 49.1413 44.0272 46.7568L44.4066 45.6322C44.8401 42.0284 44.4743 40.8632 46.9672 41.4051L47.5769 41.4593C49.4059 41.5406 51.804 41.1613 53.213 40.5109C56.2343 39.1019 58.0227 36.758 55.0421 37.3677Z" stroke="#707070" stroke-width="1.68882" stroke-linecap="round" stroke-linejoin="round"/>
<path d="M29.7734 39.439C29.5838 46.1454 29.8141 52.9061 30.478 54.5454C31.1283 56.1848 32.5373 59.3822 37.3741 58.339C41.4115 57.4719 42.8883 55.7919 43.5251 52.0932C43.9993 49.3699 44.8935 41.8099 45.0154 40.2654" stroke="#707070" stroke-width="1.68882" stroke-linecap="round" stroke-linejoin="round"/>
<path d="M23.9747 5.81183C23.9747 5.81183 2.094 -3.13012 3.11013 17.206C3.32691 21.528 9.3153 49.9525 16.4553 41.3628C19.0702 38.2196 21.4276 35.7674 21.4276 35.7674" stroke="#707070" stroke-width="1.68882" stroke-linecap="round" stroke-linejoin="round"/>
<path d="M35.7889 4.17236C35.0302 4.41624 47.9554 -0.556031 55.3122 8.83302C57.9135 12.1524 54.9057 25.7008 47.698 36.3769" stroke="#707070" stroke-width="1.68882" stroke-linecap="round" stroke-linejoin="round"/>
<path d="M47.7115 36.3905C47.7115 36.3905 48.1857 38.6937 55.0006 37.2982C57.9812 36.675 56.1928 39.0324 53.158 40.4415C50.6786 41.5931 45.0967 41.8911 45.0154 40.2924C44.7715 36.1602 47.9418 37.4202 47.7115 36.3905ZM47.7115 36.3905C47.5083 35.4556 46.0857 34.5479 45.1509 32.2853C44.338 30.3072 33.9328 15.1059 48.0367 17.355C48.5515 17.2466 44.3651 3.94204 31.1554 3.72527C17.9592 3.50849 18.3928 19.9563 18.3928 19.9563" stroke="#707070" stroke-width="1.68882" stroke-linecap="round" stroke-linejoin="bevel"/>
<path d="M26.0747 37.7859C24.2321 39.8452 24.7741 40.1975 21.1024 40.9562C17.3766 41.7285 19.5715 43.0833 20.9941 43.4491C22.7282 43.8827 26.725 44.4923 29.4347 40.7123C30.2612 39.5607 29.4347 37.7181 28.2966 37.2575C27.7412 37.0272 27.0095 36.7426 26.0747 37.7859Z" stroke="#707070" stroke-width="1.68882" stroke-linecap="round" stroke-linejoin="round"/>
<path d="M25.9528 37.7587C25.7631 36.5529 26.3457 35.1168 26.9689 33.4368C27.9037 30.9168 30.0715 28.3832 28.3373 20.3897C27.0502 14.4284 18.3928 19.1432 18.3928 19.9561C18.3928 20.769 18.7857 24.0613 18.2437 27.882C17.5392 32.8813 21.4276 37.1084 25.8986 36.6749" stroke="#707070" stroke-width="1.68882" stroke-linecap="round" stroke-linejoin="round"/>
<path d="M23.8934 19.8208C23.8527 20.0918 24.3947 20.837 25.1127 20.9318C25.8173 21.0266 26.4269 20.4576 26.4676 20.1731C26.5082 19.9021 25.9663 19.5905 25.2482 19.4957C24.5437 19.4008 23.934 19.5499 23.8934 19.8208Z" fill="#707070" stroke="#707070" stroke-width="0.562936"/>
<path d="M45.4895 19.2517C45.5302 19.5227 44.9883 20.2679 44.2702 20.3627C43.5657 20.4575 42.956 19.8885 42.9154 19.604C42.8747 19.333 43.4166 19.0214 44.1347 18.9266C44.8528 18.8317 45.4489 18.9808 45.4895 19.2517Z" fill="#707070" stroke="#707070" stroke-width="0.281468"/>
<path d="M48.0367 17.3413C48.1586 19.5091 47.5761 20.9858 47.4948 23.2891C47.3864 26.6355 49.0935 30.4833 46.5193 34.3175" stroke="#707070" stroke-width="1.68882" stroke-linecap="round" stroke-linejoin="round"/>
</svg>
