<?xml version="1.0" encoding="UTF-8" standalone="no"?>
<svg
   xmlns:dc="http://purl.org/dc/elements/1.1/"
   xmlns:cc="http://creativecommons.org/ns#"
   xmlns:rdf="http://www.w3.org/1999/02/22-rdf-syntax-ns#"
   xmlns:svg="http://www.w3.org/2000/svg"
   xmlns="http://www.w3.org/2000/svg"
   xmlns:sodipodi="http://sodipodi.sourceforge.net/DTD/sodipodi-0.dtd"
   xmlns:inkscape="http://www.inkscape.org/namespaces/inkscape"
   width="172"
   height="139"
   viewBox="0 0 172 50.2"
   version="1.1"
   id="svg34"
   sodipodi:docname="Sayso Logo.svg"
   inkscape:version="1.0.2 (e86c870879, 2021-01-15, custom)">
  <metadata
     id="metadata40">
    <rdf:RDF>
      <cc:Work
         rdf:about="">
        <dc:format>image/svg+xml</dc:format>
        <dc:type
           rdf:resource="http://purl.org/dc/dcmitype/StillImage" />
        <dc:title></dc:title>
      </cc:Work>
    </rdf:RDF>
  </metadata>
  <defs
     id="defs38" />
  <sodipodi:namedview
     pagecolor="#ffffff"
     bordercolor="#666666"
     borderopacity="1"
     objecttolerance="10"
     gridtolerance="10"
     guidetolerance="10"
     inkscape:pageopacity="0"
     inkscape:pageshadow="2"
     inkscape:window-width="1920"
     inkscape:window-height="1017"
     id="namedview36"
     showgrid="false"
     units="px"
     inkscape:zoom="4.302271"
     inkscape:cx="120"
     inkscape:cy="62.289661"
     inkscape:window-x="1912"
     inkscape:window-y="-8"
     inkscape:window-maximized="1"
     inkscape:current-layer="svg34" />
  <path
     fill="#000000"
     d="m 81.032023,29.729387 c 0,2.2165 -0.800402,3.878876 -2.462777,5.048695 -1.662376,1.16982 -3.940445,1.723945 -6.834209,1.723945 -3.263181,0 -5.787529,-0.677264 -7.511473,-2.031792 -1.539236,-1.231389 -2.401209,-2.955334 -2.647486,-5.233403 v 0 c -0.06157,-1.231389 0.369416,-2.401209 0.369416,-2.401209 l 2.647487,0.738834 c -0.307848,0.923541 -0.184709,1.600805 -0.184709,1.600805 v 0 c 0.123139,1.600806 0.861973,2.832195 2.339639,3.694167 1.292959,0.738834 2.955334,1.10825 5.048695,1.10825 4.371431,0 6.587931,-1.354528 6.587931,-4.125153 0,-0.923542 -0.369417,-1.662375 -1.169819,-2.2165 -0.800403,-0.554125 -1.785514,-0.985111 -2.955334,-1.354528 -1.169819,-0.369417 -2.462778,-0.677264 -3.878875,-0.985111 -1.354528,-0.307847 -2.647487,-0.677264 -3.878876,-1.16982 -1.169819,-0.492555 -2.15493,-1.10825 -2.955333,-1.908653 -0.800403,-0.800402 -1.16982,-1.847083 -1.16982,-3.201611 0,-1.908653 0.738834,-3.447889 2.216501,-4.679278 1.477666,-1.231389 3.694167,-1.785514 6.587931,-1.785514 2.955333,0 5.294972,0.677263 6.895778,2.031791 1.477667,1.231389 2.27807,2.770626 2.401208,4.617709 v 0 c 0.06157,1.046681 -0.123138,2.27807 -0.123138,2.27807 l -2.585917,-0.861973 c 0.123139,-0.307847 0,-1.416097 0,-1.416097 v 0 c -0.246278,-1.908653 -1.477667,-3.201611 -3.755737,-3.878875 -0.800403,-0.246278 -1.785514,-0.369417 -3.016903,-0.369417 -1.169819,0 -2.2165,0.123139 -3.016903,0.430986 -0.800403,0.246278 -1.416097,0.615695 -1.908653,0.985111 -0.430986,0.369417 -0.738833,0.800403 -0.923541,1.292959 -0.123139,0.492555 -0.246278,0.985111 -0.246278,1.477667 0,0.554125 0.246278,1.04668 0.677264,1.477666 0.430986,0.430987 1.04668,0.800404 1.847083,1.108251 0.738834,0.307847 1.600806,0.554125 2.585917,0.800403 0.985111,0.246278 1.970222,0.492555 2.955334,0.738833 0.985111,0.246278 1.970222,0.554125 2.955333,0.861972 0.985111,0.307848 1.847084,0.738834 2.585917,1.231389 1.662375,1.046681 2.524347,2.524348 2.524347,4.371431 z m 24.504637,13.729987 h 2.89376 l 10.46681,-24.689349 h -2.89377 z m 31.031,-18.101418 c -0.73883,-0.492555 -1.60081,-0.923541 -2.58592,-1.231389 -0.98511,-0.307847 -1.97022,-0.615694 -2.95533,-0.861972 -0.98511,-0.246278 -1.97022,-0.492555 -2.95533,-0.738833 -0.98512,-0.246278 -1.84709,-0.492556 -2.58592,-0.800403 -0.73883,-0.307847 -1.35453,-0.677264 -1.84708,-1.108251 -0.43099,-0.430986 -0.67727,-0.923541 -0.67727,-1.477666 0,-0.554125 0.0616,-1.046681 0.24628,-1.477667 0.12314,-0.492556 0.43099,-0.923542 0.92354,-1.292959 0.43099,-0.369416 1.10825,-0.738833 1.90865,-0.985111 0.80041,-0.246278 1.78552,-0.430986 3.01691,-0.430986 1.16982,0 2.2165,0.123139 3.0169,0.369417 2.27807,0.615694 3.50946,1.908653 3.75574,3.878875 v 0 c 0,0 0.12314,1.10825 0,1.416097 l 2.58591,0.861973 c 0,0 0.18471,-1.231389 0.12314,-2.27807 v 0 c -0.12314,-1.908653 -0.86197,-3.447889 -2.40121,-4.617709 -1.6008,-1.354528 -3.94044,-2.031791 -6.89577,-2.031791 -2.95534,0 -5.17184,0.615694 -6.58794,1.785514 -1.47766,1.231389 -2.2165,2.770625 -2.2165,4.679278 0,1.354528 0.36942,2.401209 1.16982,3.201611 0.80041,0.800403 1.78552,1.416098 2.95534,1.908653 1.16982,0.492556 2.46277,0.861973 3.87887,1.16982 1.35453,0.307847 2.64749,0.615694 3.87888,0.985111 1.16982,0.369417 2.15493,0.800403 2.95533,1.354528 0.8004,0.554125 1.16982,1.292958 1.16982,2.2165 0,2.770625 -2.2165,4.125153 -6.58793,4.125153 -2.09336,0 -3.75574,-0.369416 -5.0487,-1.10825 -1.47766,-0.861972 -2.2165,-2.093361 -2.33963,-3.694167 v 0 c 0,0 -0.12314,-0.677264 0.30784,-1.662375 l -2.64748,-0.738833 c 0,0 -0.43099,1.169819 -0.36942,2.401208 v 0 c 0.18471,2.27807 1.10825,4.002014 2.64749,5.233403 1.72394,1.354528 4.24829,2.031792 7.51147,2.031792 2.89376,0 5.17183,-0.554125 6.83421,-1.723944 1.66237,-1.16982 2.46278,-2.832195 2.46278,-5.048695 -0.12314,-1.785514 -0.98512,-3.263181 -2.64749,-4.309862 z M 99.995413,18.708455 v 17.670433 h -2.647486 v -2.832195 c -1.416097,2.093361 -3.509458,3.140042 -6.341653,3.140042 -2.524347,0 -4.617708,-0.861972 -6.218514,-2.647486 -1.539236,-1.723945 -2.339639,-3.878876 -2.339639,-6.464792 0,-2.585917 0.800403,-4.740848 2.339639,-6.464793 1.600806,-1.785514 3.755736,-2.647486 6.403223,-2.647486 2.647486,0 4.740847,1.04668 6.156944,3.140042 v -2.893765 z m -2.524347,8.866002 c 0,-1.908653 -0.554125,-3.509459 -1.600805,-4.740848 -1.10825,-1.292958 -2.647487,-1.970223 -4.55614,-1.970223 -1.908652,0 -3.447889,0.677265 -4.617708,1.970223 -1.10825,1.231389 -1.662375,2.832195 -1.662375,4.740848 0,1.908653 0.554125,3.509458 1.662375,4.740847 1.169819,1.292959 2.709056,1.970223 4.617708,1.970223 1.908653,0 3.44789,-0.677264 4.55614,-1.970223 1.10825,-1.231389 1.600805,-2.832194 1.600805,-4.740847 z m 60.522764,-0.246278 c 0,2.647486 -0.8004,4.802417 -2.33964,6.464792 -1.66238,1.785514 -3.81731,2.647486 -6.46479,2.647486 -2.64749,0 -4.80242,-0.861972 -6.4648,-2.647486 -1.53923,-1.723945 -2.33963,-3.878875 -2.33963,-6.464792 0,-2.585917 0.8004,-4.802417 2.33963,-6.464793 1.66238,-1.785514 3.81731,-2.647486 6.4648,-2.647486 2.64748,0 4.80241,0.861972 6.46479,2.647486 1.53924,1.723945 2.33964,3.878876 2.33964,6.464793 z m -2.64749,0 c 0,-1.908653 -0.55412,-3.509459 -1.6008,-4.740848 -1.10825,-1.292959 -2.64749,-1.970223 -4.55614,-1.970223 -1.90866,0 -3.44789,0.677264 -4.55614,1.970223 -1.04668,1.231389 -1.60081,2.832195 -1.60081,4.740848 0,1.908653 0.55413,3.509458 1.60081,4.740847 1.10825,1.292959 2.64748,1.970223 4.55614,1.970223 1.90865,0 3.44789,-0.677264 4.55614,-1.970223 1.04668,-1.231389 1.6008,-2.832194 1.6008,-4.740847 z m -46.60807,1.723944 -4.18672,-10.282098 h -2.89376 l 5.60282,13.791557 z M 44.275062,12.61308 c -4.863986,0 -9.235417,2.955334 -11.020931,7.388334 l -1.970222,5.910667 v 0 l -0.677264,2.093362 c -1.416098,3.447889 -4.740848,5.664389 -8.435015,5.664389 -5.048695,0 -9.112279,-4.125153 -9.112279,-9.112278 0,-4.987126 4.063584,-9.112279 9.112279,-9.112279 3.140042,0 5.972237,1.539236 7.696181,4.186722 0.06157,0.06157 0.06157,0.123139 0.123139,0.246278 l 1.231389,-2.832195 0.06157,-0.184708 c -2.27807,-2.647486 -5.541251,-4.186723 -9.050709,-4.186723 -6.649501,-0.06157 -12.006043,5.294973 -12.006043,11.882905 0,6.587931 5.356542,11.944473 11.944473,11.944473 4.802417,0 9.112279,-2.832195 10.959362,-7.326765 l 2.031792,-6.033806 v 0 l 0.615694,-1.785514 c 1.354528,-3.509459 4.740848,-5.849098 8.558154,-5.849098 5.048695,0 9.112278,4.125153 9.112278,9.112279 0,2.462778 -0.923541,4.740848 -2.647486,6.464792 -1.723945,1.723945 -4.002014,2.647486 -6.464792,2.647486 -3.078473,0 -5.972237,-1.539236 -7.634612,-4.125153 -0.06157,-0.123138 -0.123139,-0.184708 -0.184708,-0.307847 l -1.231389,2.893764 v 0.06157 c 2.278069,2.647486 5.54125,4.186722 9.112278,4.186722 6.587931,0 11.944473,-5.356542 11.944473,-11.944473 0,-6.587931 -5.479681,-11.882904 -12.067612,-11.882904 z"
     id="path32"
     style="stroke-width:0.615694" />
</svg>
