<?xml version="1.0" encoding="UTF-8" standalone="no"?>
<svg
   xmlns:dc="http://purl.org/dc/elements/1.1/"
   xmlns:cc="http://creativecommons.org/ns#"
   xmlns:rdf="http://www.w3.org/1999/02/22-rdf-syntax-ns#"
   xmlns:svg="http://www.w3.org/2000/svg"
   xmlns="http://www.w3.org/2000/svg"
   xmlns:sodipodi="http://sodipodi.sourceforge.net/DTD/sodipodi-0.dtd"
   xmlns:inkscape="http://www.inkscape.org/namespaces/inkscape"
   height="32.700001"
   preserveAspectRatio="xMidYMid"
   width="189.10614"
   viewBox="0 0 19.364469 3.3395745"
   version="1.1"
   id="svg60"
   sodipodi:docname="tailwind-logo.svg"
   inkscape:version="1.0.2 (e86c870879, 2021-01-15, custom)">
  <metadata
     id="metadata66">
    <rdf:RDF>
      <cc:Work
         rdf:about="">
        <dc:format>image/svg+xml</dc:format>
        <dc:type
           rdf:resource="http://purl.org/dc/dcmitype/StillImage" />
        <dc:title></dc:title>
      </cc:Work>
    </rdf:RDF>
  </metadata>
  <defs
     id="defs64" />
  <sodipodi:namedview
     pagecolor="#ffffff"
     bordercolor="#666666"
     borderopacity="1"
     objecttolerance="10"
     gridtolerance="10"
     guidetolerance="10"
     inkscape:pageopacity="0"
     inkscape:pageshadow="2"
     inkscape:window-width="1920"
     inkscape:window-height="1017"
     id="namedview62"
     showgrid="false"
     inkscape:zoom="1.7898617"
     inkscape:cx="-52.831929"
     inkscape:cy="-12.958506"
     inkscape:window-x="-8"
     inkscape:window-y="-8"
     inkscape:window-maximized="1"
     inkscape:current-layer="svg60"
     inkscape:document-rotation="0"
     fit-margin-top="0"
     fit-margin-left="0"
     fit-margin-right="0"
     fit-margin-bottom="0" />
  <linearGradient
     id="a"
     x1="-0.027780002"
     y1="0.31999999"
     y2="0.67556">
    <stop
       offset="0"
       stop-color="#2298bd"
       id="stop53" />
    <stop
       offset="1"
       stop-color="#0ed7b5"
       id="stop55" />
  </linearGradient>
  <path
     d="m 2.7904,-0.03316662 c -0.7440994,0 -1.2091806,0.3720606 -1.3952,1.11616002 C 1.67424,0.71093278 1.9997794,0.57141278 2.37184,0.66443338 2.5841066,0.71749458 2.7358346,0.87151158 2.9037818,1.0419658 3.1773718,1.319676 3.493995,1.6410734 4.1856,1.6410734 c 0.7440994,0 1.2091806,-0.3720606 1.3952,-1.11616002 C 5.30176,0.89697398 4.9762206,1.036494 4.60416,0.94347338 4.3918934,0.89041218 4.2401654,0.73639518 4.0722182,0.56594098 3.7986282,0.28823078 3.482005,-0.03316662 2.7904,-0.03316662 Z M 1.3952,1.6410734 c -0.7440994,0 -1.2091806,0.3720606 -1.3952,1.11616 0.27904,-0.3720606 0.6045794,-0.5115806 0.97664,-0.41856 0.2122666,0.053061 0.3639946,0.2070782 0.5319418,0.3775324 0.27359,0.2777102 0.5902132,0.5991076 1.2818182,0.5991076 0.7440994,0 1.2091806,-0.3720606 1.3952,-1.11616 C 3.90656,2.571214 3.5810206,2.710734 3.20896,2.6177134 2.9966934,2.5646522 2.8449654,2.4106352 2.6770182,2.240181 2.4034282,1.9624708 2.086805,1.6410734 1.3952,1.6410734 Z"
     fill="url(#a)"
     id="path58"
     style="fill:#707070;fill-opacity:1;stroke-width:0.0218" />
  <path
     d="M 19.364468,0.41721486 V 2.8799999 h -0.453671 v -0.226835 c 0,0 -0.162025,0.2916452 -0.550885,0.2916452 -0.421266,0 -0.712912,-0.1944304 -0.745316,-0.9397469 0,-0.777721 0.486075,-0.9721515 0.810126,-0.9721515 0.291646,0 0.486075,0.2268351 0.486075,0.2268351 V 0.41721486 Z M 18.910797,1.9726586 c 0,-0.2592406 -0.0324,-0.5508868 -0.421266,-0.5508868 -0.38886,0 -0.38886,0.4536712 -0.38886,0.5832914 0,0.162025 0.0324,0.5184813 0.38886,0.5184813 0.356456,0 0.421266,-0.2916461 0.421266,-0.5508859 z M 17.258139,1.6486078 V 2.8475953 H 16.772063 V 1.6810124 c 0,-0.162025 -0.09722,-0.2916452 -0.291645,-0.2916452 -0.194431,0 -0.388862,0.162025 -0.388862,0.3240508 V 2.8475953 H 15.60548 V 1.0329117 h 0.486076 v 0.2592398 c 0,0 0.162026,-0.3240499 0.648102,-0.2916453 0.550887,0.064812 0.518481,0.5832914 0.518481,0.6481016 z M 14.730545,1.0653164 h 0.486076 v 1.8146835 h -0.486076 z m 0,-0.64810154 h 0.486076 V 0.8384813 H 14.730545 Z M 14.536114,1.0653164 14.017633,2.8799999 H 13.531557 L 13.207506,1.6810124 12.883455,2.8799999 h -0.45367 L 11.911304,1.0653164 h 0.518481 l 0.25924,1.166582 0.356455,-1.166582 h 0.421267 l 0.291645,1.1989875 0.259241,-1.1989875 z M 11.198392,0.38481017 h 0.486076 V 2.8475953 H 11.198392 Z M 10.323455,1.0653164 h 0.486076 v 1.8146835 h -0.486076 z m 0,-0.64810154 h 0.486076 V 0.8384813 H 10.323455 Z M 9.9345948,1.713418 V 2.8475953 H 9.4809234 v -0.226836 c 0,0 -0.1296204,0.1620258 -0.3240508,0.226836 -0.2916457,0.097215 -0.7129114,0.032406 -0.8425317,-0.2916461 -0.097215,-0.2592406 0,-0.550886 0.2592406,-0.6805062 0.3240508,-0.162025 0.8749372,-0.1296204 0.8749372,-0.1296204 0,0 0.032406,-0.1296203 -0.032406,-0.2268352 -0.032406,-0.097216 -0.1296206,-0.1296202 -0.2592409,-0.1296202 -0.3240504,0 -0.3240504,0.2268351 -0.3240504,0.2268351 L 8.3791503,1.5837961 c 0,0 0,-0.226836 0.2268351,-0.388861 0.1296204,-0.097215 0.2916461,-0.1296202 0.5832918,-0.1296202 0.3564556,0 0.7453166,0.1296202 0.7453166,0.6481015 z M 9.189278,2.5235445 C 9.5133288,2.458732 9.4809234,2.0698734 9.4809234,2.0698734 H 9.351303 c -0.097215,0 -0.2268355,0 -0.3240503,0.032406 -0.1620258,0.032406 -0.226836,0.097216 -0.2592407,0.1620258 -0.032406,0.097215 0,0.1944304 0.097215,0.2592406 0.064813,0.032406 0.1620258,0.032406 0.3240511,0 z M 8.5087714,0.38481017 V 0.870886 H 7.763455 V 2.8799999 H 7.212569 V 0.8384813 H 6.4996573 V 0.38481017 Z"
     fill="#252a2f"
     id="path78"
     sodipodi:nodetypes="ccccscscccssssssccsssccccccscccccccccccccccccccccccccccccccccccccccscccscsccscccssscscccsccccccccc"
     style="fill:#707070;fill-opacity:1;stroke-width:0.324051" />
</svg>
