<svg width="269" height="132" viewBox="0 0 269 132" fill="none" xmlns="http://www.w3.org/2000/svg">
<path d="M13.1857 130.929H17.7595V103.61H13.1857V130.929ZM0.757812 95.0076V99.0724H30.1559V95.0076H0.757812Z" fill="white"/>
<path d="M39.8396 99.0409H59.2385V94.9761H35.2659V106.099H39.8396V99.0409ZM35.2974 126.896V130.961H59.7117V126.896H35.2974ZM39.8396 114.481H56.7151V110.7H35.2974V122.327H39.8711L39.8396 114.481Z" fill="white"/>
<path d="M68.3229 107.927C68.8276 106.257 69.6477 104.744 70.6886 103.421C71.698 102.097 73.0228 100.995 74.5369 100.175C76.0509 99.356 77.8173 98.9149 79.8676 98.9149C80.7824 98.9149 81.6971 99.0094 82.6434 99.23C83.5582 99.419 84.4729 99.7972 85.3876 100.238C86.2393 100.742 87.1225 101.341 87.8795 102.097C88.6366 102.917 89.299 103.862 89.8667 104.996L93.4626 102.665C92.3586 100.333 90.6238 98.4737 88.3527 96.9927C86.0185 95.5748 83.2743 94.8185 80.0884 94.8185C77.3442 94.8185 74.9785 95.3857 72.8335 96.394C70.6571 97.4654 68.8907 98.8203 67.4082 100.553C65.9256 102.286 64.8216 104.209 64.0646 106.32C63.4968 107.832 63.2129 109.345 63.0552 110.826H67.6605C67.8182 109.849 68.0075 108.872 68.3229 107.927ZM90.3083 120.815C89.8037 121.917 89.1413 122.894 88.3211 123.714C87.501 124.533 86.6494 125.195 85.7977 125.699C84.8199 126.203 83.9367 126.613 82.8958 126.802C81.8864 127.054 80.9085 127.148 79.9938 127.148C78.1643 127.148 76.5556 126.802 75.0416 125.982C73.5275 125.226 72.2027 124.155 71.0987 122.831C69.9316 121.508 69.0799 120.058 68.4491 118.325C68.039 117.254 67.7867 116.214 67.629 115.048H63.0237C63.2129 116.561 63.5915 118.042 64.1277 119.491C64.9478 121.728 66.1149 123.682 67.629 125.415C69.143 127.148 70.9094 128.566 72.9913 129.606C75.01 130.709 77.3126 131.213 79.773 131.213C81.1293 131.213 82.5488 131.055 84.0313 130.646C85.4507 130.299 86.8071 129.795 88.1319 129.039C89.4567 128.377 90.6238 127.463 91.6332 126.455C92.6425 125.447 93.4626 124.218 94.062 122.863L90.3083 120.815Z" fill="white"/>
<path d="M99.8027 130.929H104.376V95.0076H99.8027V130.929ZM124.185 95.0076V110.542H108.414V114.607H124.185V130.961H128.759V95.0391H124.185V95.0076Z" fill="white"/>
<path d="M193.075 117.191C194.179 116.939 195.252 116.435 196.166 115.71C197.081 115.048 197.901 114.229 198.532 113.284C199.194 112.37 199.699 111.298 200.046 110.133C200.393 108.967 200.614 107.769 200.614 106.477C200.614 105.059 200.298 103.704 199.794 102.318C199.226 100.963 198.469 99.7341 197.523 98.6313C196.576 97.5284 195.409 96.6461 194.085 95.9844C192.76 95.3227 191.309 94.9761 189.732 94.9761H174.339V130.898H178.912V117.979H183.486L180.963 113.914H178.944V98.9779H189.542C190.394 98.9779 191.214 99.1669 192.034 99.5766C192.854 99.9862 193.517 100.49 194.116 101.184C194.715 101.877 195.189 102.665 195.536 103.547C195.882 104.461 196.103 105.406 196.103 106.383C196.103 107.391 195.946 108.305 195.662 109.219C195.315 110.196 194.905 110.952 194.4 111.645C193.832 112.338 193.17 112.905 192.413 113.252C191.656 113.662 190.804 113.851 189.889 113.851H185.883L188.438 118.042L196.64 130.961H201.813L193.075 117.191Z" fill="white"/>
<path d="M217.426 125.982C215.849 125.289 214.524 124.249 213.483 122.957C212.379 121.634 211.465 120.184 210.834 118.451C210.171 116.718 209.856 114.954 209.856 113C209.856 111.235 210.108 109.471 210.708 107.738C211.275 106.005 212.064 104.555 213.136 103.232C214.146 101.908 215.408 100.9 216.922 100.081C218.404 99.2615 220.013 98.8519 221.874 98.8519C224.113 98.8519 226.069 99.356 227.899 100.364C229.665 101.373 231.084 102.948 232.22 105.028L235.753 102.602C234.523 100.333 232.819 98.4107 230.58 96.9297C228.34 95.5117 225.47 94.7555 222.032 94.7555C219.603 94.7555 217.363 95.2597 215.344 96.2365C213.263 97.2448 211.496 98.5683 210.014 100.238C208.5 101.908 207.333 103.83 206.512 106.005C205.661 108.179 205.251 110.448 205.251 112.874C205.251 115.237 205.661 117.475 206.512 119.649C207.364 121.886 208.531 123.808 210.045 125.51C211.528 127.243 213.231 128.598 215.313 129.606C217.332 130.677 219.571 131.182 222 131.182C224.523 131.182 226.858 130.583 229.034 129.259V125.005C226.921 126.423 224.681 127.085 222.347 127.085C220.549 127.085 218.94 126.739 217.426 125.982ZM225.217 113.032V116.466H232.977V130.929H236.825V113H225.217V113.032Z" fill="white"/>
<path d="M248.37 99.0409H267.769V94.9761H243.796V106.099H248.37V99.0409ZM243.796 126.896V130.961H268.242V126.896H243.796ZM248.37 114.481H265.246V110.7H243.828V122.327H248.37V114.481Z" fill="white"/>
</svg>
