<?xml version="1.0" encoding="UTF-8" standalone="no"?>
<svg
   xmlns:dc="http://purl.org/dc/elements/1.1/"
   xmlns:cc="http://creativecommons.org/ns#"
   xmlns:rdf="http://www.w3.org/1999/02/22-rdf-syntax-ns#"
   xmlns:svg="http://www.w3.org/2000/svg"
   xmlns="http://www.w3.org/2000/svg"
   xmlns:sodipodi="http://sodipodi.sourceforge.net/DTD/sodipodi-0.dtd"
   xmlns:inkscape="http://www.inkscape.org/namespaces/inkscape"
   width="121"
   height="45"
   viewBox="0 0 121 45"
   fill="none"
   version="1.1"
   id="svg78"
   sodipodi:docname="wagtail-logo.svg"
   inkscape:version="1.0.2 (e86c870879, 2021-01-15, custom)">
  <metadata
     id="metadata82">
    <rdf:RDF>
      <cc:Work
         rdf:about="">
        <dc:format>image/svg+xml</dc:format>
        <dc:type
           rdf:resource="http://purl.org/dc/dcmitype/StillImage" />
      </cc:Work>
    </rdf:RDF>
  </metadata>
  <sodipodi:namedview
     pagecolor="#ffffff"
     bordercolor="#666666"
     borderopacity="1"
     objecttolerance="10"
     gridtolerance="10"
     guidetolerance="10"
     inkscape:pageopacity="0"
     inkscape:pageshadow="2"
     inkscape:window-width="1920"
     inkscape:window-height="1017"
     id="namedview80"
     showgrid="false"
     inkscape:zoom="6.9750359"
     inkscape:cx="60.5"
     inkscape:cy="22.5"
     inkscape:window-x="-8"
     inkscape:window-y="-8"
     inkscape:window-maximized="1"
     inkscape:current-layer="g71" />
  <g
     clip-path="url(#clip0)"
     id="g71">
    <path
       d="M30.1051 1.27539V3.27965C30.1051 3.27965 26.5185 1.94348 24.1978 4.36968C22.51 6.12781 22.3693 8.0969 23.1429 10.7341C30.738 10.7341 31.9335 14.9887 31.9335 14.9887L31.16 10.1012L33.551 7.18268C33.551 3.73676 30.7028 1.4512 30.1051 1.27539Z"
       fill="white"
       id="path47" />
    <path
       d="M30.7732 7.11238C31.2781 7.11238 31.6874 6.70307 31.6874 6.19816C31.6874 5.69325 31.2781 5.28394 30.7732 5.28394C30.2683 5.28394 29.8589 5.69325 29.8589 6.19816C29.8589 6.70307 30.2683 7.11238 30.7732 7.11238Z"
       fill="black"
       id="path49"
       style="fill:#707070;fill-opacity:1" />
    <path
       d="M31.9334 14.9889C31.9334 14.9889 30.7731 9.15189 23.178 10.7342C22.4044 8.09702 22.5451 6.16309 24.2329 4.3698C26.5184 1.94359 30.105 3.27977 30.105 3.27977V1.27551C28.8391 0.712909 27.6436 0.607422 26.3074 0.607422C21.4199 0.607422 18.7124 4.26431 17.552 6.72569L3.80349 32.0075L7.67136 31.2691L0.568542 44.9824L5.52645 44.1034L9.32399 33.3085C20.0837 33.3085 33.8674 29.4406 31.9334 14.9889Z"
       fill="black"
       id="path51"
       style="fill:#707070;fill-opacity:1" />
    <path
       d="M36.5749 10.1013L33.551 7.18286L31.1599 10.1013H36.5749Z"
       fill="black"
       id="path53"
       style="fill:#707070;fill-opacity:1" />
    <path
       d="M11.1172 30.179C11.1172 30.179 11.4689 30.1087 12.1018 29.968C12.7347 29.8274 13.6138 29.6164 14.6687 29.3351C15.1961 29.1945 15.7587 29.0187 16.3565 28.8077C16.9542 28.5967 17.5871 28.3857 18.1849 28.1044C18.8178 27.8583 19.4507 27.5418 20.0837 27.1902C20.7166 26.8386 21.3144 26.4518 21.877 25.9947C22.0176 25.8892 22.1583 25.7837 22.2989 25.6431L22.7209 25.2914C22.967 25.0453 23.2483 24.7992 23.4944 24.5179C23.7406 24.2717 23.9515 23.9904 24.1625 23.7091C24.268 23.5685 24.3735 23.4278 24.479 23.2872L24.6196 23.0762L24.7603 22.8652C24.8306 22.7246 24.9361 22.5839 25.0064 22.4433C25.0767 22.3026 25.1471 22.162 25.2525 22.0213C25.2877 21.951 25.3229 21.8807 25.358 21.8104C25.3932 21.74 25.4284 21.6697 25.4635 21.5994C25.5338 21.4587 25.6042 21.3181 25.6393 21.1774C25.7448 20.8961 25.8503 20.6148 25.9558 20.3335C26.0261 20.0522 26.1316 19.7709 26.2019 19.5248C26.2723 19.2787 26.3074 18.9974 26.3777 18.7864C26.4129 18.5402 26.4481 18.3293 26.4832 18.0831C26.5184 17.8722 26.5536 17.6612 26.5536 17.4854C26.5887 17.3096 26.5887 17.1337 26.6239 16.9579C26.659 16.325 26.659 15.9734 26.659 15.9734L27.2216 16.0086C27.2216 16.0086 27.1865 16.3953 27.1513 17.0283C27.1162 17.2041 27.1162 17.3799 27.081 17.5557C27.0458 17.7667 27.0458 17.9776 26.9755 18.1886C26.9403 18.3996 26.87 18.6457 26.8349 18.8919C26.7645 19.138 26.6942 19.3841 26.6239 19.6654C26.5536 19.9467 26.4481 20.1929 26.3426 20.5093C26.2371 20.7906 26.1316 21.0719 25.991 21.3884C25.9206 21.5291 25.8503 21.6697 25.78 21.8104C25.7448 21.8807 25.7097 21.951 25.6745 22.0213C25.6393 22.0917 25.6042 22.162 25.569 22.2323C25.4987 22.373 25.3932 22.5136 25.3229 22.6894C25.2174 22.8301 25.1471 22.9707 25.0416 23.1114C25.0064 23.1817 24.9361 23.252 24.9009 23.3223L24.7603 23.5333C24.6548 23.674 24.5493 23.8146 24.4438 23.9553C24.1977 24.2366 23.9867 24.5179 23.7054 24.764C23.4593 25.0453 23.178 25.2563 22.8967 25.5376L22.4747 25.8892C22.3341 25.9947 22.1934 26.1002 22.0176 26.2057C21.4198 26.6276 20.7869 27.0144 20.154 27.366C19.5211 27.6825 18.853 27.9989 18.2201 28.2451C17.5871 28.4912 16.9542 28.7022 16.3565 28.878C15.7587 29.0538 15.1961 29.2296 14.6335 29.3351C13.5786 29.5813 12.6644 29.7922 12.0315 29.8977C11.4689 30.1087 11.1172 30.179 11.1172 30.179Z"
       fill="white"
       id="path55" />
    <path
       d="M45.2248 30.1087H42.1305L37.7001 17.3096H40.4779L43.6425 26.9792L46.8071 17.3096H49.585L52.7496 26.9792L55.9142 17.3096H58.692L54.3671 30.1087H51.2728L48.2488 21.3533L45.2248 30.1087Z"
       fill="#231F20"
       id="path57"
       style="fill:#707070;fill-opacity:1" />
    <path
       d="M70.9285 30.1087H68.4671V28.3858C67.4123 29.6516 66.0058 30.2846 64.2125 30.2846C62.8763 30.2846 61.7863 29.8978 60.9072 29.1594C60.0282 28.4209 59.6062 27.4012 59.6062 26.1354C59.6062 24.8695 60.0633 23.9202 61.0127 23.3224C61.9269 22.6895 63.1928 22.373 64.7751 22.373H68.2562V21.8807C68.2562 20.1929 67.3068 19.3139 65.408 19.3139C64.2125 19.3139 62.9818 19.7358 61.7159 20.6149L60.5204 18.9271C62.0676 17.6964 63.8257 17.0635 65.83 17.0635C67.3419 17.0635 68.5726 17.4503 69.522 18.1887C70.4714 18.9622 70.9637 20.1578 70.9637 21.7752V30.1087H70.9285ZM68.221 25.3267V24.2366H65.197C63.2631 24.2366 62.2785 24.8344 62.2785 26.0651C62.2785 26.698 62.5247 27.1551 63.017 27.5067C63.5092 27.8232 64.1773 27.999 65.0212 27.999C65.8651 27.999 66.6387 27.7529 67.2716 27.2606C67.9045 26.8035 68.221 26.1706 68.221 25.3267Z"
       fill="#231F20"
       id="path59"
       style="fill:#707070;fill-opacity:1" />
    <path
       d="M85.5561 17.3096V28.4561C85.5561 30.7065 84.9583 32.4295 83.7277 33.5547C82.497 34.6799 80.9147 35.2425 79.0159 35.2425C77.082 35.2425 75.359 34.6447 73.8119 33.4492L75.0777 31.4098C76.3436 32.3591 77.5742 32.8163 78.8752 32.8163C80.1411 32.8163 81.1608 32.4998 81.8992 31.8317C82.6376 31.1636 83.0244 30.1087 83.0244 28.6671V27.0145C82.6376 27.7529 82.0399 28.3858 81.3015 28.8077C80.563 29.2648 79.7191 29.4758 78.8049 29.4758C77.1171 29.4758 75.7106 28.8781 74.6206 27.6825C73.5306 26.487 72.968 25.0102 72.968 23.2521C72.968 21.4939 73.5306 20.0171 74.6206 18.8216C75.7106 17.6261 77.1171 17.0283 78.8049 17.0283C80.4927 17.0283 81.8641 17.7316 82.9189 19.1381V17.2393H85.5561V17.3096ZM75.57 23.2169C75.57 24.2718 75.8864 25.186 76.5545 25.9244C77.1875 26.698 78.0665 27.0496 79.1917 27.0496C80.2817 27.0496 81.196 26.698 81.8641 25.9596C82.5321 25.2212 82.8838 24.3069 82.8838 23.2169C82.8838 22.1269 82.5321 21.1775 81.8641 20.4391C81.1608 19.6655 80.2817 19.3139 79.1917 19.3139C78.1017 19.3139 77.2226 19.7007 76.5897 20.5094C75.8864 21.2478 75.57 22.162 75.57 23.2169Z"
       fill="#231F20"
       id="path61"
       style="fill:#707070;fill-opacity:1" />
    <path
       d="M92.3075 19.4545V25.9595C92.3075 26.5573 92.4833 27.0495 92.7997 27.4012C93.1162 27.7528 93.5733 27.9286 94.1359 27.9286C94.6985 27.9286 95.2611 27.6473 95.7885 27.0847L96.8786 28.9835C95.9292 29.8274 94.8743 30.2493 93.7491 30.2493C92.5888 30.2493 91.6394 29.8625 90.8306 29.0538C90.0219 28.2451 89.6 27.1902 89.6 25.854V19.4545H87.9825V17.2744H89.6V13.301H92.3075V17.3095H95.6831V19.4896H92.3075V19.4545Z"
       fill="#231F20"
       id="path63"
       style="fill:#707070;fill-opacity:1" />
    <path
       d="M109.396 30.1087H106.935V28.3858C105.88 29.6516 104.474 30.2846 102.68 30.2846C101.344 30.2846 100.254 29.8978 99.3751 29.1594C98.4961 28.4209 98.0741 27.4012 98.0741 26.1354C98.0741 24.8695 98.5312 23.9202 99.4806 23.3224C100.395 22.6895 101.661 22.373 103.243 22.373H106.724V21.8807C106.724 20.1929 105.775 19.3139 103.876 19.3139C102.68 19.3139 101.45 19.7358 100.184 20.6149L98.9883 18.9271C100.535 17.6964 102.294 17.0635 104.298 17.0635C105.81 17.0635 107.041 17.4503 107.99 18.1887C108.939 18.9622 109.432 20.1578 109.432 21.7752V30.1087H109.396ZM106.689 25.3267V24.2366H103.665C101.731 24.2366 100.746 24.8344 100.746 26.0651C100.746 26.698 100.993 27.1551 101.485 27.5067C101.977 27.8232 102.645 27.999 103.489 27.999C104.333 27.999 105.107 27.7529 105.74 27.2606C106.372 26.8035 106.689 26.1706 106.689 25.3267Z"
       fill="#231F20"
       id="path65"
       style="fill:#707070;fill-opacity:1" />
    <path
       d="M112.842 14.7427C112.491 14.3911 112.35 14.0043 112.35 13.5472C112.35 13.0901 112.526 12.6681 112.842 12.3516C113.194 12 113.581 11.8594 114.038 11.8594C114.495 11.8594 114.917 12.0352 115.233 12.3516C115.585 12.7033 115.726 13.0901 115.726 13.5472C115.726 14.0043 115.55 14.4262 115.233 14.7427C114.917 15.0592 114.495 15.235 114.038 15.235C113.581 15.2701 113.194 15.0943 112.842 14.7427ZM115.374 30.1087H112.666V17.3096H115.374V30.1087Z"
       fill="#231F20"
       id="path67"
       style="fill:#707070;fill-opacity:1" />
    <path
       d="M121 30.1086H118.292V12.2461H121V30.1086Z"
       fill="#231F20"
       id="path69"
       style="fill:#707070;fill-opacity:1" />
  </g>
  <defs
     id="defs76">
    <clipPath
       id="clip0">
      <rect
         width="120.431"
         height="44.375"
         fill="white"
         transform="translate(0.568604 0.607422)"
         id="rect73" />
    </clipPath>
  </defs>
</svg>
